<ttFont>
    <TTGlyph name="A" xMin="-60" yMin="0" xMax="2166" yMax="1434">
      <contour>
        <pt x="234" y="251" on="1"/>
        <pt x="705" y="1189" on="1"/>
        <pt x="490" y="1434" on="1"/>
        <pt x="1662" y="1434" on="1"/>
        <pt x="1481" y="1180" on="1"/>
        <pt x="1903" y="253" on="1"/>
        <pt x="2166" y="0" on="1"/>
        <pt x="1116" y="0" on="1"/>
        <pt x="1334" y="251" on="1"/>
        <pt x="1291" y="356" on="1"/>
        <pt x="631" y="356" on="1"/>
        <pt x="584" y="251" on="1"/>
        <pt x="871" y="0" on="1"/>
        <pt x="-60" y="0" on="1"/>
      </contour>
      <contour>
        <pt x="1207" y="565" on="1"/>
        <pt x="978" y="1129" on="1"/>
        <pt x="725" y="565" on="1"/>
      </contour>
    </TTGlyph>
    <TTGlyph name="AE" xMin="-213" yMin="0" xMax="2600" yMax="1434">
      <contour>
        <pt x="103" y="222" on="1"/>
        <pt x="923" y="1307" on="1"/>
        <pt x="783" y="1434" on="1"/>
        <pt x="2600" y="1434" on="1"/>
        <pt x="2580" y="938" on="1"/>
        <pt x="2181" y="1205" on="1"/>
        <pt x="1591" y="1205" on="1"/>
        <pt x="1591" y="874" on="1"/>
        <pt x="2193" y="874" on="1"/>
        <pt x="2193" y="654" on="1"/>
        <pt x="1591" y="654" on="1"/>
        <pt x="1591" y="229" on="1"/>
        <pt x="2181" y="229" on="1"/>
        <pt x="2590" y="473" on="1"/>
        <pt x="2590" y="0" on="1"/>
        <pt x="783" y="0" on="1"/>
        <pt x="1064" y="254" on="1"/>
        <pt x="1064" y="356" on="1"/>
        <pt x="548" y="356" on="1"/>
        <pt x="443" y="206" on="1"/>
        <pt x="598" y="0" on="1"/>
        <pt x="-213" y="0" on="1"/>
      </contour>
      <contour>
        <pt x="1064" y="565" on="1"/>
        <pt x="1064" y="1088" on="1"/>
        <pt x="695" y="565" on="1"/>
      </contour>
    </TTGlyph>
    <TTGlyph name="Aacute" xMin="-60" yMin="0" xMax="2166" yMax="1879">
      <contour>
        <pt x="1120" y="1879" on="1"/>
        <pt x="1791" y="1879" on="1"/>
        <pt x="1081" y="1563" on="1"/>
        <pt x="710" y="1563" on="1"/>
      </contour>
      <contour>
        <pt x="234" y="251" on="1"/>
        <pt x="705" y="1189" on="1"/>
        <pt x="495" y="1434" on="1"/>
        <pt x="1662" y="1434" on="1"/>
        <pt x="1481" y="1180" on="1"/>
        <pt x="1903" y="253" on="1"/>
        <pt x="2166" y="0" on="1"/>
        <pt x="1116" y="0" on="1"/>
        <pt x="1334" y="251" on="1"/>
        <pt x="1291" y="356" on="1"/>
        <pt x="631" y="356" on="1"/>
        <pt x="584" y="251" on="1"/>
        <pt x="871" y="0" on="1"/>
        <pt x="-60" y="0" on="1"/>
      </contour>
      <contour>
        <pt x="1207" y="565" on="1"/>
        <pt x="978" y="1129" on="1"/>
        <pt x="725" y="565" on="1"/>
      </contour>
    </TTGlyph>
    <TTGlyph name="Acircumflex" xMin="-60" yMin="0" xMax="2166" yMax="1879">
      <contour>
        <pt x="833" y="1879" on="1"/>
        <pt x="1274" y="1879" on="1"/>
        <pt x="1685" y="1563" on="1"/>
        <pt x="1384" y="1563" on="1"/>
        <pt x="1053" y="1679" on="1"/>
        <pt x="714" y="1563" on="1"/>
        <pt x="413" y="1563" on="1"/>
      </contour>
      <contour>
        <pt x="234" y="251" on="1"/>
        <pt x="705" y="1189" on="1"/>
        <pt x="495" y="1434" on="1"/>
        <pt x="1662" y="1434" on="1"/>
        <pt x="1481" y="1180" on="1"/>
        <pt x="1903" y="253" on="1"/>
        <pt x="2166" y="0" on="1"/>
        <pt x="1116" y="0" on="1"/>
        <pt x="1334" y="251" on="1"/>
        <pt x="1291" y="356" on="1"/>
        <pt x="631" y="356" on="1"/>
        <pt x="584" y="251" on="1"/>
        <pt x="871" y="0" on="1"/>
        <pt x="-60" y="0" on="1"/>
      </contour>
      <contour>
        <pt x="1207" y="565" on="1"/>
        <pt x="978" y="1129" on="1"/>
        <pt x="725" y="565" on="1"/>
      </contour>
    </TTGlyph>
    <TTGlyph name="Adieresis" xMin="-60" yMin="0" xMax="2166" yMax="1917">
      <contour>
        <pt x="1355" y="1542" on="1"/>
        <pt x="1313" y="1542" on="0"/>
        <pt x="1239" y="1569" on="0"/>
        <pt x="1185" y="1618" on="0"/>
        <pt x="1153" y="1687" on="0"/>
        <pt x="1153" y="1729" on="1"/>
        <pt x="1153" y="1771" on="0"/>
        <pt x="1185" y="1841" on="0"/>
        <pt x="1239" y="1890" on="0"/>
        <pt x="1313" y="1917" on="0"/>
        <pt x="1355" y="1917" on="1"/>
        <pt x="1397" y="1917" on="0"/>
        <pt x="1472" y="1890" on="0"/>
        <pt x="1527" y="1841" on="0"/>
        <pt x="1559" y="1771" on="0"/>
        <pt x="1559" y="1729" on="1"/>
        <pt x="1559" y="1687" on="0"/>
        <pt x="1527" y="1618" on="0"/>
        <pt x="1472" y="1569" on="0"/>
        <pt x="1397" y="1542" on="0"/>
      </contour>
      <contour>
        <pt x="749" y="1542" on="1"/>
        <pt x="707" y="1542" on="0"/>
        <pt x="633" y="1569" on="0"/>
        <pt x="579" y="1618" on="0"/>
        <pt x="547" y="1687" on="0"/>
        <pt x="547" y="1729" on="1"/>
        <pt x="547" y="1771" on="0"/>
        <pt x="579" y="1841" on="0"/>
        <pt x="633" y="1890" on="0"/>
        <pt x="707" y="1917" on="0"/>
        <pt x="749" y="1917" on="1"/>
        <pt x="791" y="1917" on="0"/>
        <pt x="866" y="1890" on="0"/>
        <pt x="921" y="1841" on="0"/>
        <pt x="953" y="1771" on="0"/>
        <pt x="953" y="1729" on="1"/>
        <pt x="953" y="1687" on="0"/>
        <pt x="921" y="1618" on="0"/>
        <pt x="866" y="1569" on="0"/>
        <pt x="791" y="1542" on="0"/>
      </contour>
      <contour>
        <pt x="234" y="251" on="1"/>
        <pt x="705" y="1189" on="1"/>
        <pt x="495" y="1434" on="1"/>
        <pt x="1662" y="1434" on="1"/>
        <pt x="1481" y="1180" on="1"/>
        <pt x="1903" y="253" on="1"/>
        <pt x="2166" y="0" on="1"/>
        <pt x="1116" y="0" on="1"/>
        <pt x="1334" y="251" on="1"/>
        <pt x="1291" y="356" on="1"/>
        <pt x="631" y="356" on="1"/>
        <pt x="584" y="251" on="1"/>
        <pt x="871" y="0" on="1"/>
        <pt x="-60" y="0" on="1"/>
      </contour>
      <contour>
        <pt x="1207" y="565" on="1"/>
        <pt x="978" y="1129" on="1"/>
        <pt x="725" y="565" on="1"/>
      </contour>
    </TTGlyph>
    <TTGlyph name="Agrave" xMin="-60" yMin="0" xMax="2166" yMax="1879">
      <contour>
        <pt x="321" y="1879" on="1"/>
        <pt x="972" y="1879" on="1"/>
        <pt x="1382" y="1563" on="1"/>
        <pt x="1031" y="1563" on="1"/>
      </contour>
      <contour>
        <pt x="234" y="251" on="1"/>
        <pt x="705" y="1189" on="1"/>
        <pt x="495" y="1434" on="1"/>
        <pt x="1662" y="1434" on="1"/>
        <pt x="1481" y="1180" on="1"/>
        <pt x="1903" y="253" on="1"/>
        <pt x="2166" y="0" on="1"/>
        <pt x="1116" y="0" on="1"/>
        <pt x="1334" y="251" on="1"/>
        <pt x="1291" y="356" on="1"/>
        <pt x="631" y="356" on="1"/>
        <pt x="584" y="251" on="1"/>
        <pt x="871" y="0" on="1"/>
        <pt x="-60" y="0" on="1"/>
      </contour>
      <contour>
        <pt x="1207" y="565" on="1"/>
        <pt x="978" y="1129" on="1"/>
        <pt x="725" y="565" on="1"/>
      </contour>
    </TTGlyph>
    <TTGlyph name="Aring" xMin="-60" yMin="0" xMax="2166" yMax="1920">
      <contour>
        <pt x="234" y="251" on="1"/>
        <pt x="705" y="1189" on="1"/>
        <pt x="495" y="1434" on="1"/>
        <pt x="909" y="1434" on="1"/>
        <pt x="861" y="1471" on="0"/>
        <pt x="804" y="1582" on="0"/>
        <pt x="804" y="1648" on="1"/>
        <pt x="804" y="1704" on="0"/>
        <pt x="847" y="1803" on="0"/>
        <pt x="920" y="1877" on="0"/>
        <pt x="1019" y="1920" on="0"/>
        <pt x="1075" y="1920" on="1"/>
        <pt x="1131" y="1920" on="0"/>
        <pt x="1230" y="1877" on="0"/>
        <pt x="1304" y="1803" on="0"/>
        <pt x="1347" y="1704" on="0"/>
        <pt x="1347" y="1648" on="1"/>
        <pt x="1347" y="1582" on="0"/>
        <pt x="1289" y="1471" on="0"/>
        <pt x="1241" y="1434" on="1"/>
        <pt x="1662" y="1434" on="1"/>
        <pt x="1481" y="1180" on="1"/>
        <pt x="1903" y="253" on="1"/>
        <pt x="2166" y="0" on="1"/>
        <pt x="1116" y="0" on="1"/>
        <pt x="1334" y="251" on="1"/>
        <pt x="1291" y="356" on="1"/>
        <pt x="631" y="356" on="1"/>
        <pt x="584" y="251" on="1"/>
        <pt x="871" y="0" on="1"/>
        <pt x="-60" y="0" on="1"/>
      </contour>
      <contour>
        <pt x="1075" y="1520" on="1"/>
        <pt x="1102" y="1520" on="0"/>
        <pt x="1149" y="1540" on="0"/>
        <pt x="1184" y="1575" on="0"/>
        <pt x="1204" y="1621" on="0"/>
        <pt x="1204" y="1648" on="1"/>
        <pt x="1204" y="1675" on="0"/>
        <pt x="1184" y="1722" on="0"/>
        <pt x="1149" y="1757" on="0"/>
        <pt x="1102" y="1777" on="0"/>
        <pt x="1075" y="1777" on="1"/>
        <pt x="1048" y="1777" on="0"/>
        <pt x="1002" y="1757" on="0"/>
        <pt x="967" y="1722" on="0"/>
        <pt x="947" y="1675" on="0"/>
        <pt x="947" y="1648" on="1"/>
        <pt x="947" y="1621" on="0"/>
        <pt x="967" y="1575" on="0"/>
        <pt x="1002" y="1540" on="0"/>
        <pt x="1048" y="1520" on="0"/>
      </contour>
      <contour>
        <pt x="1207" y="565" on="1"/>
        <pt x="978" y="1129" on="1"/>
        <pt x="725" y="565" on="1"/>
      </contour>
    </TTGlyph>
    <TTGlyph name="Atilde" xMin="-60" yMin="0" xMax="2166" yMax="1900">
      <contour>
        <pt x="440" y="1681" on="1"/>
        <pt x="466" y="1715" on="0"/>
        <pt x="545" y="1792" on="0"/>
        <pt x="648" y="1857" on="0"/>
        <pt x="775" y="1900" on="0"/>
        <pt x="850" y="1900" on="1"/>
        <pt x="916" y="1900" on="0"/>
        <pt x="1037" y="1872" on="0"/>
        <pt x="1097" y="1852" on="1"/>
        <pt x="1167" y="1829" on="0"/>
        <pt x="1310" y="1792" on="0"/>
        <pt x="1388" y="1792" on="1"/>
        <pt x="1444" y="1792" on="0"/>
        <pt x="1541" y="1824" on="0"/>
        <pt x="1593" y="1850" on="1"/>
        <pt x="1679" y="1775" on="1"/>
        <pt x="1652" y="1741" on="0"/>
        <pt x="1574" y="1664" on="0"/>
        <pt x="1471" y="1599" on="0"/>
        <pt x="1344" y="1556" on="0"/>
        <pt x="1269" y="1556" on="1"/>
        <pt x="1195" y="1556" on="0"/>
        <pt x="1060" y="1591" on="0"/>
        <pt x="992" y="1613" on="1"/>
        <pt x="929" y="1633" on="0"/>
        <pt x="800" y="1664" on="0"/>
        <pt x="730" y="1664" on="1"/>
        <pt x="674" y="1664" on="0"/>
        <pt x="577" y="1632" on="0"/>
        <pt x="526" y="1606" on="1"/>
      </contour>
      <contour>
        <pt x="234" y="251" on="1"/>
        <pt x="705" y="1189" on="1"/>
        <pt x="495" y="1434" on="1"/>
        <pt x="1662" y="1434" on="1"/>
        <pt x="1481" y="1180" on="1"/>
        <pt x="1903" y="253" on="1"/>
        <pt x="2166" y="0" on="1"/>
        <pt x="1116" y="0" on="1"/>
        <pt x="1334" y="251" on="1"/>
        <pt x="1291" y="356" on="1"/>
        <pt x="631" y="356" on="1"/>
        <pt x="584" y="251" on="1"/>
        <pt x="871" y="0" on="1"/>
        <pt x="-60" y="0" on="1"/>
      </contour>
      <contour>
        <pt x="1207" y="565" on="1"/>
        <pt x="978" y="1129" on="1"/>
        <pt x="725" y="565" on="1"/>
      </contour>
    </TTGlyph>
    <TTGlyph name="B" xMin="30" yMin="-7" xMax="2018" yMax="1441">
      <contour>
        <pt x="341" y="254" on="1"/>
        <pt x="341" y="1180" on="1"/>
        <pt x="31" y="1434" on="1"/>
        <pt x="104" y="1435" on="0"/>
        <pt x="286" y="1436" on="0"/>
        <pt x="480" y="1438" on="0"/>
        <pt x="674" y="1439" on="0"/>
        <pt x="846" y="1440" on="0"/>
        <pt x="984" y="1441" on="0"/>
        <pt x="1025" y="1441" on="1"/>
        <pt x="1120" y="1441" on="0"/>
        <pt x="1328" y="1433" on="0"/>
        <pt x="1529" y="1406" on="0"/>
        <pt x="1710" y="1353" on="0"/>
        <pt x="1847" y="1264" on="0"/>
        <pt x="1928" y="1133" on="0"/>
        <pt x="1928" y="1041" on="1"/>
        <pt x="1928" y="962" on="0"/>
        <pt x="1874" y="852" on="0"/>
        <pt x="1772" y="778" on="0"/>
        <pt x="1625" y="737" on="0"/>
        <pt x="1531" y="727" on="1"/>
        <pt x="1641" y="716" on="0"/>
        <pt x="1821" y="672" on="0"/>
        <pt x="1948" y="595" on="0"/>
        <pt x="2018" y="477" on="0"/>
        <pt x="2018" y="393" on="1"/>
        <pt x="2018" y="301" on="0"/>
        <pt x="1937" y="170" on="0"/>
        <pt x="1800" y="81" on="0"/>
        <pt x="1619" y="28" on="0"/>
        <pt x="1418" y="1" on="0"/>
        <pt x="1210" y="-7" on="0"/>
        <pt x="1115" y="-7" on="1"/>
        <pt x="1070" y="-7" on="0"/>
        <pt x="919" y="-6" on="0"/>
        <pt x="731" y="-5" on="0"/>
        <pt x="520" y="-4" on="0"/>
        <pt x="309" y="-2" on="0"/>
        <pt x="110" y="-1" on="0"/>
        <pt x="30" y="0" on="1"/>
      </contour>
      <contour>
        <pt x="994" y="819" on="1"/>
        <pt x="1025" y="819" on="0"/>
        <pt x="1107" y="821" on="0"/>
        <pt x="1195" y="832" on="0"/>
        <pt x="1280" y="855" on="0"/>
        <pt x="1347" y="898" on="0"/>
        <pt x="1388" y="964" on="0"/>
        <pt x="1388" y="1012" on="1"/>
        <pt x="1388" y="1082" on="0"/>
        <pt x="1315" y="1166" on="0"/>
        <pt x="1200" y="1211" on="0"/>
        <pt x="1060" y="1225" on="0"/>
        <pt x="994" y="1225" on="1"/>
        <pt x="868" y="1225" on="1"/>
        <pt x="868" y="819" on="1"/>
      </contour>
      <contour>
        <pt x="1064" y="209" on="1"/>
        <pt x="1109" y="209" on="0"/>
        <pt x="1205" y="212" on="0"/>
        <pt x="1297" y="226" on="0"/>
        <pt x="1380" y="253" on="0"/>
        <pt x="1442" y="303" on="0"/>
        <pt x="1478" y="377" on="0"/>
        <pt x="1478" y="430" on="1"/>
        <pt x="1478" y="487" on="0"/>
        <pt x="1428" y="565" on="0"/>
        <pt x="1325" y="614" on="0"/>
        <pt x="1169" y="635" on="0"/>
        <pt x="1064" y="635" on="1"/>
        <pt x="868" y="635" on="1"/>
        <pt x="868" y="209" on="1"/>
      </contour>
    </TTGlyph>
    <TTGlyph name="C" xMin="90" yMin="-39" xMax="1947" yMax="1472">
      <contour>
        <pt x="90" y="717" on="1"/>
        <pt x="90" y="850" on="0"/>
        <pt x="168" y="1066" on="0"/>
        <pt x="306" y="1234" on="0"/>
        <pt x="494" y="1355" on="0"/>
        <pt x="715" y="1434" on="0"/>
        <pt x="959" y="1472" on="0"/>
        <pt x="1084" y="1472" on="1"/>
        <pt x="1176" y="1472" on="0"/>
        <pt x="1340" y="1450" on="0"/>
        <pt x="1483" y="1413" on="0"/>
        <pt x="1603" y="1365" on="0"/>
        <pt x="1651" y="1339" on="1"/>
        <pt x="1724" y="1434" on="1"/>
        <pt x="1933" y="1434" on="1"/>
        <pt x="1933" y="926" on="1"/>
        <pt x="1668" y="876" on="1"/>
        <pt x="1644" y="957" on="0"/>
        <pt x="1550" y="1097" on="0"/>
        <pt x="1418" y="1199" on="0"/>
        <pt x="1251" y="1258" on="0"/>
        <pt x="1153" y="1258" on="1"/>
        <pt x="1027" y="1258" on="0"/>
        <pt x="847" y="1169" on="0"/>
        <pt x="732" y="1020" on="0"/>
        <pt x="678" y="824" on="0"/>
        <pt x="678" y="717" on="1"/>
        <pt x="678" y="586" on="0"/>
        <pt x="755" y="384" on="0"/>
        <pt x="893" y="247" on="0"/>
        <pt x="1082" y="177" on="0"/>
        <pt x="1195" y="177" on="1"/>
        <pt x="1283" y="177" on="0"/>
        <pt x="1439" y="222" on="0"/>
        <pt x="1558" y="315" on="0"/>
        <pt x="1633" y="457" on="0"/>
        <pt x="1641" y="554" on="1"/>
        <pt x="1947" y="554" on="1"/>
        <pt x="1947" y="459" on="0"/>
        <pt x="1886" y="297" on="0"/>
        <pt x="1775" y="165" on="0"/>
        <pt x="1619" y="64" on="0"/>
        <pt x="1427" y="-4" on="0"/>
        <pt x="1206" y="-39" on="0"/>
        <pt x="1085" y="-39" on="1"/>
        <pt x="971" y="-39" on="0"/>
        <pt x="734" y="-8" on="0"/>
        <pt x="513" y="62" on="0"/>
        <pt x="319" y="177" on="0"/>
        <pt x="174" y="345" on="0"/>
        <pt x="90" y="571" on="0"/>
      </contour>
    </TTGlyph>
    <TTGlyph name="Ccedilla" xMin="90" yMin="-517" xMax="1947" yMax="1472">
      <contour>
        <pt x="721" y="-202" on="1"/>
        <pt x="757" y="-264" on="0"/>
        <pt x="869" y="-329" on="0"/>
        <pt x="954" y="-329" on="1"/>
        <pt x="975" y="-329" on="0"/>
        <pt x="1012" y="-323" on="0"/>
        <pt x="1041" y="-308" on="0"/>
        <pt x="1057" y="-284" on="0"/>
        <pt x="1057" y="-267" on="1"/>
        <pt x="1057" y="-243" on="0"/>
        <pt x="1029" y="-216" on="0"/>
        <pt x="983" y="-201" on="0"/>
        <pt x="924" y="-197" on="0"/>
        <pt x="893" y="-197" on="1"/>
        <pt x="913" y="-30" on="1"/>
        <pt x="811" y="-20" on="0"/>
        <pt x="609" y="27" on="0"/>
        <pt x="426" y="107" on="0"/>
        <pt x="270" y="224" on="0"/>
        <pt x="155" y="384" on="0"/>
        <pt x="90" y="589" on="0"/>
        <pt x="90" y="717" on="1"/>
        <pt x="90" y="850" on="0"/>
        <pt x="168" y="1066" on="0"/>
        <pt x="306" y="1234" on="0"/>
        <pt x="494" y="1355" on="0"/>
        <pt x="715" y="1434" on="0"/>
        <pt x="959" y="1472" on="0"/>
        <pt x="1084" y="1472" on="1"/>
        <pt x="1176" y="1472" on="0"/>
        <pt x="1340" y="1450" on="0"/>
        <pt x="1483" y="1413" on="0"/>
        <pt x="1603" y="1365" on="0"/>
        <pt x="1651" y="1339" on="1"/>
        <pt x="1724" y="1434" on="1"/>
        <pt x="1933" y="1434" on="1"/>
        <pt x="1933" y="926" on="1"/>
        <pt x="1668" y="876" on="1"/>
        <pt x="1644" y="957" on="0"/>
        <pt x="1550" y="1097" on="0"/>
        <pt x="1418" y="1199" on="0"/>
        <pt x="1251" y="1258" on="0"/>
        <pt x="1153" y="1258" on="1"/>
        <pt x="1027" y="1258" on="0"/>
        <pt x="847" y="1169" on="0"/>
        <pt x="732" y="1020" on="0"/>
        <pt x="678" y="824" on="0"/>
        <pt x="678" y="717" on="1"/>
        <pt x="678" y="586" on="0"/>
        <pt x="755" y="384" on="0"/>
        <pt x="893" y="247" on="0"/>
        <pt x="1082" y="177" on="0"/>
        <pt x="1195" y="177" on="1"/>
        <pt x="1283" y="177" on="0"/>
        <pt x="1439" y="222" on="0"/>
        <pt x="1558" y="315" on="0"/>
        <pt x="1633" y="457" on="0"/>
        <pt x="1641" y="554" on="1"/>
        <pt x="1947" y="554" on="1"/>
        <pt x="1947" y="417" on="0"/>
        <pt x="1825" y="204" on="0"/>
        <pt x="1610" y="54" on="0"/>
        <pt x="1319" y="-30" on="0"/>
        <pt x="1150" y="-37" on="1"/>
        <pt x="1150" y="-111" on="1"/>
        <pt x="1211" y="-111" on="0"/>
        <pt x="1314" y="-136" on="0"/>
        <pt x="1388" y="-186" on="0"/>
        <pt x="1430" y="-260" on="0"/>
        <pt x="1430" y="-309" on="1"/>
        <pt x="1430" y="-363" on="0"/>
        <pt x="1359" y="-442" on="0"/>
        <pt x="1248" y="-493" on="0"/>
        <pt x="1109" y="-517" on="0"/>
        <pt x="1042" y="-517" on="1"/>
        <pt x="966" y="-517" on="0"/>
        <pt x="822" y="-494" on="0"/>
        <pt x="698" y="-440" on="0"/>
        <pt x="599" y="-351" on="0"/>
        <pt x="568" y="-284" on="1"/>
      </contour>
    </TTGlyph>
    <TTGlyph name="D" xMin="30" yMin="-7" xMax="2064" yMax="1441">
      <contour>
        <pt x="341" y="254" on="1"/>
        <pt x="341" y="1180" on="1"/>
        <pt x="31" y="1434" on="1"/>
        <pt x="108" y="1435" on="0"/>
        <pt x="306" y="1436" on="0"/>
        <pt x="521" y="1438" on="0"/>
        <pt x="740" y="1439" on="0"/>
        <pt x="934" y="1440" on="0"/>
        <pt x="1090" y="1441" on="0"/>
        <pt x="1135" y="1441" on="1"/>
        <pt x="1311" y="1441" on="0"/>
        <pt x="1593" y="1405" on="0"/>
        <pt x="1700" y="1362" on="1"/>
        <pt x="1795" y="1324" on="0"/>
        <pt x="1933" y="1203" on="0"/>
        <pt x="2022" y="1049" on="0"/>
        <pt x="2064" y="867" on="0"/>
        <pt x="2064" y="767" on="1"/>
        <pt x="2064" y="582" on="0"/>
        <pt x="1925" y="294" on="0"/>
        <pt x="1670" y="96" on="0"/>
        <pt x="1313" y="-7" on="0"/>
        <pt x="1095" y="-7" on="1"/>
        <pt x="1066" y="-7" on="0"/>
        <pt x="935" y="-7" on="0"/>
        <pt x="758" y="-6" on="0"/>
        <pt x="548" y="-4" on="0"/>
        <pt x="330" y="-3" on="0"/>
        <pt x="119" y="-1" on="0"/>
        <pt x="30" y="0" on="1"/>
      </contour>
      <contour>
        <pt x="1064" y="209" on="1"/>
        <pt x="1188" y="209" on="0"/>
        <pt x="1354" y="289" on="0"/>
        <pt x="1454" y="434" on="0"/>
        <pt x="1496" y="635" on="0"/>
        <pt x="1496" y="757" on="1"/>
        <pt x="1496" y="869" on="0"/>
        <pt x="1440" y="1043" on="0"/>
        <pt x="1334" y="1163" on="0"/>
        <pt x="1181" y="1225" on="0"/>
        <pt x="1084" y="1225" on="1"/>
        <pt x="868" y="1225" on="1"/>
        <pt x="868" y="209" on="1"/>
      </contour>
    </TTGlyph>
    <TTGlyph name="E" xMin="30" yMin="0" xMax="1847" yMax="1434">
      <contour>
        <pt x="311" y="254" on="1"/>
        <pt x="311" y="1180" on="1"/>
        <pt x="30" y="1434" on="1"/>
        <pt x="1847" y="1434" on="1"/>
        <pt x="1827" y="938" on="1"/>
        <pt x="1428" y="1205" on="1"/>
        <pt x="838" y="1205" on="1"/>
        <pt x="838" y="874" on="1"/>
        <pt x="1440" y="874" on="1"/>
        <pt x="1440" y="654" on="1"/>
        <pt x="838" y="654" on="1"/>
        <pt x="838" y="229" on="1"/>
        <pt x="1428" y="229" on="1"/>
        <pt x="1837" y="473" on="1"/>
        <pt x="1837" y="0" on="1"/>
        <pt x="30" y="0" on="1"/>
      </contour>
    </TTGlyph>
    <TTGlyph name="Eacute" xMin="30" yMin="0" xMax="1847" yMax="1879">
      <contour>
        <pt x="1137" y="1879" on="1"/>
        <pt x="1808" y="1879" on="1"/>
        <pt x="1098" y="1563" on="1"/>
        <pt x="727" y="1563" on="1"/>
      </contour>
      <contour>
        <pt x="311" y="254" on="1"/>
        <pt x="311" y="1180" on="1"/>
        <pt x="30" y="1434" on="1"/>
        <pt x="1847" y="1434" on="1"/>
        <pt x="1827" y="938" on="1"/>
        <pt x="1428" y="1205" on="1"/>
        <pt x="838" y="1205" on="1"/>
        <pt x="838" y="874" on="1"/>
        <pt x="1440" y="874" on="1"/>
        <pt x="1440" y="654" on="1"/>
        <pt x="838" y="654" on="1"/>
        <pt x="838" y="229" on="1"/>
        <pt x="1428" y="229" on="1"/>
        <pt x="1837" y="473" on="1"/>
        <pt x="1837" y="0" on="1"/>
        <pt x="30" y="0" on="1"/>
      </contour>
    </TTGlyph>
    <TTGlyph name="Ecircumflex" xMin="30" yMin="0" xMax="1847" yMax="1879">
      <contour>
        <pt x="850" y="1879" on="1"/>
        <pt x="1291" y="1879" on="1"/>
        <pt x="1702" y="1563" on="1"/>
        <pt x="1401" y="1563" on="1"/>
        <pt x="1070" y="1679" on="1"/>
        <pt x="731" y="1563" on="1"/>
        <pt x="430" y="1563" on="1"/>
      </contour>
      <contour>
        <pt x="311" y="254" on="1"/>
        <pt x="311" y="1180" on="1"/>
        <pt x="30" y="1434" on="1"/>
        <pt x="1847" y="1434" on="1"/>
        <pt x="1827" y="938" on="1"/>
        <pt x="1428" y="1205" on="1"/>
        <pt x="838" y="1205" on="1"/>
        <pt x="838" y="874" on="1"/>
        <pt x="1440" y="874" on="1"/>
        <pt x="1440" y="654" on="1"/>
        <pt x="838" y="654" on="1"/>
        <pt x="838" y="229" on="1"/>
        <pt x="1428" y="229" on="1"/>
        <pt x="1837" y="473" on="1"/>
        <pt x="1837" y="0" on="1"/>
        <pt x="30" y="0" on="1"/>
      </contour>
    </TTGlyph>
    <TTGlyph name="Edieresis" xMin="30" yMin="0" xMax="1847" yMax="1917">
      <contour>
        <pt x="1372" y="1542" on="1"/>
        <pt x="1330" y="1542" on="0"/>
        <pt x="1256" y="1569" on="0"/>
        <pt x="1202" y="1618" on="0"/>
        <pt x="1170" y="1687" on="0"/>
        <pt x="1170" y="1729" on="1"/>
        <pt x="1170" y="1771" on="0"/>
        <pt x="1202" y="1841" on="0"/>
        <pt x="1256" y="1890" on="0"/>
        <pt x="1330" y="1917" on="0"/>
        <pt x="1372" y="1917" on="1"/>
        <pt x="1414" y="1917" on="0"/>
        <pt x="1489" y="1890" on="0"/>
        <pt x="1544" y="1841" on="0"/>
        <pt x="1576" y="1771" on="0"/>
        <pt x="1576" y="1729" on="1"/>
        <pt x="1576" y="1687" on="0"/>
        <pt x="1544" y="1618" on="0"/>
        <pt x="1489" y="1569" on="0"/>
        <pt x="1414" y="1542" on="0"/>
      </contour>
      <contour>
        <pt x="766" y="1542" on="1"/>
        <pt x="724" y="1542" on="0"/>
        <pt x="650" y="1569" on="0"/>
        <pt x="596" y="1618" on="0"/>
        <pt x="564" y="1687" on="0"/>
        <pt x="564" y="1729" on="1"/>
        <pt x="564" y="1771" on="0"/>
        <pt x="596" y="1841" on="0"/>
        <pt x="650" y="1890" on="0"/>
        <pt x="724" y="1917" on="0"/>
        <pt x="766" y="1917" on="1"/>
        <pt x="808" y="1917" on="0"/>
        <pt x="883" y="1890" on="0"/>
        <pt x="938" y="1841" on="0"/>
        <pt x="970" y="1771" on="0"/>
        <pt x="970" y="1729" on="1"/>
        <pt x="970" y="1687" on="0"/>
        <pt x="938" y="1618" on="0"/>
        <pt x="883" y="1569" on="0"/>
        <pt x="808" y="1542" on="0"/>
      </contour>
      <contour>
        <pt x="311" y="254" on="1"/>
        <pt x="311" y="1180" on="1"/>
        <pt x="30" y="1434" on="1"/>
        <pt x="1847" y="1434" on="1"/>
        <pt x="1827" y="938" on="1"/>
        <pt x="1428" y="1205" on="1"/>
        <pt x="838" y="1205" on="1"/>
        <pt x="838" y="874" on="1"/>
        <pt x="1440" y="874" on="1"/>
        <pt x="1440" y="654" on="1"/>
        <pt x="838" y="654" on="1"/>
        <pt x="838" y="229" on="1"/>
        <pt x="1428" y="229" on="1"/>
        <pt x="1837" y="473" on="1"/>
        <pt x="1837" y="0" on="1"/>
        <pt x="30" y="0" on="1"/>
      </contour>
    </TTGlyph>
    <TTGlyph name="Egrave" xMin="30" yMin="0" xMax="1847" yMax="1879">
      <contour>
        <pt x="338" y="1879" on="1"/>
        <pt x="989" y="1879" on="1"/>
        <pt x="1399" y="1563" on="1"/>
        <pt x="1048" y="1563" on="1"/>
      </contour>
      <contour>
        <pt x="311" y="254" on="1"/>
        <pt x="311" y="1180" on="1"/>
        <pt x="30" y="1434" on="1"/>
        <pt x="1847" y="1434" on="1"/>
        <pt x="1827" y="938" on="1"/>
        <pt x="1428" y="1205" on="1"/>
        <pt x="838" y="1205" on="1"/>
        <pt x="838" y="874" on="1"/>
        <pt x="1440" y="874" on="1"/>
        <pt x="1440" y="654" on="1"/>
        <pt x="838" y="654" on="1"/>
        <pt x="838" y="229" on="1"/>
        <pt x="1428" y="229" on="1"/>
        <pt x="1837" y="473" on="1"/>
        <pt x="1837" y="0" on="1"/>
        <pt x="30" y="0" on="1"/>
      </contour>
    </TTGlyph>
    <TTGlyph name="Eth" xMin="30" yMin="-7" xMax="2064" yMax="1441">
      <contour>
        <pt x="341" y="254" on="1"/>
        <pt x="341" y="582" on="1"/>
        <pt x="145" y="582" on="1"/>
        <pt x="145" y="802" on="1"/>
        <pt x="341" y="802" on="1"/>
        <pt x="341" y="1180" on="1"/>
        <pt x="31" y="1434" on="1"/>
        <pt x="108" y="1435" on="0"/>
        <pt x="306" y="1436" on="0"/>
        <pt x="521" y="1438" on="0"/>
        <pt x="740" y="1439" on="0"/>
        <pt x="934" y="1440" on="0"/>
        <pt x="1090" y="1441" on="0"/>
        <pt x="1135" y="1441" on="1"/>
        <pt x="1311" y="1441" on="0"/>
        <pt x="1593" y="1405" on="0"/>
        <pt x="1700" y="1362" on="1"/>
        <pt x="1795" y="1324" on="0"/>
        <pt x="1933" y="1203" on="0"/>
        <pt x="2022" y="1049" on="0"/>
        <pt x="2064" y="867" on="0"/>
        <pt x="2064" y="767" on="1"/>
        <pt x="2064" y="582" on="0"/>
        <pt x="1925" y="294" on="0"/>
        <pt x="1670" y="96" on="0"/>
        <pt x="1313" y="-7" on="0"/>
        <pt x="1095" y="-7" on="1"/>
        <pt x="1066" y="-7" on="0"/>
        <pt x="935" y="-7" on="0"/>
        <pt x="758" y="-6" on="0"/>
        <pt x="548" y="-4" on="0"/>
        <pt x="330" y="-3" on="0"/>
        <pt x="119" y="-1" on="0"/>
        <pt x="30" y="0" on="1"/>
      </contour>
      <contour>
        <pt x="1064" y="209" on="1"/>
        <pt x="1188" y="209" on="0"/>
        <pt x="1354" y="289" on="0"/>
        <pt x="1454" y="434" on="0"/>
        <pt x="1496" y="635" on="0"/>
        <pt x="1496" y="757" on="1"/>
        <pt x="1496" y="869" on="0"/>
        <pt x="1440" y="1043" on="0"/>
        <pt x="1334" y="1163" on="0"/>
        <pt x="1181" y="1225" on="0"/>
        <pt x="1084" y="1225" on="1"/>
        <pt x="868" y="1225" on="1"/>
        <pt x="868" y="802" on="1"/>
        <pt x="1131" y="802" on="1"/>
        <pt x="1131" y="582" on="1"/>
        <pt x="868" y="582" on="1"/>
        <pt x="868" y="209" on="1"/>
      </contour>
    </TTGlyph>
    <TTGlyph name="Euro" xMin="40" yMin="-39" xMax="2088" yMax="1472">
      <contour>
        <pt x="40" y="671" on="1"/>
        <pt x="232" y="671" on="1"/>
        <pt x="231" y="682" on="0"/>
        <pt x="231" y="705" on="0"/>
        <pt x="231" y="717" on="1"/>
        <pt x="231" y="755" on="0"/>
        <pt x="234" y="791" on="1"/>
        <pt x="40" y="791" on="1"/>
        <pt x="40" y="991" on="1"/>
        <pt x="283" y="991" on="1"/>
        <pt x="335" y="1117" on="0"/>
        <pt x="529" y="1299" on="0"/>
        <pt x="781" y="1416" on="0"/>
        <pt x="1074" y="1472" on="0"/>
        <pt x="1225" y="1472" on="1"/>
        <pt x="1317" y="1472" on="0"/>
        <pt x="1481" y="1450" on="0"/>
        <pt x="1624" y="1413" on="0"/>
        <pt x="1744" y="1365" on="0"/>
        <pt x="1792" y="1339" on="1"/>
        <pt x="1865" y="1434" on="1"/>
        <pt x="2074" y="1434" on="1"/>
        <pt x="2074" y="926" on="1"/>
        <pt x="1809" y="876" on="1"/>
        <pt x="1785" y="957" on="0"/>
        <pt x="1691" y="1097" on="0"/>
        <pt x="1559" y="1199" on="0"/>
        <pt x="1392" y="1258" on="0"/>
        <pt x="1294" y="1258" on="1"/>
        <pt x="1211" y="1258" on="0"/>
        <pt x="1077" y="1219" on="0"/>
        <pt x="972" y="1148" on="0"/>
        <pt x="895" y="1050" on="0"/>
        <pt x="870" y="991" on="1"/>
        <pt x="1506" y="991" on="1"/>
        <pt x="1506" y="791" on="1"/>
        <pt x="822" y="791" on="1"/>
        <pt x="819" y="753" on="0"/>
        <pt x="819" y="717" on="1"/>
        <pt x="819" y="705" on="0"/>
        <pt x="819" y="682" on="0"/>
        <pt x="820" y="671" on="1"/>
        <pt x="1506" y="671" on="1"/>
        <pt x="1506" y="471" on="1"/>
        <pt x="863" y="471" on="1"/>
        <pt x="892" y="399" on="0"/>
        <pt x="985" y="289" on="0"/>
        <pt x="1107" y="215" on="0"/>
        <pt x="1253" y="177" on="0"/>
        <pt x="1336" y="177" on="1"/>
        <pt x="1424" y="177" on="0"/>
        <pt x="1580" y="222" on="0"/>
        <pt x="1699" y="315" on="0"/>
        <pt x="1774" y="457" on="0"/>
        <pt x="1782" y="554" on="1"/>
        <pt x="2088" y="554" on="1"/>
        <pt x="2088" y="459" on="0"/>
        <pt x="2027" y="297" on="0"/>
        <pt x="1916" y="165" on="0"/>
        <pt x="1760" y="64" on="0"/>
        <pt x="1568" y="-4" on="0"/>
        <pt x="1347" y="-39" on="0"/>
        <pt x="1226" y="-39" on="1"/>
        <pt x="1130" y="-39" on="0"/>
        <pt x="931" y="-17" on="0"/>
        <pt x="740" y="31" on="0"/>
        <pt x="563" y="109" on="0"/>
        <pt x="414" y="223" on="0"/>
        <pt x="300" y="374" on="0"/>
        <pt x="268" y="471" on="1"/>
        <pt x="40" y="471" on="1"/>
      </contour>
    </TTGlyph>
    <TTGlyph name="F" xMin="30" yMin="0" xMax="1887" yMax="1434">
      <contour>
        <pt x="311" y="254" on="1"/>
        <pt x="311" y="1180" on="1"/>
        <pt x="30" y="1434" on="1"/>
        <pt x="1887" y="1434" on="1"/>
        <pt x="1867" y="938" on="1"/>
        <pt x="1468" y="1205" on="1"/>
        <pt x="838" y="1205" on="1"/>
        <pt x="838" y="774" on="1"/>
        <pt x="1480" y="774" on="1"/>
        <pt x="1480" y="554" on="1"/>
        <pt x="838" y="554" on="1"/>
        <pt x="838" y="254" on="1"/>
        <pt x="1249" y="0" on="1"/>
        <pt x="30" y="0" on="1"/>
      </contour>
    </TTGlyph>
    <TTGlyph name="G" xMin="90" yMin="-39" xMax="1962" yMax="1472">
      <contour>
        <pt x="90" y="689" on="1"/>
        <pt x="90" y="819" on="0"/>
        <pt x="164" y="1037" on="0"/>
        <pt x="296" y="1211" on="0"/>
        <pt x="479" y="1341" on="0"/>
        <pt x="698" y="1429" on="0"/>
        <pt x="944" y="1472" on="0"/>
        <pt x="1074" y="1472" on="1"/>
        <pt x="1152" y="1472" on="0"/>
        <pt x="1309" y="1452" on="0"/>
        <pt x="1457" y="1416" on="0"/>
        <pt x="1592" y="1366" on="0"/>
        <pt x="1649" y="1336" on="1"/>
        <pt x="1725" y="1434" on="1"/>
        <pt x="1949" y="1434" on="1"/>
        <pt x="1949" y="946" on="1"/>
        <pt x="1695" y="946" on="1"/>
        <pt x="1653" y="1021" on="0"/>
        <pt x="1534" y="1137" on="0"/>
        <pt x="1391" y="1217" on="0"/>
        <pt x="1230" y="1258" on="0"/>
        <pt x="1145" y="1258" on="1"/>
        <pt x="1052" y="1258" on="0"/>
        <pt x="884" y="1194" on="0"/>
        <pt x="758" y="1062" on="0"/>
        <pt x="684" y="859" on="0"/>
        <pt x="684" y="720" on="1"/>
        <pt x="684" y="587" on="0"/>
        <pt x="765" y="384" on="0"/>
        <pt x="901" y="247" on="0"/>
        <pt x="1082" y="177" on="0"/>
        <pt x="1182" y="177" on="1"/>
        <pt x="1270" y="177" on="0"/>
        <pt x="1398" y="202" on="0"/>
        <pt x="1450" y="234" on="1"/>
        <pt x="1450" y="484" on="1"/>
        <pt x="1159" y="764" on="1"/>
        <pt x="1962" y="764" on="1"/>
        <pt x="1962" y="0" on="1"/>
        <pt x="1725" y="0" on="1"/>
        <pt x="1670" y="100" on="1"/>
        <pt x="1611" y="62" on="0"/>
        <pt x="1477" y="9" on="0"/>
        <pt x="1331" y="-24" on="0"/>
        <pt x="1177" y="-39" on="0"/>
        <pt x="1098" y="-39" on="1"/>
        <pt x="963" y="-39" on="0"/>
        <pt x="708" y="-7" on="0"/>
        <pt x="484" y="64" on="0"/>
        <pt x="298" y="177" on="0"/>
        <pt x="164" y="338" on="0"/>
        <pt x="90" y="552" on="0"/>
      </contour>
    </TTGlyph>
    <TTGlyph name="H" xMin="30" yMin="0" xMax="2176" yMax="1434">
      <contour>
        <pt x="311" y="254" on="1"/>
        <pt x="311" y="1181" on="1"/>
        <pt x="30" y="1434" on="1"/>
        <pt x="828" y="1434" on="1"/>
        <pt x="828" y="886" on="1"/>
        <pt x="1378" y="886" on="1"/>
        <pt x="1378" y="1434" on="1"/>
        <pt x="2157" y="1434" on="1"/>
        <pt x="1895" y="1180" on="1"/>
        <pt x="1895" y="254" on="1"/>
        <pt x="2176" y="0" on="1"/>
        <pt x="1378" y="0" on="1"/>
        <pt x="1378" y="677" on="1"/>
        <pt x="828" y="677" on="1"/>
        <pt x="828" y="0" on="1"/>
        <pt x="30" y="0" on="1"/>
      </contour>
    </TTGlyph>
    <TTGlyph name="I" xMin="60" yMin="0" xMax="1041" yMax="1434">
      <contour>
        <pt x="292" y="1180" on="1"/>
        <pt x="60" y="1434" on="1"/>
        <pt x="809" y="1434" on="1"/>
        <pt x="809" y="254" on="1"/>
        <pt x="1041" y="0" on="1"/>
        <pt x="292" y="0" on="1"/>
      </contour>
    </TTGlyph>
    <TTGlyph name="Iacute" xMin="60" yMin="0" xMax="1250" yMax="1879">
      <contour>
        <pt x="579" y="1879" on="1"/>
        <pt x="1250" y="1879" on="1"/>
        <pt x="540" y="1563" on="1"/>
        <pt x="169" y="1563" on="1"/>
      </contour>
      <contour>
        <pt x="292" y="1180" on="1"/>
        <pt x="60" y="1434" on="1"/>
        <pt x="809" y="1434" on="1"/>
        <pt x="809" y="254" on="1"/>
        <pt x="1041" y="0" on="1"/>
        <pt x="292" y="0" on="1"/>
      </contour>
    </TTGlyph>
    <TTGlyph name="Icircumflex" xMin="-128" yMin="0" xMax="1144" yMax="1879">
      <contour>
        <pt x="292" y="1879" on="1"/>
        <pt x="733" y="1879" on="1"/>
        <pt x="1144" y="1563" on="1"/>
        <pt x="843" y="1563" on="1"/>
        <pt x="512" y="1679" on="1"/>
        <pt x="173" y="1563" on="1"/>
        <pt x="-128" y="1563" on="1"/>
      </contour>
      <contour>
        <pt x="292" y="1180" on="1"/>
        <pt x="60" y="1434" on="1"/>
        <pt x="809" y="1434" on="1"/>
        <pt x="809" y="254" on="1"/>
        <pt x="1041" y="0" on="1"/>
        <pt x="292" y="0" on="1"/>
      </contour>
    </TTGlyph>
    <TTGlyph name="Idieresis" xMin="6" yMin="0" xMax="1041" yMax="1917">
      <contour>
        <pt x="814" y="1542" on="1"/>
        <pt x="772" y="1542" on="0"/>
        <pt x="698" y="1569" on="0"/>
        <pt x="644" y="1618" on="0"/>
        <pt x="612" y="1687" on="0"/>
        <pt x="612" y="1729" on="1"/>
        <pt x="612" y="1771" on="0"/>
        <pt x="644" y="1841" on="0"/>
        <pt x="698" y="1890" on="0"/>
        <pt x="772" y="1917" on="0"/>
        <pt x="814" y="1917" on="1"/>
        <pt x="856" y="1917" on="0"/>
        <pt x="931" y="1890" on="0"/>
        <pt x="986" y="1841" on="0"/>
        <pt x="1018" y="1771" on="0"/>
        <pt x="1018" y="1729" on="1"/>
        <pt x="1018" y="1687" on="0"/>
        <pt x="986" y="1618" on="0"/>
        <pt x="931" y="1569" on="0"/>
        <pt x="856" y="1542" on="0"/>
      </contour>
      <contour>
        <pt x="208" y="1542" on="1"/>
        <pt x="166" y="1542" on="0"/>
        <pt x="92" y="1569" on="0"/>
        <pt x="38" y="1618" on="0"/>
        <pt x="6" y="1687" on="0"/>
        <pt x="6" y="1729" on="1"/>
        <pt x="6" y="1771" on="0"/>
        <pt x="38" y="1841" on="0"/>
        <pt x="92" y="1890" on="0"/>
        <pt x="166" y="1917" on="0"/>
        <pt x="208" y="1917" on="1"/>
        <pt x="250" y="1917" on="0"/>
        <pt x="325" y="1890" on="0"/>
        <pt x="380" y="1841" on="0"/>
        <pt x="412" y="1771" on="0"/>
        <pt x="412" y="1729" on="1"/>
        <pt x="412" y="1687" on="0"/>
        <pt x="380" y="1618" on="0"/>
        <pt x="325" y="1569" on="0"/>
        <pt x="250" y="1542" on="0"/>
      </contour>
      <contour>
        <pt x="292" y="1180" on="1"/>
        <pt x="60" y="1434" on="1"/>
        <pt x="809" y="1434" on="1"/>
        <pt x="809" y="254" on="1"/>
        <pt x="1041" y="0" on="1"/>
        <pt x="292" y="0" on="1"/>
      </contour>
    </TTGlyph>
    <TTGlyph name="Igrave" xMin="-220" yMin="0" xMax="1041" yMax="1879">
      <contour>
        <pt x="-220" y="1879" on="1"/>
        <pt x="431" y="1879" on="1"/>
        <pt x="841" y="1563" on="1"/>
        <pt x="490" y="1563" on="1"/>
      </contour>
      <contour>
        <pt x="292" y="1180" on="1"/>
        <pt x="60" y="1434" on="1"/>
        <pt x="809" y="1434" on="1"/>
        <pt x="809" y="254" on="1"/>
        <pt x="1041" y="0" on="1"/>
        <pt x="292" y="0" on="1"/>
      </contour>
    </TTGlyph>
    <TTGlyph name="Itilde" xMin="-101" yMin="0" xMax="1138" yMax="1900">
      <contour>
        <pt x="-101" y="1681" on="1"/>
        <pt x="-75" y="1715" on="0"/>
        <pt x="4" y="1792" on="0"/>
        <pt x="107" y="1857" on="0"/>
        <pt x="234" y="1900" on="0"/>
        <pt x="309" y="1900" on="1"/>
        <pt x="375" y="1900" on="0"/>
        <pt x="496" y="1872" on="0"/>
        <pt x="556" y="1852" on="1"/>
        <pt x="626" y="1829" on="0"/>
        <pt x="769" y="1792" on="0"/>
        <pt x="847" y="1792" on="1"/>
        <pt x="903" y="1792" on="0"/>
        <pt x="1000" y="1824" on="0"/>
        <pt x="1052" y="1850" on="1"/>
        <pt x="1138" y="1775" on="1"/>
        <pt x="1111" y="1741" on="0"/>
        <pt x="1033" y="1664" on="0"/>
        <pt x="930" y="1599" on="0"/>
        <pt x="803" y="1556" on="0"/>
        <pt x="728" y="1556" on="1"/>
        <pt x="654" y="1556" on="0"/>
        <pt x="519" y="1591" on="0"/>
        <pt x="451" y="1613" on="1"/>
        <pt x="388" y="1633" on="0"/>
        <pt x="259" y="1664" on="0"/>
        <pt x="189" y="1664" on="1"/>
        <pt x="133" y="1664" on="0"/>
        <pt x="36" y="1632" on="0"/>
        <pt x="-15" y="1606" on="1"/>
      </contour>
      <contour>
        <pt x="292" y="1180" on="1"/>
        <pt x="60" y="1434" on="1"/>
        <pt x="809" y="1434" on="1"/>
        <pt x="809" y="254" on="1"/>
        <pt x="1041" y="0" on="1"/>
        <pt x="292" y="0" on="1"/>
      </contour>
    </TTGlyph>
    <TTGlyph name="J" xMin="125" yMin="-74" xMax="1038" yMax="1434">
      <contour>
        <pt x="130" y="168" on="1"/>
        <pt x="172" y="156" on="0"/>
        <pt x="241" y="146" on="0"/>
        <pt x="282" y="146" on="1"/>
        <pt x="332" y="146" on="0"/>
        <pt x="423" y="159" on="0"/>
        <pt x="491" y="208" on="0"/>
        <pt x="531" y="304" on="0"/>
        <pt x="531" y="387" on="1"/>
        <pt x="531" y="1180" on="1"/>
        <pt x="279" y="1434" on="1"/>
        <pt x="1038" y="1434" on="1"/>
        <pt x="1038" y="347" on="1"/>
        <pt x="1038" y="237" on="0"/>
        <pt x="980" y="78" on="0"/>
        <pt x="864" y="-25" on="0"/>
        <pt x="693" y="-74" on="0"/>
        <pt x="580" y="-74" on="1"/>
        <pt x="499" y="-74" on="0"/>
        <pt x="356" y="-55" on="0"/>
        <pt x="238" y="-24" on="0"/>
        <pt x="150" y="17" on="0"/>
        <pt x="125" y="38" on="1"/>
      </contour>
    </TTGlyph>
    <TTGlyph name="Jcircumflex" xMin="-43" yMin="-74" xMax="1229" yMax="1879">
      <contour>
        <pt x="377" y="1879" on="1"/>
        <pt x="818" y="1879" on="1"/>
        <pt x="1229" y="1563" on="1"/>
        <pt x="928" y="1563" on="1"/>
        <pt x="597" y="1679" on="1"/>
        <pt x="258" y="1563" on="1"/>
        <pt x="-43" y="1563" on="1"/>
      </contour>
      <contour>
        <pt x="-6" y="168" on="1"/>
        <pt x="36" y="156" on="0"/>
        <pt x="105" y="146" on="0"/>
        <pt x="146" y="146" on="1"/>
        <pt x="196" y="146" on="0"/>
        <pt x="287" y="159" on="0"/>
        <pt x="355" y="208" on="0"/>
        <pt x="395" y="304" on="0"/>
        <pt x="395" y="387" on="1"/>
        <pt x="395" y="1180" on="1"/>
        <pt x="143" y="1434" on="1"/>
        <pt x="902" y="1434" on="1"/>
        <pt x="902" y="347" on="1"/>
        <pt x="902" y="237" on="0"/>
        <pt x="844" y="78" on="0"/>
        <pt x="728" y="-25" on="0"/>
        <pt x="557" y="-74" on="0"/>
        <pt x="444" y="-74" on="1"/>
        <pt x="363" y="-74" on="0"/>
        <pt x="220" y="-55" on="0"/>
        <pt x="102" y="-24" on="0"/>
        <pt x="14" y="17" on="0"/>
        <pt x="-11" y="38" on="1"/>
      </contour>
    </TTGlyph>
    <TTGlyph name="K" xMin="30" yMin="0" xMax="2110" yMax="1434">
      <contour>
        <pt x="311" y="254" on="1"/>
        <pt x="311" y="1181" on="1"/>
        <pt x="30" y="1434" on="1"/>
        <pt x="1000" y="1434" on="1"/>
        <pt x="828" y="1181" on="1"/>
        <pt x="828" y="750" on="1"/>
        <pt x="1393" y="1180" on="1"/>
        <pt x="1240" y="1434" on="1"/>
        <pt x="2090" y="1434" on="1"/>
        <pt x="1375" y="873" on="1"/>
        <pt x="1835" y="254" on="1"/>
        <pt x="2110" y="0" on="1"/>
        <pt x="1208" y="0" on="1"/>
        <pt x="1294" y="138" on="1"/>
        <pt x="991" y="572" on="1"/>
        <pt x="828" y="443" on="1"/>
        <pt x="828" y="254" on="1"/>
        <pt x="1040" y="0" on="1"/>
        <pt x="30" y="0" on="1"/>
      </contour>
    </TTGlyph>
    <TTGlyph name="L" xMin="30" yMin="0" xMax="1777" yMax="1434">
      <contour>
        <pt x="311" y="254" on="1"/>
        <pt x="311" y="1180" on="1"/>
        <pt x="30" y="1434" on="1"/>
        <pt x="1219" y="1434" on="1"/>
        <pt x="838" y="1180" on="1"/>
        <pt x="838" y="229" on="1"/>
        <pt x="1368" y="229" on="1"/>
        <pt x="1777" y="583" on="1"/>
        <pt x="1777" y="0" on="1"/>
        <pt x="30" y="0" on="1"/>
      </contour>
    </TTGlyph>
    <TTGlyph name="Lslash" xMin="12" yMin="0" xMax="1777" yMax="1434">
      <contour>
        <pt x="311" y="254" on="1"/>
        <pt x="311" y="491" on="1"/>
        <pt x="63" y="425" on="1"/>
        <pt x="12" y="616" on="1"/>
        <pt x="311" y="696" on="1"/>
        <pt x="311" y="1180" on="1"/>
        <pt x="30" y="1434" on="1"/>
        <pt x="1219" y="1434" on="1"/>
        <pt x="838" y="1180" on="1"/>
        <pt x="838" y="838" on="1"/>
        <pt x="1280" y="957" on="1"/>
        <pt x="1331" y="766" on="1"/>
        <pt x="838" y="633" on="1"/>
        <pt x="838" y="229" on="1"/>
        <pt x="1368" y="229" on="1"/>
        <pt x="1777" y="573" on="1"/>
        <pt x="1777" y="0" on="1"/>
        <pt x="30" y="0" on="1"/>
      </contour>
    </TTGlyph>
    <TTGlyph name="M" xMin="5" yMin="0" xMax="2450" yMax="1434">
      <contour>
        <pt x="303" y="253" on="1"/>
        <pt x="303" y="1144" on="1"/>
        <pt x="5" y="1434" on="1"/>
        <pt x="729" y="1434" on="1"/>
        <pt x="1230" y="662" on="1"/>
        <pt x="1681" y="1434" on="1"/>
        <pt x="2450" y="1434" on="1"/>
        <pt x="2138" y="1190" on="1"/>
        <pt x="2138" y="254" on="1"/>
        <pt x="2429" y="0" on="1"/>
        <pt x="1351" y="0" on="1"/>
        <pt x="1631" y="254" on="1"/>
        <pt x="1631" y="771" on="1"/>
        <pt x="1201" y="0" on="1"/>
        <pt x="1056" y="0" on="1"/>
        <pt x="575" y="763" on="1"/>
        <pt x="575" y="253" on="1"/>
        <pt x="876" y="0" on="1"/>
        <pt x="42" y="0" on="1"/>
      </contour>
    </TTGlyph>
    <TTGlyph name="N" xMin="5" yMin="0" xMax="2098" yMax="1434">
      <contour>
        <pt x="313" y="254" on="1"/>
        <pt x="313" y="1152" on="1"/>
        <pt x="5" y="1434" on="1"/>
        <pt x="769" y="1434" on="1"/>
        <pt x="1575" y="714" on="1"/>
        <pt x="1575" y="1180" on="1"/>
        <pt x="1295" y="1434" on="1"/>
        <pt x="2098" y="1434" on="1"/>
        <pt x="1847" y="1180" on="1"/>
        <pt x="1847" y="0" on="1"/>
        <pt x="1575" y="0" on="1"/>
        <pt x="585" y="904" on="1"/>
        <pt x="585" y="254" on="1"/>
        <pt x="886" y="0" on="1"/>
        <pt x="42" y="0" on="1"/>
      </contour>
    </TTGlyph>
    <TTGlyph name="Nacute" xMin="5" yMin="0" xMax="2098" yMax="1879">
      <contour>
        <pt x="1118" y="1879" on="1"/>
        <pt x="1789" y="1879" on="1"/>
        <pt x="1079" y="1563" on="1"/>
        <pt x="708" y="1563" on="1"/>
      </contour>
      <contour>
        <pt x="313" y="253" on="1"/>
        <pt x="313" y="1152" on="1"/>
        <pt x="5" y="1434" on="1"/>
        <pt x="769" y="1434" on="1"/>
        <pt x="1575" y="714" on="1"/>
        <pt x="1575" y="1180" on="1"/>
        <pt x="1295" y="1434" on="1"/>
        <pt x="2098" y="1434" on="1"/>
        <pt x="1847" y="1180" on="1"/>
        <pt x="1847" y="0" on="1"/>
        <pt x="1575" y="0" on="1"/>
        <pt x="585" y="904" on="1"/>
        <pt x="585" y="253" on="1"/>
        <pt x="886" y="0" on="1"/>
        <pt x="42" y="0" on="1"/>
      </contour>
    </TTGlyph>
    <TTGlyph name="Ntilde" xMin="5" yMin="0" xMax="2098" yMax="1900">
      <contour>
        <pt x="438" y="1681" on="1"/>
        <pt x="464" y="1715" on="0"/>
        <pt x="543" y="1792" on="0"/>
        <pt x="646" y="1857" on="0"/>
        <pt x="773" y="1900" on="0"/>
        <pt x="848" y="1900" on="1"/>
        <pt x="914" y="1900" on="0"/>
        <pt x="1035" y="1872" on="0"/>
        <pt x="1095" y="1852" on="1"/>
        <pt x="1165" y="1829" on="0"/>
        <pt x="1308" y="1792" on="0"/>
        <pt x="1386" y="1792" on="1"/>
        <pt x="1442" y="1792" on="0"/>
        <pt x="1539" y="1824" on="0"/>
        <pt x="1591" y="1850" on="1"/>
        <pt x="1677" y="1775" on="1"/>
        <pt x="1650" y="1741" on="0"/>
        <pt x="1572" y="1664" on="0"/>
        <pt x="1469" y="1599" on="0"/>
        <pt x="1342" y="1556" on="0"/>
        <pt x="1267" y="1556" on="1"/>
        <pt x="1193" y="1556" on="0"/>
        <pt x="1058" y="1591" on="0"/>
        <pt x="990" y="1613" on="1"/>
        <pt x="927" y="1633" on="0"/>
        <pt x="798" y="1664" on="0"/>
        <pt x="728" y="1664" on="1"/>
        <pt x="672" y="1664" on="0"/>
        <pt x="575" y="1632" on="0"/>
        <pt x="524" y="1606" on="1"/>
      </contour>
      <contour>
        <pt x="313" y="253" on="1"/>
        <pt x="313" y="1152" on="1"/>
        <pt x="5" y="1434" on="1"/>
        <pt x="769" y="1434" on="1"/>
        <pt x="1575" y="714" on="1"/>
        <pt x="1575" y="1180" on="1"/>
        <pt x="1295" y="1434" on="1"/>
        <pt x="2098" y="1434" on="1"/>
        <pt x="1847" y="1180" on="1"/>
        <pt x="1847" y="0" on="1"/>
        <pt x="1575" y="0" on="1"/>
        <pt x="585" y="904" on="1"/>
        <pt x="585" y="253" on="1"/>
        <pt x="886" y="0" on="1"/>
        <pt x="42" y="0" on="1"/>
      </contour>
    </TTGlyph>
    <TTGlyph name="O" xMin="90" yMin="-39" xMax="1976" yMax="1472">
      <contour>
        <pt x="90" y="717" on="1"/>
        <pt x="90" y="855" on="0"/>
        <pt x="171" y="1075" on="0"/>
        <pt x="309" y="1243" on="0"/>
        <pt x="495" y="1362" on="0"/>
        <pt x="704" y="1437" on="0"/>
        <pt x="926" y="1472" on="0"/>
        <pt x="1032" y="1472" on="1"/>
        <pt x="1148" y="1472" on="0"/>
        <pt x="1379" y="1437" on="0"/>
        <pt x="1588" y="1362" on="0"/>
        <pt x="1768" y="1243" on="0"/>
        <pt x="1901" y="1075" on="0"/>
        <pt x="1976" y="855" on="0"/>
        <pt x="1976" y="717" on="1"/>
        <pt x="1976" y="581" on="0"/>
        <pt x="1898" y="363" on="0"/>
        <pt x="1762" y="195" on="0"/>
        <pt x="1579" y="75" on="0"/>
        <pt x="1370" y="-3" on="0"/>
        <pt x="1143" y="-39" on="0"/>
        <pt x="1032" y="-39" on="1"/>
        <pt x="921" y="-39" on="0"/>
        <pt x="695" y="-5" on="0"/>
        <pt x="486" y="69" on="0"/>
        <pt x="303" y="187" on="0"/>
        <pt x="168" y="355" on="0"/>
        <pt x="90" y="576" on="0"/>
      </contour>
      <contour>
        <pt x="678" y="717" on="1"/>
        <pt x="678" y="599" on="0"/>
        <pt x="730" y="398" on="0"/>
        <pt x="824" y="250" on="0"/>
        <pt x="954" y="166" on="0"/>
        <pt x="1032" y="166" on="1"/>
        <pt x="1110" y="166" on="0"/>
        <pt x="1240" y="252" on="0"/>
        <pt x="1335" y="400" on="0"/>
        <pt x="1388" y="601" on="0"/>
        <pt x="1388" y="717" on="1"/>
        <pt x="1388" y="834" on="0"/>
        <pt x="1338" y="1039" on="0"/>
        <pt x="1245" y="1190" on="0"/>
        <pt x="1113" y="1277" on="0"/>
        <pt x="1032" y="1277" on="1"/>
        <pt x="954" y="1277" on="0"/>
        <pt x="824" y="1190" on="0"/>
        <pt x="730" y="1039" on="0"/>
        <pt x="678" y="834" on="0"/>
      </contour>
    </TTGlyph>
    <TTGlyph name="OE" xMin="90" yMin="0" xMax="2885" yMax="1434">
      <contour>
        <pt x="90" y="717" on="1"/>
        <pt x="90" y="855" on="0"/>
        <pt x="170" y="1069" on="0"/>
        <pt x="308" y="1229" on="0"/>
        <pt x="495" y="1338" on="0"/>
        <pt x="709" y="1405" on="0"/>
        <pt x="939" y="1434" on="0"/>
        <pt x="1052" y="1434" on="1"/>
        <pt x="2885" y="1434" on="1"/>
        <pt x="2865" y="938" on="1"/>
        <pt x="2466" y="1205" on="1"/>
        <pt x="1876" y="1205" on="1"/>
        <pt x="1876" y="874" on="1"/>
        <pt x="2478" y="874" on="1"/>
        <pt x="2478" y="654" on="1"/>
        <pt x="1876" y="654" on="1"/>
        <pt x="1876" y="229" on="1"/>
        <pt x="2466" y="229" on="1"/>
        <pt x="2875" y="473" on="1"/>
        <pt x="2875" y="0" on="1"/>
        <pt x="1052" y="0" on="1"/>
        <pt x="934" y="0" on="0"/>
        <pt x="700" y="28" on="0"/>
        <pt x="486" y="94" on="0"/>
        <pt x="302" y="201" on="0"/>
        <pt x="167" y="361" on="0"/>
        <pt x="90" y="576" on="0"/>
      </contour>
      <contour>
        <pt x="678" y="717" on="1"/>
        <pt x="678" y="599" on="0"/>
        <pt x="730" y="410" on="0"/>
        <pt x="824" y="277" on="0"/>
        <pt x="954" y="205" on="0"/>
        <pt x="1032" y="205" on="1"/>
        <pt x="1110" y="205" on="0"/>
        <pt x="1240" y="256" on="0"/>
        <pt x="1335" y="375" on="0"/>
        <pt x="1388" y="571" on="0"/>
        <pt x="1388" y="717" on="1"/>
        <pt x="1388" y="865" on="0"/>
        <pt x="1338" y="1065" on="0"/>
        <pt x="1245" y="1187" on="0"/>
        <pt x="1113" y="1239" on="0"/>
        <pt x="1032" y="1239" on="1"/>
        <pt x="954" y="1239" on="0"/>
        <pt x="824" y="1164" on="0"/>
        <pt x="730" y="1027" on="0"/>
        <pt x="678" y="834" on="0"/>
      </contour>
    </TTGlyph>
    <TTGlyph name="Oacute" xMin="90" yMin="-39" xMax="1976" yMax="1879">
      <contour>
        <pt x="1100" y="1879" on="1"/>
        <pt x="1771" y="1879" on="1"/>
        <pt x="1061" y="1563" on="1"/>
        <pt x="690" y="1563" on="1"/>
      </contour>
      <contour>
        <pt x="90" y="717" on="1"/>
        <pt x="90" y="855" on="0"/>
        <pt x="171" y="1075" on="0"/>
        <pt x="309" y="1243" on="0"/>
        <pt x="495" y="1362" on="0"/>
        <pt x="704" y="1437" on="0"/>
        <pt x="926" y="1472" on="0"/>
        <pt x="1032" y="1472" on="1"/>
        <pt x="1148" y="1472" on="0"/>
        <pt x="1379" y="1437" on="0"/>
        <pt x="1588" y="1362" on="0"/>
        <pt x="1768" y="1243" on="0"/>
        <pt x="1901" y="1075" on="0"/>
        <pt x="1976" y="855" on="0"/>
        <pt x="1976" y="717" on="1"/>
        <pt x="1976" y="581" on="0"/>
        <pt x="1898" y="363" on="0"/>
        <pt x="1762" y="195" on="0"/>
        <pt x="1579" y="75" on="0"/>
        <pt x="1370" y="-3" on="0"/>
        <pt x="1143" y="-39" on="0"/>
        <pt x="1032" y="-39" on="1"/>
        <pt x="921" y="-39" on="0"/>
        <pt x="695" y="-5" on="0"/>
        <pt x="486" y="69" on="0"/>
        <pt x="303" y="187" on="0"/>
        <pt x="168" y="355" on="0"/>
        <pt x="90" y="576" on="0"/>
      </contour>
      <contour>
        <pt x="678" y="717" on="1"/>
        <pt x="678" y="599" on="0"/>
        <pt x="730" y="398" on="0"/>
        <pt x="824" y="250" on="0"/>
        <pt x="954" y="166" on="0"/>
        <pt x="1032" y="166" on="1"/>
        <pt x="1110" y="166" on="0"/>
        <pt x="1240" y="252" on="0"/>
        <pt x="1335" y="400" on="0"/>
        <pt x="1388" y="601" on="0"/>
        <pt x="1388" y="717" on="1"/>
        <pt x="1388" y="834" on="0"/>
        <pt x="1338" y="1039" on="0"/>
        <pt x="1245" y="1190" on="0"/>
        <pt x="1113" y="1277" on="0"/>
        <pt x="1032" y="1277" on="1"/>
        <pt x="954" y="1277" on="0"/>
        <pt x="824" y="1190" on="0"/>
        <pt x="730" y="1039" on="0"/>
        <pt x="678" y="834" on="0"/>
      </contour>
    </TTGlyph>
    <TTGlyph name="Ocircumflex" xMin="90" yMin="-39" xMax="1976" yMax="1879">
      <contour>
        <pt x="813" y="1879" on="1"/>
        <pt x="1254" y="1879" on="1"/>
        <pt x="1665" y="1563" on="1"/>
        <pt x="1364" y="1563" on="1"/>
        <pt x="1033" y="1679" on="1"/>
        <pt x="694" y="1563" on="1"/>
        <pt x="393" y="1563" on="1"/>
      </contour>
      <contour>
        <pt x="90" y="717" on="1"/>
        <pt x="90" y="855" on="0"/>
        <pt x="171" y="1075" on="0"/>
        <pt x="309" y="1243" on="0"/>
        <pt x="495" y="1362" on="0"/>
        <pt x="704" y="1437" on="0"/>
        <pt x="926" y="1472" on="0"/>
        <pt x="1032" y="1472" on="1"/>
        <pt x="1148" y="1472" on="0"/>
        <pt x="1379" y="1437" on="0"/>
        <pt x="1588" y="1362" on="0"/>
        <pt x="1768" y="1243" on="0"/>
        <pt x="1901" y="1075" on="0"/>
        <pt x="1976" y="855" on="0"/>
        <pt x="1976" y="717" on="1"/>
        <pt x="1976" y="581" on="0"/>
        <pt x="1898" y="363" on="0"/>
        <pt x="1762" y="195" on="0"/>
        <pt x="1579" y="75" on="0"/>
        <pt x="1370" y="-3" on="0"/>
        <pt x="1143" y="-39" on="0"/>
        <pt x="1032" y="-39" on="1"/>
        <pt x="921" y="-39" on="0"/>
        <pt x="695" y="-5" on="0"/>
        <pt x="486" y="69" on="0"/>
        <pt x="303" y="187" on="0"/>
        <pt x="168" y="355" on="0"/>
        <pt x="90" y="576" on="0"/>
      </contour>
      <contour>
        <pt x="678" y="717" on="1"/>
        <pt x="678" y="599" on="0"/>
        <pt x="730" y="398" on="0"/>
        <pt x="824" y="250" on="0"/>
        <pt x="954" y="166" on="0"/>
        <pt x="1032" y="166" on="1"/>
        <pt x="1110" y="166" on="0"/>
        <pt x="1240" y="252" on="0"/>
        <pt x="1335" y="400" on="0"/>
        <pt x="1388" y="601" on="0"/>
        <pt x="1388" y="717" on="1"/>
        <pt x="1388" y="834" on="0"/>
        <pt x="1338" y="1039" on="0"/>
        <pt x="1245" y="1190" on="0"/>
        <pt x="1113" y="1277" on="0"/>
        <pt x="1032" y="1277" on="1"/>
        <pt x="954" y="1277" on="0"/>
        <pt x="824" y="1190" on="0"/>
        <pt x="730" y="1039" on="0"/>
        <pt x="678" y="834" on="0"/>
      </contour>
    </TTGlyph>
    <TTGlyph name="Odieresis" xMin="90" yMin="-39" xMax="1976" yMax="1917">
      <contour>
        <pt x="1335" y="1542" on="1"/>
        <pt x="1293" y="1542" on="0"/>
        <pt x="1219" y="1569" on="0"/>
        <pt x="1165" y="1618" on="0"/>
        <pt x="1133" y="1687" on="0"/>
        <pt x="1133" y="1729" on="1"/>
        <pt x="1133" y="1771" on="0"/>
        <pt x="1165" y="1841" on="0"/>
        <pt x="1219" y="1890" on="0"/>
        <pt x="1293" y="1917" on="0"/>
        <pt x="1335" y="1917" on="1"/>
        <pt x="1377" y="1917" on="0"/>
        <pt x="1452" y="1890" on="0"/>
        <pt x="1507" y="1841" on="0"/>
        <pt x="1539" y="1771" on="0"/>
        <pt x="1539" y="1729" on="1"/>
        <pt x="1539" y="1687" on="0"/>
        <pt x="1507" y="1618" on="0"/>
        <pt x="1452" y="1569" on="0"/>
        <pt x="1377" y="1542" on="0"/>
      </contour>
      <contour>
        <pt x="729" y="1542" on="1"/>
        <pt x="687" y="1542" on="0"/>
        <pt x="613" y="1569" on="0"/>
        <pt x="559" y="1618" on="0"/>
        <pt x="527" y="1687" on="0"/>
        <pt x="527" y="1729" on="1"/>
        <pt x="527" y="1771" on="0"/>
        <pt x="559" y="1841" on="0"/>
        <pt x="613" y="1890" on="0"/>
        <pt x="687" y="1917" on="0"/>
        <pt x="729" y="1917" on="1"/>
        <pt x="771" y="1917" on="0"/>
        <pt x="846" y="1890" on="0"/>
        <pt x="901" y="1841" on="0"/>
        <pt x="933" y="1771" on="0"/>
        <pt x="933" y="1729" on="1"/>
        <pt x="933" y="1687" on="0"/>
        <pt x="901" y="1618" on="0"/>
        <pt x="846" y="1569" on="0"/>
        <pt x="771" y="1542" on="0"/>
      </contour>
      <contour>
        <pt x="90" y="717" on="1"/>
        <pt x="90" y="855" on="0"/>
        <pt x="171" y="1075" on="0"/>
        <pt x="309" y="1243" on="0"/>
        <pt x="495" y="1362" on="0"/>
        <pt x="704" y="1437" on="0"/>
        <pt x="926" y="1472" on="0"/>
        <pt x="1032" y="1472" on="1"/>
        <pt x="1148" y="1472" on="0"/>
        <pt x="1379" y="1437" on="0"/>
        <pt x="1588" y="1362" on="0"/>
        <pt x="1768" y="1243" on="0"/>
        <pt x="1901" y="1075" on="0"/>
        <pt x="1976" y="855" on="0"/>
        <pt x="1976" y="717" on="1"/>
        <pt x="1976" y="581" on="0"/>
        <pt x="1898" y="363" on="0"/>
        <pt x="1762" y="195" on="0"/>
        <pt x="1579" y="75" on="0"/>
        <pt x="1370" y="-3" on="0"/>
        <pt x="1143" y="-39" on="0"/>
        <pt x="1032" y="-39" on="1"/>
        <pt x="921" y="-39" on="0"/>
        <pt x="695" y="-5" on="0"/>
        <pt x="486" y="69" on="0"/>
        <pt x="303" y="187" on="0"/>
        <pt x="168" y="355" on="0"/>
        <pt x="90" y="576" on="0"/>
      </contour>
      <contour>
        <pt x="678" y="717" on="1"/>
        <pt x="678" y="599" on="0"/>
        <pt x="730" y="398" on="0"/>
        <pt x="824" y="250" on="0"/>
        <pt x="954" y="166" on="0"/>
        <pt x="1032" y="166" on="1"/>
        <pt x="1110" y="166" on="0"/>
        <pt x="1240" y="252" on="0"/>
        <pt x="1335" y="400" on="0"/>
        <pt x="1388" y="601" on="0"/>
        <pt x="1388" y="717" on="1"/>
        <pt x="1388" y="834" on="0"/>
        <pt x="1338" y="1039" on="0"/>
        <pt x="1245" y="1190" on="0"/>
        <pt x="1113" y="1277" on="0"/>
        <pt x="1032" y="1277" on="1"/>
        <pt x="954" y="1277" on="0"/>
        <pt x="824" y="1190" on="0"/>
        <pt x="730" y="1039" on="0"/>
        <pt x="678" y="834" on="0"/>
      </contour>
    </TTGlyph>
    <TTGlyph name="Ograve" xMin="90" yMin="-39" xMax="1976" yMax="1879">
      <contour>
        <pt x="301" y="1879" on="1"/>
        <pt x="952" y="1879" on="1"/>
        <pt x="1362" y="1563" on="1"/>
        <pt x="1011" y="1563" on="1"/>
      </contour>
      <contour>
        <pt x="90" y="717" on="1"/>
        <pt x="90" y="855" on="0"/>
        <pt x="171" y="1075" on="0"/>
        <pt x="309" y="1243" on="0"/>
        <pt x="495" y="1362" on="0"/>
        <pt x="704" y="1437" on="0"/>
        <pt x="926" y="1472" on="0"/>
        <pt x="1032" y="1472" on="1"/>
        <pt x="1148" y="1472" on="0"/>
        <pt x="1379" y="1437" on="0"/>
        <pt x="1588" y="1362" on="0"/>
        <pt x="1768" y="1243" on="0"/>
        <pt x="1901" y="1075" on="0"/>
        <pt x="1976" y="855" on="0"/>
        <pt x="1976" y="717" on="1"/>
        <pt x="1976" y="581" on="0"/>
        <pt x="1898" y="363" on="0"/>
        <pt x="1762" y="195" on="0"/>
        <pt x="1579" y="75" on="0"/>
        <pt x="1370" y="-3" on="0"/>
        <pt x="1143" y="-39" on="0"/>
        <pt x="1032" y="-39" on="1"/>
        <pt x="921" y="-39" on="0"/>
        <pt x="695" y="-5" on="0"/>
        <pt x="486" y="69" on="0"/>
        <pt x="303" y="187" on="0"/>
        <pt x="168" y="355" on="0"/>
        <pt x="90" y="576" on="0"/>
      </contour>
      <contour>
        <pt x="678" y="717" on="1"/>
        <pt x="678" y="599" on="0"/>
        <pt x="730" y="398" on="0"/>
        <pt x="824" y="250" on="0"/>
        <pt x="954" y="166" on="0"/>
        <pt x="1032" y="166" on="1"/>
        <pt x="1110" y="166" on="0"/>
        <pt x="1240" y="252" on="0"/>
        <pt x="1335" y="400" on="0"/>
        <pt x="1388" y="601" on="0"/>
        <pt x="1388" y="717" on="1"/>
        <pt x="1388" y="834" on="0"/>
        <pt x="1338" y="1039" on="0"/>
        <pt x="1245" y="1190" on="0"/>
        <pt x="1113" y="1277" on="0"/>
        <pt x="1032" y="1277" on="1"/>
        <pt x="954" y="1277" on="0"/>
        <pt x="824" y="1190" on="0"/>
        <pt x="730" y="1039" on="0"/>
        <pt x="678" y="834" on="0"/>
      </contour>
    </TTGlyph>
    <TTGlyph name="Oslash" xMin="90" yMin="-221" xMax="1976" yMax="1679">
      <contour>
        <pt x="90" y="717" on="1"/>
        <pt x="90" y="855" on="0"/>
        <pt x="171" y="1075" on="0"/>
        <pt x="309" y="1243" on="0"/>
        <pt x="495" y="1362" on="0"/>
        <pt x="704" y="1437" on="0"/>
        <pt x="926" y="1472" on="0"/>
        <pt x="1032" y="1472" on="1"/>
        <pt x="1099" y="1472" on="0"/>
        <pt x="1165" y="1466" on="1"/>
        <pt x="1223" y="1679" on="1"/>
        <pt x="1374" y="1679" on="1"/>
        <pt x="1310" y="1446" on="1"/>
        <pt x="1445" y="1420" on="0"/>
        <pt x="1687" y="1310" on="0"/>
        <pt x="1869" y="1132" on="0"/>
        <pt x="1976" y="883" on="0"/>
        <pt x="1976" y="717" on="1"/>
        <pt x="1976" y="581" on="0"/>
        <pt x="1898" y="363" on="0"/>
        <pt x="1762" y="195" on="0"/>
        <pt x="1579" y="75" on="0"/>
        <pt x="1370" y="-3" on="0"/>
        <pt x="1143" y="-39" on="0"/>
        <pt x="1032" y="-39" on="1"/>
        <pt x="1001" y="-39" on="0"/>
        <pt x="939" y="-36" on="0"/>
        <pt x="908" y="-34" on="1"/>
        <pt x="857" y="-221" on="1"/>
        <pt x="708" y="-221" on="1"/>
        <pt x="764" y="-14" on="1"/>
        <pt x="631" y="11" on="0"/>
        <pt x="387" y="119" on="0"/>
        <pt x="201" y="296" on="0"/>
        <pt x="90" y="548" on="0"/>
      </contour>
      <contour>
        <pt x="1111" y="1265" on="1"/>
        <pt x="1073" y="1277" on="0"/>
        <pt x="1032" y="1277" on="1"/>
        <pt x="954" y="1277" on="0"/>
        <pt x="824" y="1190" on="0"/>
        <pt x="730" y="1039" on="0"/>
        <pt x="678" y="834" on="0"/>
        <pt x="678" y="717" on="1"/>
        <pt x="678" y="642" on="0"/>
        <pt x="700" y="504" on="0"/>
        <pt x="741" y="384" on="0"/>
        <pt x="799" y="286" on="0"/>
        <pt x="836" y="250" on="1"/>
      </contour>
      <contour>
        <pt x="965" y="175" on="1"/>
        <pt x="996" y="166" on="0"/>
        <pt x="1032" y="166" on="1"/>
        <pt x="1110" y="166" on="0"/>
        <pt x="1240" y="252" on="0"/>
        <pt x="1335" y="400" on="0"/>
        <pt x="1388" y="601" on="0"/>
        <pt x="1388" y="717" on="1"/>
        <pt x="1388" y="865" on="0"/>
        <pt x="1310" y="1108" on="0"/>
        <pt x="1239" y="1183" on="1"/>
      </contour>
    </TTGlyph>
    <TTGlyph name="Otilde" xMin="90" yMin="-39" xMax="1976" yMax="1900">
      <contour>
        <pt x="420" y="1681" on="1"/>
        <pt x="446" y="1715" on="0"/>
        <pt x="525" y="1792" on="0"/>
        <pt x="628" y="1857" on="0"/>
        <pt x="755" y="1900" on="0"/>
        <pt x="830" y="1900" on="1"/>
        <pt x="896" y="1900" on="0"/>
        <pt x="1017" y="1872" on="0"/>
        <pt x="1077" y="1852" on="1"/>
        <pt x="1147" y="1829" on="0"/>
        <pt x="1290" y="1792" on="0"/>
        <pt x="1368" y="1792" on="1"/>
        <pt x="1424" y="1792" on="0"/>
        <pt x="1521" y="1824" on="0"/>
        <pt x="1573" y="1850" on="1"/>
        <pt x="1659" y="1775" on="1"/>
        <pt x="1632" y="1741" on="0"/>
        <pt x="1554" y="1664" on="0"/>
        <pt x="1451" y="1599" on="0"/>
        <pt x="1324" y="1556" on="0"/>
        <pt x="1249" y="1556" on="1"/>
        <pt x="1175" y="1556" on="0"/>
        <pt x="1040" y="1591" on="0"/>
        <pt x="972" y="1613" on="1"/>
        <pt x="909" y="1633" on="0"/>
        <pt x="780" y="1664" on="0"/>
        <pt x="710" y="1664" on="1"/>
        <pt x="654" y="1664" on="0"/>
        <pt x="557" y="1632" on="0"/>
        <pt x="506" y="1606" on="1"/>
      </contour>
      <contour>
        <pt x="90" y="717" on="1"/>
        <pt x="90" y="855" on="0"/>
        <pt x="171" y="1075" on="0"/>
        <pt x="309" y="1243" on="0"/>
        <pt x="495" y="1362" on="0"/>
        <pt x="704" y="1437" on="0"/>
        <pt x="926" y="1472" on="0"/>
        <pt x="1032" y="1472" on="1"/>
        <pt x="1148" y="1472" on="0"/>
        <pt x="1379" y="1437" on="0"/>
        <pt x="1588" y="1362" on="0"/>
        <pt x="1768" y="1243" on="0"/>
        <pt x="1901" y="1075" on="0"/>
        <pt x="1976" y="855" on="0"/>
        <pt x="1976" y="717" on="1"/>
        <pt x="1976" y="581" on="0"/>
        <pt x="1898" y="363" on="0"/>
        <pt x="1762" y="195" on="0"/>
        <pt x="1579" y="75" on="0"/>
        <pt x="1370" y="-3" on="0"/>
        <pt x="1143" y="-39" on="0"/>
        <pt x="1032" y="-39" on="1"/>
        <pt x="921" y="-39" on="0"/>
        <pt x="695" y="-5" on="0"/>
        <pt x="486" y="69" on="0"/>
        <pt x="303" y="187" on="0"/>
        <pt x="168" y="355" on="0"/>
        <pt x="90" y="576" on="0"/>
      </contour>
      <contour>
        <pt x="678" y="717" on="1"/>
        <pt x="678" y="599" on="0"/>
        <pt x="730" y="398" on="0"/>
        <pt x="824" y="250" on="0"/>
        <pt x="954" y="166" on="0"/>
        <pt x="1032" y="166" on="1"/>
        <pt x="1110" y="166" on="0"/>
        <pt x="1240" y="252" on="0"/>
        <pt x="1335" y="400" on="0"/>
        <pt x="1388" y="601" on="0"/>
        <pt x="1388" y="717" on="1"/>
        <pt x="1388" y="834" on="0"/>
        <pt x="1338" y="1039" on="0"/>
        <pt x="1245" y="1190" on="0"/>
        <pt x="1113" y="1277" on="0"/>
        <pt x="1032" y="1277" on="1"/>
        <pt x="954" y="1277" on="0"/>
        <pt x="824" y="1190" on="0"/>
        <pt x="730" y="1039" on="0"/>
        <pt x="678" y="834" on="0"/>
      </contour>
    </TTGlyph>
    <TTGlyph name="P" xMin="30" yMin="0" xMax="1995" yMax="1441">
      <contour>
        <pt x="341" y="254" on="1"/>
        <pt x="341" y="1180" on="1"/>
        <pt x="31" y="1434" on="1"/>
        <pt x="127" y="1435" on="0"/>
        <pt x="343" y="1437" on="0"/>
        <pt x="562" y="1438" on="0"/>
        <pt x="774" y="1440" on="0"/>
        <pt x="956" y="1441" on="0"/>
        <pt x="1098" y="1441" on="0"/>
        <pt x="1139" y="1441" on="1"/>
        <pt x="1240" y="1441" on="0"/>
        <pt x="1446" y="1428" on="0"/>
        <pt x="1636" y="1392" on="0"/>
        <pt x="1802" y="1329" on="0"/>
        <pt x="1924" y="1227" on="0"/>
        <pt x="1995" y="1083" on="0"/>
        <pt x="1995" y="985" on="1"/>
        <pt x="1995" y="879" on="0"/>
        <pt x="1934" y="722" on="0"/>
        <pt x="1818" y="611" on="0"/>
        <pt x="1653" y="541" on="0"/>
        <pt x="1443" y="501" on="0"/>
        <pt x="1194" y="486" on="0"/>
        <pt x="1053" y="486" on="1"/>
        <pt x="1015" y="486" on="0"/>
        <pt x="919" y="488" on="0"/>
        <pt x="868" y="490" on="1"/>
        <pt x="868" y="254" on="1"/>
        <pt x="1279" y="0" on="1"/>
        <pt x="30" y="0" on="1"/>
      </contour>
      <contour>
        <pt x="994" y="709" on="1"/>
        <pt x="1118" y="709" on="0"/>
        <pt x="1284" y="732" on="0"/>
        <pt x="1384" y="792" on="0"/>
        <pt x="1426" y="896" on="0"/>
        <pt x="1426" y="977" on="1"/>
        <pt x="1426" y="1058" on="0"/>
        <pt x="1370" y="1156" on="0"/>
        <pt x="1264" y="1209" on="0"/>
        <pt x="1111" y="1225" on="0"/>
        <pt x="1014" y="1225" on="1"/>
        <pt x="868" y="1225" on="1"/>
        <pt x="868" y="709" on="1"/>
      </contour>
    </TTGlyph>
    <TTGlyph name="Q" xMin="90" yMin="-429" xMax="1976" yMax="1472">
      <contour>
        <pt x="90" y="717" on="1"/>
        <pt x="90" y="855" on="0"/>
        <pt x="168" y="1075" on="0"/>
        <pt x="303" y="1243" on="0"/>
        <pt x="486" y="1362" on="0"/>
        <pt x="695" y="1437" on="0"/>
        <pt x="921" y="1472" on="0"/>
        <pt x="1032" y="1472" on="1"/>
        <pt x="1143" y="1472" on="0"/>
        <pt x="1370" y="1437" on="0"/>
        <pt x="1579" y="1362" on="0"/>
        <pt x="1762" y="1243" on="0"/>
        <pt x="1898" y="1075" on="0"/>
        <pt x="1976" y="855" on="0"/>
        <pt x="1976" y="717" on="1"/>
        <pt x="1976" y="583" on="0"/>
        <pt x="1903" y="370" on="0"/>
        <pt x="1776" y="204" on="0"/>
        <pt x="1604" y="84" on="0"/>
        <pt x="1504" y="45" on="1"/>
        <pt x="1506" y="10" on="0"/>
        <pt x="1521" y="-48" on="0"/>
        <pt x="1556" y="-92" on="0"/>
        <pt x="1615" y="-116" on="0"/>
        <pt x="1662" y="-116" on="1"/>
        <pt x="1676" y="-116" on="0"/>
        <pt x="1720" y="-114" on="0"/>
        <pt x="1769" y="-109" on="0"/>
        <pt x="1820" y="-101" on="0"/>
        <pt x="1841" y="-96" on="1"/>
        <pt x="1806" y="-404" on="1"/>
        <pt x="1777" y="-410" on="0"/>
        <pt x="1714" y="-420" on="0"/>
        <pt x="1651" y="-426" on="0"/>
        <pt x="1593" y="-429" on="0"/>
        <pt x="1571" y="-429" on="1"/>
        <pt x="1473" y="-429" on="0"/>
        <pt x="1329" y="-371" on="0"/>
        <pt x="1233" y="-266" on="0"/>
        <pt x="1184" y="-119" on="0"/>
        <pt x="1183" y="-31" on="1"/>
        <pt x="1145" y="-35" on="0"/>
        <pt x="1070" y="-39" on="0"/>
        <pt x="1032" y="-39" on="1"/>
        <pt x="921" y="-39" on="0"/>
        <pt x="695" y="-5" on="0"/>
        <pt x="486" y="69" on="0"/>
        <pt x="303" y="187" on="0"/>
        <pt x="168" y="355" on="0"/>
        <pt x="90" y="576" on="0"/>
      </contour>
      <contour>
        <pt x="743" y="387" on="1"/>
        <pt x="800" y="433" on="0"/>
        <pt x="962" y="486" on="0"/>
        <pt x="1060" y="486" on="1"/>
        <pt x="1145" y="486" on="0"/>
        <pt x="1276" y="439" on="0"/>
        <pt x="1327" y="401" on="1"/>
        <pt x="1356" y="468" on="0"/>
        <pt x="1388" y="628" on="0"/>
        <pt x="1388" y="717" on="1"/>
        <pt x="1388" y="834" on="0"/>
        <pt x="1338" y="1039" on="0"/>
        <pt x="1245" y="1190" on="0"/>
        <pt x="1113" y="1277" on="0"/>
        <pt x="1032" y="1277" on="1"/>
        <pt x="954" y="1277" on="0"/>
        <pt x="824" y="1190" on="0"/>
        <pt x="730" y="1039" on="0"/>
        <pt x="678" y="834" on="0"/>
        <pt x="678" y="717" on="1"/>
        <pt x="678" y="622" on="0"/>
        <pt x="711" y="456" on="0"/>
      </contour>
      <contour>
        <pt x="827" y="259" on="1"/>
        <pt x="869" y="214" on="0"/>
        <pt x="972" y="166" on="0"/>
        <pt x="1032" y="166" on="1"/>
        <pt x="1108" y="166" on="0"/>
        <pt x="1173" y="208" on="1"/>
        <pt x="1153" y="262" on="0"/>
        <pt x="1052" y="318" on="0"/>
        <pt x="993" y="318" on="1"/>
        <pt x="948" y="318" on="0"/>
        <pt x="860" y="289" on="0"/>
      </contour>
    </TTGlyph>
    <TTGlyph name="R" xMin="30" yMin="0" xMax="2196" yMax="1441">
      <contour>
        <pt x="341" y="254" on="1"/>
        <pt x="341" y="1180" on="1"/>
        <pt x="31" y="1434" on="1"/>
        <pt x="125" y="1435" on="0"/>
        <pt x="327" y="1437" on="0"/>
        <pt x="527" y="1438" on="0"/>
        <pt x="717" y="1440" on="0"/>
        <pt x="884" y="1441" on="0"/>
        <pt x="1020" y="1441" on="0"/>
        <pt x="1065" y="1441" on="1"/>
        <pt x="1160" y="1441" on="0"/>
        <pt x="1368" y="1433" on="0"/>
        <pt x="1569" y="1406" on="0"/>
        <pt x="1750" y="1353" on="0"/>
        <pt x="1887" y="1264" on="0"/>
        <pt x="1968" y="1133" on="0"/>
        <pt x="1968" y="1041" on="1"/>
        <pt x="1968" y="971" on="0"/>
        <pt x="1918" y="859" on="0"/>
        <pt x="1825" y="771" on="0"/>
        <pt x="1693" y="705" on="0"/>
        <pt x="1612" y="681" on="1"/>
        <pt x="1675" y="672" on="0"/>
        <pt x="1786" y="605" on="0"/>
        <pt x="1868" y="503" on="0"/>
        <pt x="1915" y="369" on="0"/>
        <pt x="1915" y="292" on="1"/>
        <pt x="1915" y="234" on="1"/>
        <pt x="2196" y="0" on="1"/>
        <pt x="1212" y="0" on="1"/>
        <pt x="1364" y="213" on="1"/>
        <pt x="1364" y="336" on="1"/>
        <pt x="1364" y="388" on="0"/>
        <pt x="1334" y="475" on="0"/>
        <pt x="1282" y="538" on="0"/>
        <pt x="1213" y="573" on="0"/>
        <pt x="1175" y="573" on="1"/>
        <pt x="868" y="573" on="1"/>
        <pt x="868" y="254" on="1"/>
        <pt x="1049" y="0" on="1"/>
        <pt x="30" y="0" on="1"/>
      </contour>
      <contour>
        <pt x="1014" y="769" on="1"/>
        <pt x="1119" y="769" on="0"/>
        <pt x="1275" y="787" on="0"/>
        <pt x="1378" y="837" on="0"/>
        <pt x="1428" y="925" on="0"/>
        <pt x="1428" y="994" on="1"/>
        <pt x="1428" y="1047" on="0"/>
        <pt x="1392" y="1123" on="0"/>
        <pt x="1330" y="1174" on="0"/>
        <pt x="1247" y="1205" on="0"/>
        <pt x="1155" y="1220" on="0"/>
        <pt x="1059" y="1225" on="0"/>
        <pt x="1014" y="1225" on="1"/>
        <pt x="868" y="1225" on="1"/>
        <pt x="868" y="769" on="1"/>
      </contour>
    </TTGlyph>
    <TTGlyph name="Racute" xMin="30" yMin="0" xMax="2196" yMax="1879">
      <contour>
        <pt x="1180" y="1879" on="1"/>
        <pt x="1851" y="1879" on="1"/>
        <pt x="1141" y="1563" on="1"/>
        <pt x="770" y="1563" on="1"/>
      </contour>
      <contour>
        <pt x="341" y="254" on="1"/>
        <pt x="341" y="1180" on="1"/>
        <pt x="31" y="1434" on="1"/>
        <pt x="125" y="1435" on="0"/>
        <pt x="327" y="1437" on="0"/>
        <pt x="527" y="1438" on="0"/>
        <pt x="717" y="1440" on="0"/>
        <pt x="884" y="1441" on="0"/>
        <pt x="1020" y="1441" on="0"/>
        <pt x="1065" y="1441" on="1"/>
        <pt x="1160" y="1441" on="0"/>
        <pt x="1368" y="1433" on="0"/>
        <pt x="1569" y="1406" on="0"/>
        <pt x="1750" y="1353" on="0"/>
        <pt x="1887" y="1264" on="0"/>
        <pt x="1968" y="1133" on="0"/>
        <pt x="1968" y="1041" on="1"/>
        <pt x="1968" y="971" on="0"/>
        <pt x="1918" y="859" on="0"/>
        <pt x="1825" y="771" on="0"/>
        <pt x="1693" y="705" on="0"/>
        <pt x="1612" y="681" on="1"/>
        <pt x="1675" y="672" on="0"/>
        <pt x="1786" y="605" on="0"/>
        <pt x="1868" y="503" on="0"/>
        <pt x="1915" y="369" on="0"/>
        <pt x="1915" y="292" on="1"/>
        <pt x="1915" y="234" on="1"/>
        <pt x="2196" y="0" on="1"/>
        <pt x="1212" y="0" on="1"/>
        <pt x="1364" y="213" on="1"/>
        <pt x="1364" y="336" on="1"/>
        <pt x="1364" y="388" on="0"/>
        <pt x="1334" y="475" on="0"/>
        <pt x="1282" y="538" on="0"/>
        <pt x="1213" y="573" on="0"/>
        <pt x="1175" y="573" on="1"/>
        <pt x="868" y="573" on="1"/>
        <pt x="868" y="254" on="1"/>
        <pt x="1049" y="0" on="1"/>
        <pt x="30" y="0" on="1"/>
      </contour>
      <contour>
        <pt x="1014" y="769" on="1"/>
        <pt x="1119" y="769" on="0"/>
        <pt x="1275" y="787" on="0"/>
        <pt x="1378" y="837" on="0"/>
        <pt x="1428" y="925" on="0"/>
        <pt x="1428" y="994" on="1"/>
        <pt x="1428" y="1047" on="0"/>
        <pt x="1392" y="1123" on="0"/>
        <pt x="1330" y="1174" on="0"/>
        <pt x="1247" y="1205" on="0"/>
        <pt x="1155" y="1220" on="0"/>
        <pt x="1059" y="1225" on="0"/>
        <pt x="1014" y="1225" on="1"/>
        <pt x="868" y="1225" on="1"/>
        <pt x="868" y="769" on="1"/>
      </contour>
    </TTGlyph>
    <TTGlyph name="Rcaron" xMin="30" yMin="0" xMax="2196" yMax="1839">
      <contour>
        <pt x="429" y="1839" on="1"/>
        <pt x="710" y="1839" on="1"/>
        <pt x="1070" y="1763" on="1"/>
        <pt x="1429" y="1839" on="1"/>
        <pt x="1710" y="1839" on="1"/>
        <pt x="1250" y="1523" on="1"/>
        <pt x="889" y="1523" on="1"/>
      </contour>
      <contour>
        <pt x="341" y="254" on="1"/>
        <pt x="341" y="1180" on="1"/>
        <pt x="31" y="1434" on="1"/>
        <pt x="125" y="1435" on="0"/>
        <pt x="327" y="1437" on="0"/>
        <pt x="527" y="1438" on="0"/>
        <pt x="717" y="1440" on="0"/>
        <pt x="884" y="1441" on="0"/>
        <pt x="1020" y="1441" on="0"/>
        <pt x="1065" y="1441" on="1"/>
        <pt x="1160" y="1441" on="0"/>
        <pt x="1368" y="1433" on="0"/>
        <pt x="1569" y="1406" on="0"/>
        <pt x="1750" y="1353" on="0"/>
        <pt x="1887" y="1264" on="0"/>
        <pt x="1968" y="1133" on="0"/>
        <pt x="1968" y="1041" on="1"/>
        <pt x="1968" y="971" on="0"/>
        <pt x="1918" y="859" on="0"/>
        <pt x="1825" y="771" on="0"/>
        <pt x="1693" y="705" on="0"/>
        <pt x="1612" y="681" on="1"/>
        <pt x="1675" y="672" on="0"/>
        <pt x="1786" y="605" on="0"/>
        <pt x="1868" y="503" on="0"/>
        <pt x="1915" y="369" on="0"/>
        <pt x="1915" y="292" on="1"/>
        <pt x="1915" y="234" on="1"/>
        <pt x="2196" y="0" on="1"/>
        <pt x="1212" y="0" on="1"/>
        <pt x="1364" y="213" on="1"/>
        <pt x="1364" y="336" on="1"/>
        <pt x="1364" y="388" on="0"/>
        <pt x="1334" y="475" on="0"/>
        <pt x="1282" y="538" on="0"/>
        <pt x="1213" y="573" on="0"/>
        <pt x="1175" y="573" on="1"/>
        <pt x="868" y="573" on="1"/>
        <pt x="868" y="254" on="1"/>
        <pt x="1049" y="0" on="1"/>
        <pt x="30" y="0" on="1"/>
      </contour>
      <contour>
        <pt x="1014" y="769" on="1"/>
        <pt x="1119" y="769" on="0"/>
        <pt x="1275" y="787" on="0"/>
        <pt x="1378" y="837" on="0"/>
        <pt x="1428" y="925" on="0"/>
        <pt x="1428" y="994" on="1"/>
        <pt x="1428" y="1047" on="0"/>
        <pt x="1392" y="1123" on="0"/>
        <pt x="1330" y="1174" on="0"/>
        <pt x="1247" y="1205" on="0"/>
        <pt x="1155" y="1220" on="0"/>
        <pt x="1059" y="1225" on="0"/>
        <pt x="1014" y="1225" on="1"/>
        <pt x="868" y="1225" on="1"/>
        <pt x="868" y="769" on="1"/>
      </contour>
    </TTGlyph>
    <TTGlyph name="Rcommaaccent" xMin="30" yMin="-640" xMax="2196" yMax="1441">
      <contour>
        <pt x="341" y="254" on="1"/>
        <pt x="341" y="1180" on="1"/>
        <pt x="31" y="1434" on="1"/>
        <pt x="125" y="1435" on="0"/>
        <pt x="327" y="1437" on="0"/>
        <pt x="527" y="1438" on="0"/>
        <pt x="717" y="1440" on="0"/>
        <pt x="884" y="1441" on="0"/>
        <pt x="1020" y="1441" on="0"/>
        <pt x="1065" y="1441" on="1"/>
        <pt x="1160" y="1441" on="0"/>
        <pt x="1368" y="1433" on="0"/>
        <pt x="1569" y="1406" on="0"/>
        <pt x="1750" y="1353" on="0"/>
        <pt x="1887" y="1264" on="0"/>
        <pt x="1968" y="1133" on="0"/>
        <pt x="1968" y="1041" on="1"/>
        <pt x="1968" y="971" on="0"/>
        <pt x="1918" y="859" on="0"/>
        <pt x="1825" y="771" on="0"/>
        <pt x="1693" y="705" on="0"/>
        <pt x="1612" y="681" on="1"/>
        <pt x="1675" y="672" on="0"/>
        <pt x="1786" y="605" on="0"/>
        <pt x="1868" y="503" on="0"/>
        <pt x="1915" y="369" on="0"/>
        <pt x="1915" y="292" on="1"/>
        <pt x="1915" y="234" on="1"/>
        <pt x="2196" y="0" on="1"/>
        <pt x="1212" y="0" on="1"/>
        <pt x="1364" y="213" on="1"/>
        <pt x="1364" y="336" on="1"/>
        <pt x="1364" y="388" on="0"/>
        <pt x="1334" y="475" on="0"/>
        <pt x="1282" y="538" on="0"/>
        <pt x="1213" y="573" on="0"/>
        <pt x="1175" y="573" on="1"/>
        <pt x="868" y="573" on="1"/>
        <pt x="868" y="254" on="1"/>
        <pt x="1049" y="0" on="1"/>
        <pt x="30" y="0" on="1"/>
      </contour>
      <contour>
        <pt x="1014" y="769" on="1"/>
        <pt x="1119" y="769" on="0"/>
        <pt x="1275" y="787" on="0"/>
        <pt x="1378" y="837" on="0"/>
        <pt x="1428" y="925" on="0"/>
        <pt x="1428" y="994" on="1"/>
        <pt x="1428" y="1047" on="0"/>
        <pt x="1392" y="1123" on="0"/>
        <pt x="1330" y="1174" on="0"/>
        <pt x="1247" y="1205" on="0"/>
        <pt x="1155" y="1220" on="0"/>
        <pt x="1059" y="1225" on="0"/>
        <pt x="1014" y="1225" on="1"/>
        <pt x="868" y="1225" on="1"/>
        <pt x="868" y="769" on="1"/>
      </contour>
      <contour>
        <pt x="903" y="-262" on="1"/>
        <pt x="903" y="-179" on="0"/>
        <pt x="1020" y="-101" on="0"/>
        <pt x="1125" y="-101" on="1"/>
        <pt x="1168" y="-101" on="0"/>
        <pt x="1250" y="-119" on="0"/>
        <pt x="1313" y="-161" on="0"/>
        <pt x="1352" y="-230" on="0"/>
        <pt x="1352" y="-281" on="1"/>
        <pt x="1352" y="-348" on="0"/>
        <pt x="1310" y="-456" on="0"/>
        <pt x="1237" y="-544" on="0"/>
        <pt x="1139" y="-613" on="0"/>
        <pt x="1083" y="-640" on="1"/>
        <pt x="1016" y="-577" on="1"/>
        <pt x="1066" y="-542" on="0"/>
        <pt x="1125" y="-472" on="0"/>
        <pt x="1145" y="-438" on="1"/>
        <pt x="1135" y="-441" on="0"/>
        <pt x="1108" y="-443" on="0"/>
        <pt x="1100" y="-443" on="1"/>
        <pt x="1059" y="-443" on="0"/>
        <pt x="988" y="-419" on="0"/>
        <pt x="934" y="-373" on="0"/>
        <pt x="903" y="-306" on="0"/>
      </contour>
    </TTGlyph>
    <TTGlyph name="S" xMin="161" yMin="-39" xMax="1841" yMax="1485">
      <contour>
        <pt x="182" y="489" on="1"/>
        <pt x="279" y="425" on="0"/>
        <pt x="493" y="314" on="0"/>
        <pt x="722" y="232" on="0"/>
        <pt x="963" y="185" on="0"/>
        <pt x="1088" y="185" on="1"/>
        <pt x="1136" y="185" on="0"/>
        <pt x="1225" y="197" on="0"/>
        <pt x="1292" y="224" on="0"/>
        <pt x="1333" y="269" on="0"/>
        <pt x="1333" y="301" on="1"/>
        <pt x="1333" y="330" on="0"/>
        <pt x="1299" y="389" on="0"/>
        <pt x="1202" y="443" on="0"/>
        <pt x="1028" y="490" on="0"/>
        <pt x="889" y="508" on="1"/>
        <pt x="703" y="532" on="0"/>
        <pt x="429" y="608" on="0"/>
        <pt x="249" y="726" on="0"/>
        <pt x="161" y="892" on="0"/>
        <pt x="161" y="1006" on="1"/>
        <pt x="161" y="1115" on="0"/>
        <pt x="260" y="1288" on="0"/>
        <pt x="446" y="1408" on="0"/>
        <pt x="712" y="1472" on="0"/>
        <pt x="879" y="1472" on="1"/>
        <pt x="948" y="1472" on="0"/>
        <pt x="1088" y="1457" on="0"/>
        <pt x="1224" y="1431" on="0"/>
        <pt x="1354" y="1396" on="0"/>
        <pt x="1411" y="1377" on="1"/>
        <pt x="1607" y="1485" on="1"/>
        <pt x="1744" y="1485" on="1"/>
        <pt x="1744" y="1005" on="1"/>
        <pt x="1637" y="1068" on="0"/>
        <pt x="1420" y="1164" on="0"/>
        <pt x="1207" y="1229" on="0"/>
        <pt x="1004" y="1262" on="0"/>
        <pt x="912" y="1262" on="1"/>
        <pt x="852" y="1262" on="0"/>
        <pt x="755" y="1244" on="0"/>
        <pt x="688" y="1214" on="0"/>
        <pt x="652" y="1173" on="0"/>
        <pt x="652" y="1150" on="1"/>
        <pt x="652" y="1117" on="0"/>
        <pt x="688" y="1064" on="0"/>
        <pt x="792" y="1018" on="0"/>
        <pt x="980" y="975" on="0"/>
        <pt x="1132" y="950" on="1"/>
        <pt x="1233" y="933" on="0"/>
        <pt x="1417" y="895" on="0"/>
        <pt x="1575" y="842" on="0"/>
        <pt x="1702" y="768" on="0"/>
        <pt x="1792" y="664" on="0"/>
        <pt x="1841" y="524" on="0"/>
        <pt x="1841" y="431" on="1"/>
        <pt x="1841" y="307" on="0"/>
        <pt x="1721" y="129" on="0"/>
        <pt x="1517" y="15" on="0"/>
        <pt x="1246" y="-39" on="0"/>
        <pt x="1096" y="-39" on="1"/>
        <pt x="956" y="-39" on="0"/>
        <pt x="670" y="20" on="0"/>
        <pt x="539" y="86" on="1"/>
        <pt x="379" y="-14" on="1"/>
        <pt x="182" y="-14" on="1"/>
      </contour>
    </TTGlyph>
    <TTGlyph name="T" xMin="54" yMin="0" xMax="1784" yMax="1434">
      <contour>
        <pt x="654" y="253" on="1"/>
        <pt x="654" y="1234" on="1"/>
        <pt x="453" y="1234" on="1"/>
        <pt x="75" y="814" on="1"/>
        <pt x="54" y="1434" on="1"/>
        <pt x="649" y="1434" on="1"/>
        <pt x="654" y="1430" on="1"/>
        <pt x="654" y="1434" on="1"/>
        <pt x="1784" y="1434" on="1"/>
        <pt x="1763" y="814" on="1"/>
        <pt x="1375" y="1234" on="1"/>
        <pt x="1181" y="1234" on="1"/>
        <pt x="1181" y="253" on="1"/>
        <pt x="1535" y="0" on="1"/>
        <pt x="312" y="0" on="1"/>
      </contour>
    </TTGlyph>
    <TTGlyph name="Thorn" xMin="30" yMin="0" xMax="1865" yMax="1434">
      <contour>
        <pt x="262" y="254" on="1"/>
        <pt x="262" y="1180" on="1"/>
        <pt x="30" y="1434" on="1"/>
        <pt x="1011" y="1434" on="1"/>
        <pt x="788" y="1190" on="1"/>
        <pt x="826" y="1192" on="0"/>
        <pt x="928" y="1195" on="0"/>
        <pt x="1009" y="1195" on="1"/>
        <pt x="1110" y="1195" on="0"/>
        <pt x="1316" y="1182" on="0"/>
        <pt x="1506" y="1146" on="0"/>
        <pt x="1672" y="1083" on="0"/>
        <pt x="1794" y="981" on="0"/>
        <pt x="1865" y="837" on="0"/>
        <pt x="1865" y="739" on="1"/>
        <pt x="1865" y="633" on="0"/>
        <pt x="1804" y="476" on="0"/>
        <pt x="1688" y="365" on="0"/>
        <pt x="1523" y="295" on="0"/>
        <pt x="1313" y="255" on="0"/>
        <pt x="1064" y="240" on="0"/>
        <pt x="923" y="240" on="1"/>
        <pt x="896" y="240" on="0"/>
        <pt x="857" y="241" on="0"/>
        <pt x="825" y="243" on="0"/>
        <pt x="799" y="245" on="0"/>
        <pt x="785" y="247" on="1"/>
        <pt x="1011" y="0" on="1"/>
        <pt x="30" y="0" on="1"/>
      </contour>
      <contour>
        <pt x="864" y="463" on="1"/>
        <pt x="988" y="463" on="0"/>
        <pt x="1154" y="486" on="0"/>
        <pt x="1254" y="546" on="0"/>
        <pt x="1296" y="650" on="0"/>
        <pt x="1296" y="731" on="1"/>
        <pt x="1296" y="812" on="0"/>
        <pt x="1240" y="910" on="0"/>
        <pt x="1134" y="963" on="0"/>
        <pt x="981" y="979" on="0"/>
        <pt x="884" y="979" on="1"/>
        <pt x="779" y="979" on="1"/>
        <pt x="779" y="463" on="1"/>
      </contour>
    </TTGlyph>
    <TTGlyph name="U" xMin="10" yMin="-39" xMax="2037" yMax="1434">
      <contour>
        <pt x="291" y="1181" on="1"/>
        <pt x="10" y="1434" on="1"/>
        <pt x="1062" y="1434" on="1"/>
        <pt x="808" y="1181" on="1"/>
        <pt x="808" y="727" on="1"/>
        <pt x="808" y="583" on="0"/>
        <pt x="851" y="384" on="0"/>
        <pt x="937" y="259" on="0"/>
        <pt x="1067" y="204" on="0"/>
        <pt x="1154" y="204" on="1"/>
        <pt x="1207" y="204" on="0"/>
        <pt x="1299" y="221" on="0"/>
        <pt x="1376" y="265" on="0"/>
        <pt x="1435" y="341" on="0"/>
        <pt x="1476" y="457" on="0"/>
        <pt x="1498" y="619" on="0"/>
        <pt x="1498" y="727" on="1"/>
        <pt x="1498" y="1180" on="1"/>
        <pt x="1280" y="1434" on="1"/>
        <pt x="2037" y="1434" on="1"/>
        <pt x="1781" y="1180" on="1"/>
        <pt x="1781" y="667" on="1"/>
        <pt x="1781" y="526" on="0"/>
        <pt x="1735" y="311" on="0"/>
        <pt x="1649" y="154" on="0"/>
        <pt x="1525" y="50" on="0"/>
        <pt x="1369" y="-13" on="0"/>
        <pt x="1185" y="-39" on="0"/>
        <pt x="1081" y="-39" on="1"/>
        <pt x="863" y="-39" on="0"/>
        <pt x="561" y="49" on="0"/>
        <pt x="374" y="226" on="0"/>
        <pt x="291" y="491" on="0"/>
        <pt x="291" y="667" on="1"/>
      </contour>
    </TTGlyph>
    <TTGlyph name="Uacute" xMin="10" yMin="-39" xMax="2037" yMax="1879">
      <contour>
        <pt x="1208" y="1879" on="1"/>
        <pt x="1879" y="1879" on="1"/>
        <pt x="1169" y="1563" on="1"/>
        <pt x="798" y="1563" on="1"/>
      </contour>
      <contour>
        <pt x="291" y="1181" on="1"/>
        <pt x="10" y="1434" on="1"/>
        <pt x="1062" y="1434" on="1"/>
        <pt x="808" y="1181" on="1"/>
        <pt x="808" y="727" on="1"/>
        <pt x="808" y="583" on="0"/>
        <pt x="851" y="384" on="0"/>
        <pt x="937" y="259" on="0"/>
        <pt x="1067" y="204" on="0"/>
        <pt x="1154" y="204" on="1"/>
        <pt x="1207" y="204" on="0"/>
        <pt x="1299" y="221" on="0"/>
        <pt x="1376" y="265" on="0"/>
        <pt x="1435" y="341" on="0"/>
        <pt x="1476" y="457" on="0"/>
        <pt x="1498" y="619" on="0"/>
        <pt x="1498" y="727" on="1"/>
        <pt x="1498" y="1180" on="1"/>
        <pt x="1280" y="1434" on="1"/>
        <pt x="2037" y="1434" on="1"/>
        <pt x="1781" y="1180" on="1"/>
        <pt x="1781" y="667" on="1"/>
        <pt x="1781" y="526" on="0"/>
        <pt x="1735" y="311" on="0"/>
        <pt x="1649" y="154" on="0"/>
        <pt x="1525" y="50" on="0"/>
        <pt x="1369" y="-13" on="0"/>
        <pt x="1185" y="-39" on="0"/>
        <pt x="1081" y="-39" on="1"/>
        <pt x="863" y="-39" on="0"/>
        <pt x="561" y="49" on="0"/>
        <pt x="374" y="226" on="0"/>
        <pt x="291" y="491" on="0"/>
        <pt x="291" y="667" on="1"/>
      </contour>
    </TTGlyph>
    <TTGlyph name="Ucircumflex" xMin="10" yMin="-39" xMax="2037" yMax="1879">
      <contour>
        <pt x="921" y="1879" on="1"/>
        <pt x="1362" y="1879" on="1"/>
        <pt x="1773" y="1563" on="1"/>
        <pt x="1472" y="1563" on="1"/>
        <pt x="1141" y="1679" on="1"/>
        <pt x="802" y="1563" on="1"/>
        <pt x="501" y="1563" on="1"/>
      </contour>
      <contour>
        <pt x="291" y="1181" on="1"/>
        <pt x="10" y="1434" on="1"/>
        <pt x="1062" y="1434" on="1"/>
        <pt x="808" y="1181" on="1"/>
        <pt x="808" y="727" on="1"/>
        <pt x="808" y="583" on="0"/>
        <pt x="851" y="384" on="0"/>
        <pt x="937" y="259" on="0"/>
        <pt x="1067" y="204" on="0"/>
        <pt x="1154" y="204" on="1"/>
        <pt x="1207" y="204" on="0"/>
        <pt x="1299" y="221" on="0"/>
        <pt x="1376" y="265" on="0"/>
        <pt x="1435" y="341" on="0"/>
        <pt x="1476" y="457" on="0"/>
        <pt x="1498" y="619" on="0"/>
        <pt x="1498" y="727" on="1"/>
        <pt x="1498" y="1180" on="1"/>
        <pt x="1280" y="1434" on="1"/>
        <pt x="2037" y="1434" on="1"/>
        <pt x="1781" y="1180" on="1"/>
        <pt x="1781" y="667" on="1"/>
        <pt x="1781" y="526" on="0"/>
        <pt x="1735" y="311" on="0"/>
        <pt x="1649" y="154" on="0"/>
        <pt x="1525" y="50" on="0"/>
        <pt x="1369" y="-13" on="0"/>
        <pt x="1185" y="-39" on="0"/>
        <pt x="1081" y="-39" on="1"/>
        <pt x="863" y="-39" on="0"/>
        <pt x="561" y="49" on="0"/>
        <pt x="374" y="226" on="0"/>
        <pt x="291" y="491" on="0"/>
        <pt x="291" y="667" on="1"/>
      </contour>
    </TTGlyph>
    <TTGlyph name="Udieresis" xMin="10" yMin="-39" xMax="2037" yMax="1917">
      <contour>
        <pt x="1443" y="1542" on="1"/>
        <pt x="1401" y="1542" on="0"/>
        <pt x="1327" y="1569" on="0"/>
        <pt x="1273" y="1618" on="0"/>
        <pt x="1241" y="1687" on="0"/>
        <pt x="1241" y="1729" on="1"/>
        <pt x="1241" y="1771" on="0"/>
        <pt x="1273" y="1841" on="0"/>
        <pt x="1327" y="1890" on="0"/>
        <pt x="1401" y="1917" on="0"/>
        <pt x="1443" y="1917" on="1"/>
        <pt x="1485" y="1917" on="0"/>
        <pt x="1560" y="1890" on="0"/>
        <pt x="1615" y="1841" on="0"/>
        <pt x="1647" y="1771" on="0"/>
        <pt x="1647" y="1729" on="1"/>
        <pt x="1647" y="1687" on="0"/>
        <pt x="1615" y="1618" on="0"/>
        <pt x="1560" y="1569" on="0"/>
        <pt x="1485" y="1542" on="0"/>
      </contour>
      <contour>
        <pt x="837" y="1542" on="1"/>
        <pt x="795" y="1542" on="0"/>
        <pt x="721" y="1569" on="0"/>
        <pt x="667" y="1618" on="0"/>
        <pt x="635" y="1687" on="0"/>
        <pt x="635" y="1729" on="1"/>
        <pt x="635" y="1771" on="0"/>
        <pt x="667" y="1841" on="0"/>
        <pt x="721" y="1890" on="0"/>
        <pt x="795" y="1917" on="0"/>
        <pt x="837" y="1917" on="1"/>
        <pt x="879" y="1917" on="0"/>
        <pt x="954" y="1890" on="0"/>
        <pt x="1009" y="1841" on="0"/>
        <pt x="1041" y="1771" on="0"/>
        <pt x="1041" y="1729" on="1"/>
        <pt x="1041" y="1687" on="0"/>
        <pt x="1009" y="1618" on="0"/>
        <pt x="954" y="1569" on="0"/>
        <pt x="879" y="1542" on="0"/>
      </contour>
      <contour>
        <pt x="291" y="1181" on="1"/>
        <pt x="10" y="1434" on="1"/>
        <pt x="1062" y="1434" on="1"/>
        <pt x="808" y="1181" on="1"/>
        <pt x="808" y="727" on="1"/>
        <pt x="808" y="583" on="0"/>
        <pt x="851" y="384" on="0"/>
        <pt x="937" y="259" on="0"/>
        <pt x="1067" y="204" on="0"/>
        <pt x="1154" y="204" on="1"/>
        <pt x="1207" y="204" on="0"/>
        <pt x="1299" y="221" on="0"/>
        <pt x="1376" y="265" on="0"/>
        <pt x="1435" y="341" on="0"/>
        <pt x="1476" y="457" on="0"/>
        <pt x="1498" y="619" on="0"/>
        <pt x="1498" y="727" on="1"/>
        <pt x="1498" y="1180" on="1"/>
        <pt x="1280" y="1434" on="1"/>
        <pt x="2037" y="1434" on="1"/>
        <pt x="1781" y="1180" on="1"/>
        <pt x="1781" y="667" on="1"/>
        <pt x="1781" y="526" on="0"/>
        <pt x="1735" y="311" on="0"/>
        <pt x="1649" y="154" on="0"/>
        <pt x="1525" y="50" on="0"/>
        <pt x="1369" y="-13" on="0"/>
        <pt x="1185" y="-39" on="0"/>
        <pt x="1081" y="-39" on="1"/>
        <pt x="863" y="-39" on="0"/>
        <pt x="561" y="49" on="0"/>
        <pt x="374" y="226" on="0"/>
        <pt x="291" y="491" on="0"/>
        <pt x="291" y="667" on="1"/>
      </contour>
    </TTGlyph>
    <TTGlyph name="Ugrave" xMin="10" yMin="-39" xMax="2037" yMax="1879">
      <contour>
        <pt x="409" y="1879" on="1"/>
        <pt x="1060" y="1879" on="1"/>
        <pt x="1470" y="1563" on="1"/>
        <pt x="1119" y="1563" on="1"/>
      </contour>
      <contour>
        <pt x="291" y="1181" on="1"/>
        <pt x="10" y="1434" on="1"/>
        <pt x="1062" y="1434" on="1"/>
        <pt x="808" y="1181" on="1"/>
        <pt x="808" y="727" on="1"/>
        <pt x="808" y="583" on="0"/>
        <pt x="851" y="384" on="0"/>
        <pt x="937" y="259" on="0"/>
        <pt x="1067" y="204" on="0"/>
        <pt x="1154" y="204" on="1"/>
        <pt x="1207" y="204" on="0"/>
        <pt x="1299" y="221" on="0"/>
        <pt x="1376" y="265" on="0"/>
        <pt x="1435" y="341" on="0"/>
        <pt x="1476" y="457" on="0"/>
        <pt x="1498" y="619" on="0"/>
        <pt x="1498" y="727" on="1"/>
        <pt x="1498" y="1180" on="1"/>
        <pt x="1280" y="1434" on="1"/>
        <pt x="2037" y="1434" on="1"/>
        <pt x="1781" y="1180" on="1"/>
        <pt x="1781" y="667" on="1"/>
        <pt x="1781" y="526" on="0"/>
        <pt x="1735" y="311" on="0"/>
        <pt x="1649" y="154" on="0"/>
        <pt x="1525" y="50" on="0"/>
        <pt x="1369" y="-13" on="0"/>
        <pt x="1185" y="-39" on="0"/>
        <pt x="1081" y="-39" on="1"/>
        <pt x="863" y="-39" on="0"/>
        <pt x="561" y="49" on="0"/>
        <pt x="374" y="226" on="0"/>
        <pt x="291" y="491" on="0"/>
        <pt x="291" y="667" on="1"/>
      </contour>
    </TTGlyph>
    <TTGlyph name="V" xMin="-42" yMin="0" xMax="2037" yMax="1434">
      <contour>
        <pt x="285" y="1181" on="1"/>
        <pt x="-42" y="1434" on="1"/>
        <pt x="987" y="1434" on="1"/>
        <pt x="831" y="1212" on="1"/>
        <pt x="1140" y="413" on="1"/>
        <pt x="1393" y="1204" on="1"/>
        <pt x="1227" y="1434" on="1"/>
        <pt x="2037" y="1434" on="1"/>
        <pt x="1739" y="1201" on="1"/>
        <pt x="1278" y="0" on="1"/>
        <pt x="779" y="0" on="1"/>
      </contour>
    </TTGlyph>
    <TTGlyph name="W" xMin="-40" yMin="0" xMax="2729" yMax="1434">
      <contour>
        <pt x="210" y="1207" on="1"/>
        <pt x="-40" y="1434" on="1"/>
        <pt x="889" y="1434" on="1"/>
        <pt x="762" y="1198" on="1"/>
        <pt x="992" y="363" on="1"/>
        <pt x="1185" y="1200" on="1"/>
        <pt x="1050" y="1434" on="1"/>
        <pt x="1889" y="1434" on="1"/>
        <pt x="1759" y="1192" on="1"/>
        <pt x="1972" y="353" on="1"/>
        <pt x="2179" y="1193" on="1"/>
        <pt x="2050" y="1434" on="1"/>
        <pt x="2729" y="1434" on="1"/>
        <pt x="2504" y="1230" on="1"/>
        <pt x="2140" y="0" on="1"/>
        <pt x="1581" y="0" on="1"/>
        <pt x="1386" y="783" on="1"/>
        <pt x="1220" y="0" on="1"/>
        <pt x="631" y="0" on="1"/>
      </contour>
    </TTGlyph>
    <TTGlyph name="X" xMin="-10" yMin="0" xMax="2101" yMax="1434">
      <contour>
        <pt x="424" y="322" on="1"/>
        <pt x="751" y="694" on="1"/>
        <pt x="392" y="1150" on="1"/>
        <pt x="14" y="1434" on="1"/>
        <pt x="1022" y="1434" on="1"/>
        <pt x="926" y="1298" on="1"/>
        <pt x="1156" y="986" on="1"/>
        <pt x="1366" y="1256" on="1"/>
        <pt x="1183" y="1434" on="1"/>
        <pt x="2078" y="1434" on="1"/>
        <pt x="1646" y="1119" on="1"/>
        <pt x="1345" y="762" on="1"/>
        <pt x="1719" y="286" on="1"/>
        <pt x="2101" y="0" on="1"/>
        <pt x="1095" y="0" on="1"/>
        <pt x="1190" y="136" on="1"/>
        <pt x="935" y="471" on="1"/>
        <pt x="703" y="178" on="1"/>
        <pt x="885" y="0" on="1"/>
        <pt x="-10" y="0" on="1"/>
      </contour>
    </TTGlyph>
    <TTGlyph name="Y" xMin="-40" yMin="0" xMax="1999" yMax="1434">
      <contour>
        <pt x="731" y="254" on="1"/>
        <pt x="731" y="450" on="1"/>
        <pt x="258" y="1191" on="1"/>
        <pt x="-40" y="1434" on="1"/>
        <pt x="949" y="1434" on="1"/>
        <pt x="814" y="1242" on="1"/>
        <pt x="1092" y="743" on="1"/>
        <pt x="1318" y="1233" on="1"/>
        <pt x="1154" y="1434" on="1"/>
        <pt x="1999" y="1434" on="1"/>
        <pt x="1656" y="1184" on="1"/>
        <pt x="1238" y="450" on="1"/>
        <pt x="1238" y="254" on="1"/>
        <pt x="1508" y="0" on="1"/>
        <pt x="479" y="0" on="1"/>
      </contour>
    </TTGlyph>
    <TTGlyph name="Yacute" xMin="-40" yMin="0" xMax="1999" yMax="1879">
      <contour>
        <pt x="1161" y="1879" on="1"/>
        <pt x="1832" y="1879" on="1"/>
        <pt x="1122" y="1563" on="1"/>
        <pt x="751" y="1563" on="1"/>
      </contour>
      <contour>
        <pt x="731" y="224" on="1"/>
        <pt x="731" y="440" on="1"/>
        <pt x="262" y="1191" on="1"/>
        <pt x="-40" y="1434" on="1"/>
        <pt x="949" y="1434" on="1"/>
        <pt x="814" y="1242" on="1"/>
        <pt x="1092" y="743" on="1"/>
        <pt x="1324" y="1233" on="1"/>
        <pt x="1160" y="1434" on="1"/>
        <pt x="1999" y="1434" on="1"/>
        <pt x="1641" y="1184" on="1"/>
        <pt x="1238" y="440" on="1"/>
        <pt x="1238" y="224" on="1"/>
        <pt x="1488" y="0" on="1"/>
        <pt x="499" y="0" on="1"/>
      </contour>
    </TTGlyph>
    <TTGlyph name="Z" xMin="50" yMin="0" xMax="1738" yMax="1434">
      <contour>
        <pt x="914" y="1205" on="1"/>
        <pt x="466" y="1205" on="1"/>
        <pt x="159" y="787" on="1"/>
        <pt x="159" y="1434" on="1"/>
        <pt x="1738" y="1434" on="1"/>
        <pt x="889" y="229" on="1"/>
        <pt x="1422" y="229" on="1"/>
        <pt x="1729" y="647" on="1"/>
        <pt x="1729" y="0" on="1"/>
        <pt x="50" y="0" on="1"/>
      </contour>
    </TTGlyph>
    <TTGlyph name="a" xMin="94" yMin="-39" xMax="1701" yMax="1146">
      <contour>
        <pt x="94" y="258" on="1"/>
        <pt x="94" y="338" on="0"/>
        <pt x="160" y="455" on="0"/>
        <pt x="272" y="538" on="0"/>
        <pt x="422" y="590" on="0"/>
        <pt x="590" y="619" on="0"/>
        <pt x="767" y="630" on="0"/>
        <pt x="851" y="630" on="1"/>
        <pt x="898" y="630" on="0"/>
        <pt x="1003" y="627" on="0"/>
        <pt x="1056" y="625" on="1"/>
        <pt x="1054" y="697" on="0"/>
        <pt x="1033" y="810" on="0"/>
        <pt x="984" y="887" on="0"/>
        <pt x="897" y="928" on="0"/>
        <pt x="829" y="928" on="1"/>
        <pt x="785" y="928" on="0"/>
        <pt x="699" y="906" on="0"/>
        <pt x="629" y="858" on="0"/>
        <pt x="580" y="783" on="0"/>
        <pt x="573" y="729" on="1"/>
        <pt x="172" y="784" on="1"/>
        <pt x="172" y="852" on="0"/>
        <pt x="227" y="959" on="0"/>
        <pt x="323" y="1040" on="0"/>
        <pt x="454" y="1096" on="0"/>
        <pt x="605" y="1130" on="0"/>
        <pt x="770" y="1146" on="0"/>
        <pt x="852" y="1146" on="1"/>
        <pt x="951" y="1146" on="0"/>
        <pt x="1132" y="1129" on="0"/>
        <pt x="1288" y="1085" on="0"/>
        <pt x="1415" y="1011" on="0"/>
        <pt x="1505" y="897" on="0"/>
        <pt x="1554" y="739" on="0"/>
        <pt x="1554" y="634" on="1"/>
        <pt x="1554" y="282" on="1"/>
        <pt x="1554" y="202" on="0"/>
        <pt x="1633" y="138" on="0"/>
        <pt x="1701" y="138" on="1"/>
        <pt x="1701" y="23" on="1"/>
        <pt x="1692" y="14" on="0"/>
        <pt x="1649" y="-7" on="0"/>
        <pt x="1580" y="-26" on="0"/>
        <pt x="1486" y="-39" on="0"/>
        <pt x="1425" y="-39" on="1"/>
        <pt x="1351" y="-39" on="0"/>
        <pt x="1233" y="-24" on="0"/>
        <pt x="1146" y="13" on="0"/>
        <pt x="1088" y="77" on="0"/>
        <pt x="1073" y="126" on="1"/>
        <pt x="1023" y="82" on="0"/>
        <pt x="897" y="20" on="0"/>
        <pt x="756" y="-20" on="0"/>
        <pt x="607" y="-39" on="0"/>
        <pt x="535" y="-39" on="1"/>
        <pt x="487" y="-39" on="0"/>
        <pt x="385" y="-29" on="0"/>
        <pt x="287" y="-4" on="0"/>
        <pt x="199" y="39" on="0"/>
        <pt x="133" y="105" on="0"/>
        <pt x="94" y="197" on="0"/>
      </contour>
      <contour>
        <pt x="611" y="302" on="1"/>
        <pt x="611" y="275" on="0"/>
        <pt x="639" y="231" on="0"/>
        <pt x="687" y="201" on="0"/>
        <pt x="751" y="185" on="0"/>
        <pt x="787" y="185" on="1"/>
        <pt x="824" y="185" on="0"/>
        <pt x="914" y="202" on="0"/>
        <pt x="995" y="242" on="0"/>
        <pt x="1053" y="307" on="0"/>
        <pt x="1057" y="354" on="1"/>
        <pt x="1057" y="456" on="1"/>
        <pt x="1043" y="457" on="0"/>
        <pt x="1018" y="457" on="0"/>
        <pt x="1007" y="457" on="1"/>
        <pt x="900" y="457" on="0"/>
        <pt x="750" y="436" on="0"/>
        <pt x="655" y="396" on="0"/>
        <pt x="611" y="338" on="0"/>
      </contour>
    </TTGlyph>
    <TTGlyph name="aacute" xMin="94" yMin="-39" xMax="1701" yMax="1663">
      <contour>
        <pt x="971" y="1663" on="1"/>
        <pt x="1472" y="1663" on="1"/>
        <pt x="872" y="1247" on="1"/>
        <pt x="661" y="1247" on="1"/>
      </contour>
      <contour>
        <pt x="94" y="258" on="1"/>
        <pt x="94" y="338" on="0"/>
        <pt x="160" y="455" on="0"/>
        <pt x="272" y="538" on="0"/>
        <pt x="422" y="590" on="0"/>
        <pt x="590" y="619" on="0"/>
        <pt x="767" y="630" on="0"/>
        <pt x="851" y="630" on="1"/>
        <pt x="898" y="630" on="0"/>
        <pt x="1003" y="627" on="0"/>
        <pt x="1056" y="625" on="1"/>
        <pt x="1054" y="697" on="0"/>
        <pt x="1033" y="810" on="0"/>
        <pt x="984" y="887" on="0"/>
        <pt x="897" y="928" on="0"/>
        <pt x="829" y="928" on="1"/>
        <pt x="785" y="928" on="0"/>
        <pt x="699" y="906" on="0"/>
        <pt x="629" y="858" on="0"/>
        <pt x="580" y="783" on="0"/>
        <pt x="573" y="729" on="1"/>
        <pt x="172" y="784" on="1"/>
        <pt x="172" y="852" on="0"/>
        <pt x="227" y="959" on="0"/>
        <pt x="323" y="1040" on="0"/>
        <pt x="454" y="1096" on="0"/>
        <pt x="605" y="1130" on="0"/>
        <pt x="770" y="1146" on="0"/>
        <pt x="852" y="1146" on="1"/>
        <pt x="951" y="1146" on="0"/>
        <pt x="1132" y="1129" on="0"/>
        <pt x="1288" y="1085" on="0"/>
        <pt x="1415" y="1011" on="0"/>
        <pt x="1505" y="897" on="0"/>
        <pt x="1554" y="739" on="0"/>
        <pt x="1554" y="634" on="1"/>
        <pt x="1554" y="282" on="1"/>
        <pt x="1554" y="202" on="0"/>
        <pt x="1633" y="138" on="0"/>
        <pt x="1701" y="138" on="1"/>
        <pt x="1701" y="23" on="1"/>
        <pt x="1692" y="14" on="0"/>
        <pt x="1649" y="-7" on="0"/>
        <pt x="1580" y="-26" on="0"/>
        <pt x="1486" y="-39" on="0"/>
        <pt x="1425" y="-39" on="1"/>
        <pt x="1351" y="-39" on="0"/>
        <pt x="1233" y="-24" on="0"/>
        <pt x="1146" y="13" on="0"/>
        <pt x="1088" y="77" on="0"/>
        <pt x="1073" y="126" on="1"/>
        <pt x="1023" y="82" on="0"/>
        <pt x="897" y="20" on="0"/>
        <pt x="756" y="-20" on="0"/>
        <pt x="607" y="-39" on="0"/>
        <pt x="535" y="-39" on="1"/>
        <pt x="487" y="-39" on="0"/>
        <pt x="385" y="-29" on="0"/>
        <pt x="287" y="-4" on="0"/>
        <pt x="199" y="39" on="0"/>
        <pt x="133" y="105" on="0"/>
        <pt x="94" y="197" on="0"/>
      </contour>
      <contour>
        <pt x="611" y="302" on="1"/>
        <pt x="611" y="275" on="0"/>
        <pt x="639" y="231" on="0"/>
        <pt x="687" y="201" on="0"/>
        <pt x="751" y="185" on="0"/>
        <pt x="787" y="185" on="1"/>
        <pt x="824" y="185" on="0"/>
        <pt x="914" y="202" on="0"/>
        <pt x="995" y="242" on="0"/>
        <pt x="1053" y="307" on="0"/>
        <pt x="1057" y="354" on="1"/>
        <pt x="1057" y="456" on="1"/>
        <pt x="1043" y="457" on="0"/>
        <pt x="1018" y="457" on="0"/>
        <pt x="1007" y="457" on="1"/>
        <pt x="900" y="457" on="0"/>
        <pt x="750" y="436" on="0"/>
        <pt x="655" y="396" on="0"/>
        <pt x="611" y="338" on="0"/>
      </contour>
    </TTGlyph>
    <TTGlyph name="acircumflex" xMin="94" yMin="-39" xMax="1701" yMax="1663">
      <contour>
        <pt x="699" y="1663" on="1"/>
        <pt x="1040" y="1663" on="1"/>
        <pt x="1420" y="1247" on="1"/>
        <pt x="1229" y="1247" on="1"/>
        <pt x="869" y="1432" on="1"/>
        <pt x="510" y="1247" on="1"/>
        <pt x="319" y="1247" on="1"/>
      </contour>
      <contour>
        <pt x="94" y="258" on="1"/>
        <pt x="94" y="338" on="0"/>
        <pt x="160" y="455" on="0"/>
        <pt x="272" y="538" on="0"/>
        <pt x="422" y="590" on="0"/>
        <pt x="590" y="619" on="0"/>
        <pt x="767" y="630" on="0"/>
        <pt x="851" y="630" on="1"/>
        <pt x="898" y="630" on="0"/>
        <pt x="1003" y="627" on="0"/>
        <pt x="1056" y="625" on="1"/>
        <pt x="1054" y="697" on="0"/>
        <pt x="1033" y="810" on="0"/>
        <pt x="984" y="887" on="0"/>
        <pt x="897" y="928" on="0"/>
        <pt x="829" y="928" on="1"/>
        <pt x="785" y="928" on="0"/>
        <pt x="699" y="906" on="0"/>
        <pt x="629" y="858" on="0"/>
        <pt x="580" y="783" on="0"/>
        <pt x="573" y="729" on="1"/>
        <pt x="172" y="784" on="1"/>
        <pt x="172" y="852" on="0"/>
        <pt x="227" y="959" on="0"/>
        <pt x="323" y="1040" on="0"/>
        <pt x="454" y="1096" on="0"/>
        <pt x="605" y="1130" on="0"/>
        <pt x="770" y="1146" on="0"/>
        <pt x="852" y="1146" on="1"/>
        <pt x="951" y="1146" on="0"/>
        <pt x="1132" y="1129" on="0"/>
        <pt x="1288" y="1085" on="0"/>
        <pt x="1415" y="1011" on="0"/>
        <pt x="1505" y="897" on="0"/>
        <pt x="1554" y="739" on="0"/>
        <pt x="1554" y="634" on="1"/>
        <pt x="1554" y="282" on="1"/>
        <pt x="1554" y="202" on="0"/>
        <pt x="1633" y="138" on="0"/>
        <pt x="1701" y="138" on="1"/>
        <pt x="1701" y="23" on="1"/>
        <pt x="1692" y="14" on="0"/>
        <pt x="1649" y="-7" on="0"/>
        <pt x="1580" y="-26" on="0"/>
        <pt x="1486" y="-39" on="0"/>
        <pt x="1425" y="-39" on="1"/>
        <pt x="1351" y="-39" on="0"/>
        <pt x="1233" y="-24" on="0"/>
        <pt x="1146" y="13" on="0"/>
        <pt x="1088" y="77" on="0"/>
        <pt x="1073" y="126" on="1"/>
        <pt x="1023" y="82" on="0"/>
        <pt x="897" y="20" on="0"/>
        <pt x="756" y="-20" on="0"/>
        <pt x="607" y="-39" on="0"/>
        <pt x="535" y="-39" on="1"/>
        <pt x="487" y="-39" on="0"/>
        <pt x="385" y="-29" on="0"/>
        <pt x="287" y="-4" on="0"/>
        <pt x="199" y="39" on="0"/>
        <pt x="133" y="105" on="0"/>
        <pt x="94" y="197" on="0"/>
      </contour>
      <contour>
        <pt x="611" y="302" on="1"/>
        <pt x="611" y="275" on="0"/>
        <pt x="639" y="231" on="0"/>
        <pt x="687" y="201" on="0"/>
        <pt x="751" y="185" on="0"/>
        <pt x="787" y="185" on="1"/>
        <pt x="824" y="185" on="0"/>
        <pt x="914" y="202" on="0"/>
        <pt x="995" y="242" on="0"/>
        <pt x="1053" y="307" on="0"/>
        <pt x="1057" y="354" on="1"/>
        <pt x="1057" y="456" on="1"/>
        <pt x="1043" y="457" on="0"/>
        <pt x="1018" y="457" on="0"/>
        <pt x="1007" y="457" on="1"/>
        <pt x="900" y="457" on="0"/>
        <pt x="750" y="436" on="0"/>
        <pt x="655" y="396" on="0"/>
        <pt x="611" y="338" on="0"/>
      </contour>
    </TTGlyph>
    <TTGlyph name="acute" xMin="105" yMin="1208" xMax="916" yMax="1624">
      <contour>
        <pt x="415" y="1624" on="1"/>
        <pt x="916" y="1624" on="1"/>
        <pt x="316" y="1208" on="1"/>
        <pt x="105" y="1208" on="1"/>
      </contour>
    </TTGlyph>
    <TTGlyph name="acute.case" xMin="0" yMin="1604" xMax="1081" yMax="1920">
      <contour>
        <pt x="410" y="1920" on="1"/>
        <pt x="1081" y="1920" on="1"/>
        <pt x="371" y="1604" on="1"/>
        <pt x="0" y="1604" on="1"/>
      </contour>
    </TTGlyph>
    <TTGlyph name="adieresis" xMin="94" yMin="-39" xMax="1701" yMax="1658">
      <contour>
        <pt x="1172" y="1263" on="1"/>
        <pt x="1130" y="1263" on="0"/>
        <pt x="1056" y="1293" on="0"/>
        <pt x="1002" y="1346" on="0"/>
        <pt x="970" y="1418" on="0"/>
        <pt x="970" y="1460" on="1"/>
        <pt x="970" y="1502" on="0"/>
        <pt x="1002" y="1575" on="0"/>
        <pt x="1056" y="1628" on="0"/>
        <pt x="1130" y="1658" on="0"/>
        <pt x="1172" y="1658" on="1"/>
        <pt x="1214" y="1658" on="0"/>
        <pt x="1289" y="1628" on="0"/>
        <pt x="1344" y="1575" on="0"/>
        <pt x="1376" y="1502" on="0"/>
        <pt x="1376" y="1460" on="1"/>
        <pt x="1376" y="1418" on="0"/>
        <pt x="1344" y="1346" on="0"/>
        <pt x="1289" y="1293" on="0"/>
        <pt x="1214" y="1263" on="0"/>
      </contour>
      <contour>
        <pt x="566" y="1263" on="1"/>
        <pt x="524" y="1263" on="0"/>
        <pt x="450" y="1293" on="0"/>
        <pt x="396" y="1346" on="0"/>
        <pt x="364" y="1418" on="0"/>
        <pt x="364" y="1460" on="1"/>
        <pt x="364" y="1502" on="0"/>
        <pt x="396" y="1575" on="0"/>
        <pt x="450" y="1628" on="0"/>
        <pt x="524" y="1658" on="0"/>
        <pt x="566" y="1658" on="1"/>
        <pt x="608" y="1658" on="0"/>
        <pt x="683" y="1628" on="0"/>
        <pt x="738" y="1575" on="0"/>
        <pt x="770" y="1502" on="0"/>
        <pt x="770" y="1460" on="1"/>
        <pt x="770" y="1418" on="0"/>
        <pt x="738" y="1346" on="0"/>
        <pt x="683" y="1293" on="0"/>
        <pt x="608" y="1263" on="0"/>
      </contour>
      <contour>
        <pt x="94" y="258" on="1"/>
        <pt x="94" y="338" on="0"/>
        <pt x="160" y="455" on="0"/>
        <pt x="272" y="538" on="0"/>
        <pt x="422" y="590" on="0"/>
        <pt x="590" y="619" on="0"/>
        <pt x="767" y="630" on="0"/>
        <pt x="851" y="630" on="1"/>
        <pt x="898" y="630" on="0"/>
        <pt x="1003" y="627" on="0"/>
        <pt x="1056" y="625" on="1"/>
        <pt x="1054" y="697" on="0"/>
        <pt x="1033" y="810" on="0"/>
        <pt x="984" y="887" on="0"/>
        <pt x="897" y="928" on="0"/>
        <pt x="829" y="928" on="1"/>
        <pt x="785" y="928" on="0"/>
        <pt x="699" y="906" on="0"/>
        <pt x="629" y="858" on="0"/>
        <pt x="580" y="783" on="0"/>
        <pt x="573" y="729" on="1"/>
        <pt x="172" y="784" on="1"/>
        <pt x="172" y="852" on="0"/>
        <pt x="227" y="959" on="0"/>
        <pt x="323" y="1040" on="0"/>
        <pt x="454" y="1096" on="0"/>
        <pt x="605" y="1130" on="0"/>
        <pt x="770" y="1146" on="0"/>
        <pt x="852" y="1146" on="1"/>
        <pt x="951" y="1146" on="0"/>
        <pt x="1132" y="1129" on="0"/>
        <pt x="1288" y="1085" on="0"/>
        <pt x="1415" y="1011" on="0"/>
        <pt x="1505" y="897" on="0"/>
        <pt x="1554" y="739" on="0"/>
        <pt x="1554" y="634" on="1"/>
        <pt x="1554" y="282" on="1"/>
        <pt x="1554" y="202" on="0"/>
        <pt x="1633" y="138" on="0"/>
        <pt x="1701" y="138" on="1"/>
        <pt x="1701" y="23" on="1"/>
        <pt x="1692" y="14" on="0"/>
        <pt x="1649" y="-7" on="0"/>
        <pt x="1580" y="-26" on="0"/>
        <pt x="1486" y="-39" on="0"/>
        <pt x="1425" y="-39" on="1"/>
        <pt x="1351" y="-39" on="0"/>
        <pt x="1233" y="-24" on="0"/>
        <pt x="1146" y="13" on="0"/>
        <pt x="1088" y="77" on="0"/>
        <pt x="1073" y="126" on="1"/>
        <pt x="1023" y="82" on="0"/>
        <pt x="897" y="20" on="0"/>
        <pt x="756" y="-20" on="0"/>
        <pt x="607" y="-39" on="0"/>
        <pt x="535" y="-39" on="1"/>
        <pt x="487" y="-39" on="0"/>
        <pt x="385" y="-29" on="0"/>
        <pt x="287" y="-4" on="0"/>
        <pt x="199" y="39" on="0"/>
        <pt x="133" y="105" on="0"/>
        <pt x="94" y="197" on="0"/>
      </contour>
      <contour>
        <pt x="611" y="302" on="1"/>
        <pt x="611" y="275" on="0"/>
        <pt x="639" y="231" on="0"/>
        <pt x="687" y="201" on="0"/>
        <pt x="751" y="185" on="0"/>
        <pt x="787" y="185" on="1"/>
        <pt x="824" y="185" on="0"/>
        <pt x="914" y="202" on="0"/>
        <pt x="995" y="242" on="0"/>
        <pt x="1053" y="307" on="0"/>
        <pt x="1057" y="354" on="1"/>
        <pt x="1057" y="456" on="1"/>
        <pt x="1043" y="457" on="0"/>
        <pt x="1018" y="457" on="0"/>
        <pt x="1007" y="457" on="1"/>
        <pt x="900" y="457" on="0"/>
        <pt x="750" y="436" on="0"/>
        <pt x="655" y="396" on="0"/>
        <pt x="611" y="338" on="0"/>
      </contour>
    </TTGlyph>
    <TTGlyph name="ae" xMin="94" yMin="-39" xMax="2533" yMax="1146">
      <contour>
        <pt x="94" y="258" on="1"/>
        <pt x="94" y="338" on="0"/>
        <pt x="160" y="455" on="0"/>
        <pt x="272" y="538" on="0"/>
        <pt x="422" y="590" on="0"/>
        <pt x="590" y="619" on="0"/>
        <pt x="767" y="630" on="0"/>
        <pt x="851" y="630" on="1"/>
        <pt x="898" y="630" on="0"/>
        <pt x="1003" y="627" on="0"/>
        <pt x="1056" y="625" on="1"/>
        <pt x="1054" y="697" on="0"/>
        <pt x="1033" y="810" on="0"/>
        <pt x="984" y="887" on="0"/>
        <pt x="897" y="928" on="0"/>
        <pt x="829" y="928" on="1"/>
        <pt x="785" y="928" on="0"/>
        <pt x="699" y="908" on="0"/>
        <pt x="629" y="862" on="0"/>
        <pt x="580" y="789" on="0"/>
        <pt x="573" y="735" on="1"/>
        <pt x="172" y="797" on="1"/>
        <pt x="172" y="885" on="0"/>
        <pt x="272" y="1016" on="0"/>
        <pt x="435" y="1103" on="0"/>
        <pt x="641" y="1146" on="0"/>
        <pt x="747" y="1146" on="1"/>
        <pt x="939" y="1146" on="0"/>
        <pt x="1209" y="1059" on="0"/>
        <pt x="1290" y="967" on="1"/>
        <pt x="1341" y="1013" on="0"/>
        <pt x="1467" y="1080" on="0"/>
        <pt x="1608" y="1124" on="0"/>
        <pt x="1759" y="1146" on="0"/>
        <pt x="1837" y="1146" on="1"/>
        <pt x="1982" y="1146" on="0"/>
        <pt x="2233" y="1082" on="0"/>
        <pt x="2417" y="940" on="0"/>
        <pt x="2522" y="709" on="0"/>
        <pt x="2522" y="543" on="1"/>
        <pt x="1554" y="543" on="1"/>
        <pt x="1559" y="430" on="0"/>
        <pt x="1631" y="291" on="0"/>
        <pt x="1745" y="216" on="0"/>
        <pt x="1889" y="191" on="0"/>
        <pt x="1967" y="191" on="1"/>
        <pt x="2025" y="191" on="0"/>
        <pt x="2155" y="208" on="0"/>
        <pt x="2280" y="249" on="0"/>
        <pt x="2392" y="317" on="0"/>
        <pt x="2431" y="369" on="1"/>
        <pt x="2533" y="289" on="1"/>
        <pt x="2504" y="215" on="0"/>
        <pt x="2396" y="94" on="0"/>
        <pt x="2232" y="8" on="0"/>
        <pt x="2014" y="-39" on="0"/>
        <pt x="1876" y="-39" on="1"/>
        <pt x="1791" y="-39" on="0"/>
        <pt x="1613" y="-23" on="0"/>
        <pt x="1442" y="25" on="0"/>
        <pt x="1286" y="114" on="0"/>
        <pt x="1224" y="186" on="1"/>
        <pt x="1175" y="126" on="0"/>
        <pt x="1027" y="41" on="0"/>
        <pt x="846" y="-13" on="0"/>
        <pt x="641" y="-39" on="0"/>
        <pt x="535" y="-39" on="1"/>
        <pt x="487" y="-39" on="0"/>
        <pt x="385" y="-29" on="0"/>
        <pt x="287" y="-4" on="0"/>
        <pt x="199" y="39" on="0"/>
        <pt x="133" y="105" on="0"/>
        <pt x="94" y="197" on="0"/>
      </contour>
      <contour>
        <pt x="2038" y="699" on="1"/>
        <pt x="2038" y="840" on="0"/>
        <pt x="1940" y="963" on="0"/>
        <pt x="1843" y="963" on="1"/>
        <pt x="1725" y="963" on="0"/>
        <pt x="1586" y="828" on="0"/>
        <pt x="1564" y="699" on="1"/>
      </contour>
      <contour>
        <pt x="611" y="302" on="1"/>
        <pt x="611" y="275" on="0"/>
        <pt x="639" y="231" on="0"/>
        <pt x="687" y="201" on="0"/>
        <pt x="751" y="185" on="0"/>
        <pt x="787" y="185" on="1"/>
        <pt x="824" y="185" on="0"/>
        <pt x="917" y="193" on="0"/>
        <pt x="1000" y="226" on="0"/>
        <pt x="1057" y="294" on="0"/>
        <pt x="1057" y="354" on="1"/>
        <pt x="1057" y="456" on="1"/>
        <pt x="1043" y="457" on="0"/>
        <pt x="1018" y="457" on="0"/>
        <pt x="1007" y="457" on="1"/>
        <pt x="900" y="457" on="0"/>
        <pt x="750" y="436" on="0"/>
        <pt x="655" y="396" on="0"/>
        <pt x="611" y="338" on="0"/>
      </contour>
    </TTGlyph>
    <TTGlyph name="agrave" xMin="94" yMin="-39" xMax="1701" yMax="1663">
      <contour>
        <pt x="266" y="1663" on="1"/>
        <pt x="767" y="1663" on="1"/>
        <pt x="1077" y="1247" on="1"/>
        <pt x="866" y="1247" on="1"/>
      </contour>
      <contour>
        <pt x="94" y="258" on="1"/>
        <pt x="94" y="338" on="0"/>
        <pt x="160" y="455" on="0"/>
        <pt x="272" y="538" on="0"/>
        <pt x="422" y="590" on="0"/>
        <pt x="590" y="619" on="0"/>
        <pt x="767" y="630" on="0"/>
        <pt x="851" y="630" on="1"/>
        <pt x="898" y="630" on="0"/>
        <pt x="1003" y="627" on="0"/>
        <pt x="1056" y="625" on="1"/>
        <pt x="1054" y="697" on="0"/>
        <pt x="1033" y="810" on="0"/>
        <pt x="984" y="887" on="0"/>
        <pt x="897" y="928" on="0"/>
        <pt x="829" y="928" on="1"/>
        <pt x="785" y="928" on="0"/>
        <pt x="699" y="906" on="0"/>
        <pt x="629" y="858" on="0"/>
        <pt x="580" y="783" on="0"/>
        <pt x="573" y="729" on="1"/>
        <pt x="172" y="784" on="1"/>
        <pt x="172" y="852" on="0"/>
        <pt x="227" y="959" on="0"/>
        <pt x="323" y="1040" on="0"/>
        <pt x="454" y="1096" on="0"/>
        <pt x="605" y="1130" on="0"/>
        <pt x="770" y="1146" on="0"/>
        <pt x="852" y="1146" on="1"/>
        <pt x="951" y="1146" on="0"/>
        <pt x="1132" y="1129" on="0"/>
        <pt x="1288" y="1085" on="0"/>
        <pt x="1415" y="1011" on="0"/>
        <pt x="1505" y="897" on="0"/>
        <pt x="1554" y="739" on="0"/>
        <pt x="1554" y="634" on="1"/>
        <pt x="1554" y="282" on="1"/>
        <pt x="1554" y="202" on="0"/>
        <pt x="1633" y="138" on="0"/>
        <pt x="1701" y="138" on="1"/>
        <pt x="1701" y="23" on="1"/>
        <pt x="1692" y="14" on="0"/>
        <pt x="1649" y="-7" on="0"/>
        <pt x="1580" y="-26" on="0"/>
        <pt x="1486" y="-39" on="0"/>
        <pt x="1425" y="-39" on="1"/>
        <pt x="1351" y="-39" on="0"/>
        <pt x="1233" y="-24" on="0"/>
        <pt x="1146" y="13" on="0"/>
        <pt x="1088" y="77" on="0"/>
        <pt x="1073" y="126" on="1"/>
        <pt x="1023" y="82" on="0"/>
        <pt x="897" y="20" on="0"/>
        <pt x="756" y="-20" on="0"/>
        <pt x="607" y="-39" on="0"/>
        <pt x="535" y="-39" on="1"/>
        <pt x="487" y="-39" on="0"/>
        <pt x="385" y="-29" on="0"/>
        <pt x="287" y="-4" on="0"/>
        <pt x="199" y="39" on="0"/>
        <pt x="133" y="105" on="0"/>
        <pt x="94" y="197" on="0"/>
      </contour>
      <contour>
        <pt x="611" y="302" on="1"/>
        <pt x="611" y="275" on="0"/>
        <pt x="639" y="231" on="0"/>
        <pt x="687" y="201" on="0"/>
        <pt x="751" y="185" on="0"/>
        <pt x="787" y="185" on="1"/>
        <pt x="824" y="185" on="0"/>
        <pt x="914" y="202" on="0"/>
        <pt x="995" y="242" on="0"/>
        <pt x="1053" y="307" on="0"/>
        <pt x="1057" y="354" on="1"/>
        <pt x="1057" y="456" on="1"/>
        <pt x="1043" y="457" on="0"/>
        <pt x="1018" y="457" on="0"/>
        <pt x="1007" y="457" on="1"/>
        <pt x="900" y="457" on="0"/>
        <pt x="750" y="436" on="0"/>
        <pt x="655" y="396" on="0"/>
        <pt x="611" y="338" on="0"/>
      </contour>
    </TTGlyph>
    <TTGlyph name="ampersand" xMin="110" yMin="-39" xMax="2279" yMax="1472">
      <contour>
        <pt x="110" y="345" on="1"/>
        <pt x="110" y="419" on="0"/>
        <pt x="191" y="537" on="0"/>
        <pt x="327" y="627" on="0"/>
        <pt x="504" y="688" on="0"/>
        <pt x="601" y="706" on="1"/>
        <pt x="491" y="791" on="0"/>
        <pt x="378" y="961" on="0"/>
        <pt x="378" y="1058" on="1"/>
        <pt x="378" y="1128" on="0"/>
        <pt x="431" y="1244" on="0"/>
        <pt x="524" y="1336" on="0"/>
        <pt x="654" y="1404" on="0"/>
        <pt x="808" y="1450" on="0"/>
        <pt x="981" y="1472" on="0"/>
        <pt x="1072" y="1472" on="1"/>
        <pt x="1226" y="1472" on="0"/>
        <pt x="1471" y="1418" on="0"/>
        <pt x="1641" y="1319" on="0"/>
        <pt x="1731" y="1182" on="0"/>
        <pt x="1731" y="1098" on="1"/>
        <pt x="1731" y="1023" on="0"/>
        <pt x="1661" y="896" on="0"/>
        <pt x="1532" y="800" on="0"/>
        <pt x="1351" y="740" on="0"/>
        <pt x="1240" y="731" on="1"/>
        <pt x="1333" y="684" on="0"/>
        <pt x="1531" y="593" on="0"/>
        <pt x="1632" y="549" on="1"/>
        <pt x="1637" y="584" on="0"/>
        <pt x="1642" y="656" on="0"/>
        <pt x="1642" y="694" on="1"/>
        <pt x="1642" y="730" on="0"/>
        <pt x="1639" y="766" on="1"/>
        <pt x="2043" y="630" on="1"/>
        <pt x="2043" y="501" on="0"/>
        <pt x="2011" y="399" on="1"/>
        <pt x="2086" y="371" on="0"/>
        <pt x="2221" y="327" on="0"/>
        <pt x="2279" y="310" on="1"/>
        <pt x="2007" y="-39" on="1"/>
        <pt x="1946" y="-19" on="0"/>
        <pt x="1806" y="41" on="0"/>
        <pt x="1728" y="78" on="1"/>
        <pt x="1599" y="15" on="0"/>
        <pt x="1248" y="-39" on="0"/>
        <pt x="1027" y="-39" on="1"/>
        <pt x="902" y="-39" on="0"/>
        <pt x="668" y="-23" on="0"/>
        <pt x="465" y="13" on="0"/>
        <pt x="297" y="72" on="0"/>
        <pt x="176" y="157" on="0"/>
        <pt x="110" y="271" on="0"/>
      </contour>
      <contour>
        <pt x="1043" y="839" on="1"/>
        <pt x="1102" y="855" on="0"/>
        <pt x="1200" y="899" on="0"/>
        <pt x="1270" y="959" on="0"/>
        <pt x="1309" y="1036" on="0"/>
        <pt x="1309" y="1085" on="1"/>
        <pt x="1309" y="1127" on="0"/>
        <pt x="1276" y="1192" on="0"/>
        <pt x="1216" y="1238" on="0"/>
        <pt x="1130" y="1262" on="0"/>
        <pt x="1078" y="1262" on="1"/>
        <pt x="1019" y="1262" on="0"/>
        <pt x="928" y="1233" on="0"/>
        <pt x="865" y="1184" on="0"/>
        <pt x="833" y="1117" on="0"/>
        <pt x="833" y="1079" on="1"/>
        <pt x="833" y="1017" on="0"/>
        <pt x="946" y="899" on="0"/>
      </contour>
      <contour>
        <pt x="618" y="399" on="1"/>
        <pt x="618" y="355" on="0"/>
        <pt x="656" y="287" on="0"/>
        <pt x="723" y="237" on="0"/>
        <pt x="814" y="203" on="0"/>
        <pt x="918" y="182" on="0"/>
        <pt x="1030" y="173" on="0"/>
        <pt x="1085" y="173" on="1"/>
        <pt x="1194" y="173" on="0"/>
        <pt x="1359" y="206" on="0"/>
        <pt x="1420" y="236" on="1"/>
        <pt x="1299" y="300" on="0"/>
        <pt x="1060" y="431" on="0"/>
        <pt x="947" y="492" on="1"/>
        <pt x="903" y="515" on="0"/>
        <pt x="823" y="560" on="0"/>
        <pt x="786" y="582" on="1"/>
        <pt x="749" y="567" on="0"/>
        <pt x="688" y="527" on="0"/>
        <pt x="643" y="481" on="0"/>
        <pt x="618" y="428" on="0"/>
      </contour>
    </TTGlyph>
    <TTGlyph name="aring" xMin="94" yMin="-39" xMax="1701" yMax="1778">
      <contour>
        <pt x="871" y="1235" on="1"/>
        <pt x="815" y="1235" on="0"/>
        <pt x="716" y="1278" on="0"/>
        <pt x="643" y="1351" on="0"/>
        <pt x="600" y="1450" on="0"/>
        <pt x="600" y="1506" on="1"/>
        <pt x="600" y="1562" on="0"/>
        <pt x="643" y="1661" on="0"/>
        <pt x="716" y="1735" on="0"/>
        <pt x="815" y="1778" on="0"/>
        <pt x="871" y="1778" on="1"/>
        <pt x="927" y="1778" on="0"/>
        <pt x="1026" y="1735" on="0"/>
        <pt x="1100" y="1661" on="0"/>
        <pt x="1143" y="1562" on="0"/>
        <pt x="1143" y="1506" on="1"/>
        <pt x="1143" y="1450" on="0"/>
        <pt x="1100" y="1351" on="0"/>
        <pt x="1026" y="1278" on="0"/>
        <pt x="927" y="1235" on="0"/>
      </contour>
      <contour>
        <pt x="871" y="1378" on="1"/>
        <pt x="898" y="1378" on="0"/>
        <pt x="945" y="1398" on="0"/>
        <pt x="980" y="1433" on="0"/>
        <pt x="1000" y="1479" on="0"/>
        <pt x="1000" y="1506" on="1"/>
        <pt x="1000" y="1533" on="0"/>
        <pt x="980" y="1580" on="0"/>
        <pt x="945" y="1615" on="0"/>
        <pt x="898" y="1635" on="0"/>
        <pt x="871" y="1635" on="1"/>
        <pt x="844" y="1635" on="0"/>
        <pt x="798" y="1615" on="0"/>
        <pt x="763" y="1580" on="0"/>
        <pt x="743" y="1533" on="0"/>
        <pt x="743" y="1506" on="1"/>
        <pt x="743" y="1479" on="0"/>
        <pt x="763" y="1433" on="0"/>
        <pt x="798" y="1398" on="0"/>
        <pt x="844" y="1378" on="0"/>
      </contour>
      <contour>
        <pt x="94" y="258" on="1"/>
        <pt x="94" y="338" on="0"/>
        <pt x="160" y="455" on="0"/>
        <pt x="272" y="538" on="0"/>
        <pt x="422" y="590" on="0"/>
        <pt x="590" y="619" on="0"/>
        <pt x="767" y="630" on="0"/>
        <pt x="851" y="630" on="1"/>
        <pt x="898" y="630" on="0"/>
        <pt x="1003" y="627" on="0"/>
        <pt x="1056" y="625" on="1"/>
        <pt x="1054" y="697" on="0"/>
        <pt x="1033" y="810" on="0"/>
        <pt x="984" y="887" on="0"/>
        <pt x="897" y="928" on="0"/>
        <pt x="829" y="928" on="1"/>
        <pt x="785" y="928" on="0"/>
        <pt x="699" y="906" on="0"/>
        <pt x="629" y="858" on="0"/>
        <pt x="580" y="783" on="0"/>
        <pt x="573" y="729" on="1"/>
        <pt x="172" y="784" on="1"/>
        <pt x="172" y="852" on="0"/>
        <pt x="227" y="959" on="0"/>
        <pt x="323" y="1040" on="0"/>
        <pt x="454" y="1096" on="0"/>
        <pt x="605" y="1130" on="0"/>
        <pt x="770" y="1146" on="0"/>
        <pt x="852" y="1146" on="1"/>
        <pt x="951" y="1146" on="0"/>
        <pt x="1132" y="1129" on="0"/>
        <pt x="1288" y="1085" on="0"/>
        <pt x="1415" y="1011" on="0"/>
        <pt x="1505" y="897" on="0"/>
        <pt x="1554" y="739" on="0"/>
        <pt x="1554" y="634" on="1"/>
        <pt x="1554" y="282" on="1"/>
        <pt x="1554" y="202" on="0"/>
        <pt x="1633" y="138" on="0"/>
        <pt x="1701" y="138" on="1"/>
        <pt x="1701" y="23" on="1"/>
        <pt x="1692" y="14" on="0"/>
        <pt x="1649" y="-7" on="0"/>
        <pt x="1580" y="-26" on="0"/>
        <pt x="1486" y="-39" on="0"/>
        <pt x="1425" y="-39" on="1"/>
        <pt x="1351" y="-39" on="0"/>
        <pt x="1233" y="-24" on="0"/>
        <pt x="1146" y="13" on="0"/>
        <pt x="1088" y="77" on="0"/>
        <pt x="1073" y="126" on="1"/>
        <pt x="1023" y="82" on="0"/>
        <pt x="897" y="20" on="0"/>
        <pt x="756" y="-20" on="0"/>
        <pt x="607" y="-39" on="0"/>
        <pt x="535" y="-39" on="1"/>
        <pt x="487" y="-39" on="0"/>
        <pt x="385" y="-29" on="0"/>
        <pt x="287" y="-4" on="0"/>
        <pt x="199" y="39" on="0"/>
        <pt x="133" y="105" on="0"/>
        <pt x="94" y="197" on="0"/>
      </contour>
      <contour>
        <pt x="611" y="302" on="1"/>
        <pt x="611" y="275" on="0"/>
        <pt x="639" y="231" on="0"/>
        <pt x="687" y="201" on="0"/>
        <pt x="751" y="185" on="0"/>
        <pt x="787" y="185" on="1"/>
        <pt x="824" y="185" on="0"/>
        <pt x="914" y="202" on="0"/>
        <pt x="995" y="242" on="0"/>
        <pt x="1053" y="307" on="0"/>
        <pt x="1057" y="354" on="1"/>
        <pt x="1057" y="456" on="1"/>
        <pt x="1043" y="457" on="0"/>
        <pt x="1018" y="457" on="0"/>
        <pt x="1007" y="457" on="1"/>
        <pt x="900" y="457" on="0"/>
        <pt x="750" y="436" on="0"/>
        <pt x="655" y="396" on="0"/>
        <pt x="611" y="338" on="0"/>
      </contour>
    </TTGlyph>
    <TTGlyph name="asciicircum" xMin="81" yMin="329" xMax="1362" yMax="1472">
      <contour>
        <pt x="81" y="460" on="1"/>
        <pt x="722" y="1472" on="1"/>
        <pt x="1362" y="460" on="1"/>
        <pt x="1153" y="329" on="1"/>
        <pt x="723" y="1059" on="1"/>
        <pt x="291" y="329" on="1"/>
      </contour>
    </TTGlyph>
    <TTGlyph name="asciitilde" xMin="94" yMin="496" xMax="1453" yMax="860">
      <contour>
        <pt x="94" y="620" on="1"/>
        <pt x="120" y="660" on="0"/>
        <pt x="209" y="745" on="0"/>
        <pt x="316" y="815" on="0"/>
        <pt x="431" y="860" on="0"/>
        <pt x="484" y="860" on="1"/>
        <pt x="572" y="860" on="0"/>
        <pt x="745" y="824" on="0"/>
        <pt x="832" y="803" on="1"/>
        <pt x="913" y="783" on="0"/>
        <pt x="1071" y="752" on="0"/>
        <pt x="1150" y="752" on="1"/>
        <pt x="1170" y="752" on="0"/>
        <pt x="1227" y="759" on="0"/>
        <pt x="1289" y="773" on="0"/>
        <pt x="1347" y="795" on="0"/>
        <pt x="1367" y="809" on="1"/>
        <pt x="1453" y="734" on="1"/>
        <pt x="1426" y="694" on="0"/>
        <pt x="1337" y="609" on="0"/>
        <pt x="1231" y="540" on="0"/>
        <pt x="1115" y="496" on="0"/>
        <pt x="1063" y="496" on="1"/>
        <pt x="966" y="496" on="0"/>
        <pt x="784" y="534" on="0"/>
        <pt x="693" y="557" on="1"/>
        <pt x="616" y="576" on="0"/>
        <pt x="468" y="604" on="0"/>
        <pt x="396" y="604" on="1"/>
        <pt x="376" y="604" on="0"/>
        <pt x="318" y="596" on="0"/>
        <pt x="258" y="581" on="0"/>
        <pt x="200" y="559" on="0"/>
        <pt x="180" y="545" on="1"/>
      </contour>
    </TTGlyph>
    <TTGlyph name="asterisk" xMin="19" yMin="931" xMax="918" yMax="1920">
      <contour>
        <pt x="468" y="931" on="1"/>
        <pt x="442" y="931" on="0"/>
        <pt x="394" y="947" on="0"/>
        <pt x="357" y="977" on="0"/>
        <pt x="334" y="1019" on="0"/>
        <pt x="334" y="1046" on="1"/>
        <pt x="334" y="1057" on="0"/>
        <pt x="354" y="1128" on="0"/>
        <pt x="383" y="1220" on="0"/>
        <pt x="416" y="1319" on="0"/>
        <pt x="430" y="1359" on="1"/>
        <pt x="402" y="1327" on="0"/>
        <pt x="333" y="1248" on="0"/>
        <pt x="268" y="1177" on="0"/>
        <pt x="218" y="1125" on="0"/>
        <pt x="209" y="1120" on="1"/>
        <pt x="195" y="1112" on="0"/>
        <pt x="168" y="1105" on="0"/>
        <pt x="154" y="1105" on="1"/>
        <pt x="119" y="1105" on="0"/>
        <pt x="59" y="1146" on="0"/>
        <pt x="40" y="1178" on="1"/>
        <pt x="20" y="1212" on="0"/>
        <pt x="20" y="1254" on="1"/>
        <pt x="20" y="1283" on="0"/>
        <pt x="46" y="1336" on="0"/>
        <pt x="74" y="1353" on="1"/>
        <pt x="83" y="1358" on="0"/>
        <pt x="154" y="1376" on="0"/>
        <pt x="247" y="1397" on="0"/>
        <pt x="349" y="1417" on="0"/>
        <pt x="391" y="1425" on="1"/>
        <pt x="349" y="1433" on="0"/>
        <pt x="247" y="1453" on="0"/>
        <pt x="153" y="1474" on="0"/>
        <pt x="83" y="1492" on="0"/>
        <pt x="74" y="1498" on="1"/>
        <pt x="45" y="1514" on="0"/>
        <pt x="19" y="1566" on="0"/>
        <pt x="19" y="1595" on="1"/>
        <pt x="19" y="1636" on="0"/>
        <pt x="40" y="1672" on="1"/>
        <pt x="58" y="1704" on="0"/>
        <pt x="120" y="1746" on="0"/>
        <pt x="155" y="1746" on="1"/>
        <pt x="182" y="1746" on="0"/>
        <pt x="208" y="1731" on="1"/>
        <pt x="217" y="1726" on="0"/>
        <pt x="268" y="1674" on="0"/>
        <pt x="333" y="1603" on="0"/>
        <pt x="402" y="1524" on="0"/>
        <pt x="430" y="1492" on="1"/>
        <pt x="416" y="1532" on="0"/>
        <pt x="382" y="1631" on="0"/>
        <pt x="353" y="1723" on="0"/>
        <pt x="334" y="1793" on="0"/>
        <pt x="334" y="1804" on="1"/>
        <pt x="334" y="1831" on="0"/>
        <pt x="357" y="1874" on="0"/>
        <pt x="394" y="1904" on="0"/>
        <pt x="442" y="1920" on="0"/>
        <pt x="468" y="1920" on="1"/>
        <pt x="493" y="1920" on="0"/>
        <pt x="542" y="1904" on="0"/>
        <pt x="581" y="1874" on="0"/>
        <pt x="604" y="1831" on="0"/>
        <pt x="604" y="1804" on="1"/>
        <pt x="604" y="1793" on="0"/>
        <pt x="584" y="1722" on="0"/>
        <pt x="555" y="1631" on="0"/>
        <pt x="521" y="1532" on="0"/>
        <pt x="507" y="1492" on="1"/>
        <pt x="535" y="1524" on="0"/>
        <pt x="604" y="1603" on="0"/>
        <pt x="668" y="1675" on="0"/>
        <pt x="719" y="1727" on="0"/>
        <pt x="729" y="1733" on="1"/>
        <pt x="742" y="1741" on="0"/>
        <pt x="768" y="1747" on="0"/>
        <pt x="780" y="1747" on="1"/>
        <pt x="816" y="1747" on="0"/>
        <pt x="878" y="1705" on="0"/>
        <pt x="896" y="1673" on="1"/>
        <pt x="917" y="1635" on="0"/>
        <pt x="917" y="1595" on="1"/>
        <pt x="917" y="1566" on="0"/>
        <pt x="892" y="1514" on="0"/>
        <pt x="864" y="1499" on="1"/>
        <pt x="854" y="1493" on="0"/>
        <pt x="783" y="1475" on="0"/>
        <pt x="689" y="1454" on="0"/>
        <pt x="586" y="1433" on="0"/>
        <pt x="545" y="1425" on="1"/>
        <pt x="586" y="1417" on="0"/>
        <pt x="689" y="1397" on="0"/>
        <pt x="783" y="1376" on="0"/>
        <pt x="854" y="1358" on="0"/>
        <pt x="864" y="1353" on="1"/>
        <pt x="892" y="1337" on="0"/>
        <pt x="918" y="1285" on="0"/>
        <pt x="918" y="1256" on="1"/>
        <pt x="918" y="1217" on="0"/>
        <pt x="896" y="1179" on="1"/>
        <pt x="877" y="1147" on="0"/>
        <pt x="817" y="1105" on="0"/>
        <pt x="783" y="1105" on="1"/>
        <pt x="755" y="1105" on="0"/>
        <pt x="730" y="1120" on="1"/>
        <pt x="721" y="1126" on="0"/>
        <pt x="669" y="1178" on="0"/>
        <pt x="604" y="1249" on="0"/>
        <pt x="535" y="1327" on="0"/>
        <pt x="507" y="1359" on="1"/>
        <pt x="521" y="1319" on="0"/>
        <pt x="555" y="1220" on="0"/>
        <pt x="584" y="1128" on="0"/>
        <pt x="604" y="1057" on="0"/>
        <pt x="604" y="1046" on="1"/>
        <pt x="604" y="1019" on="0"/>
        <pt x="581" y="977" on="0"/>
        <pt x="542" y="947" on="0"/>
        <pt x="493" y="931" on="0"/>
      </contour>
    </TTGlyph>
    <TTGlyph name="at" xMin="126" yMin="-392" xMax="2785" yMax="1435">
      <contour>
        <pt x="126" y="381" on="1"/>
        <pt x="126" y="532" on="0"/>
        <pt x="213" y="806" on="0"/>
        <pt x="382" y="1040" on="0"/>
        <pt x="628" y="1229" on="0"/>
        <pt x="945" y="1363" on="0"/>
        <pt x="1332" y="1435" on="0"/>
        <pt x="1556" y="1435" on="1"/>
        <pt x="1861" y="1435" on="0"/>
        <pt x="2322" y="1319" on="0"/>
        <pt x="2630" y="1117" on="0"/>
        <pt x="2785" y="843" on="0"/>
        <pt x="2785" y="685" on="1"/>
        <pt x="2785" y="533" on="0"/>
        <pt x="2680" y="285" on="0"/>
        <pt x="2491" y="109" on="0"/>
        <pt x="2228" y="12" on="0"/>
        <pt x="2069" y="12" on="1"/>
        <pt x="1884" y="12" on="0"/>
        <pt x="1686" y="90" on="0"/>
        <pt x="1656" y="176" on="1"/>
        <pt x="1581" y="93" on="0"/>
        <pt x="1326" y="4" on="0"/>
        <pt x="1127" y="4" on="1"/>
        <pt x="1026" y="4" on="0"/>
        <pt x="847" y="55" on="0"/>
        <pt x="714" y="157" on="0"/>
        <pt x="636" y="311" on="0"/>
        <pt x="636" y="414" on="1"/>
        <pt x="636" y="522" on="0"/>
        <pt x="714" y="703" on="0"/>
        <pt x="848" y="846" on="0"/>
        <pt x="1028" y="953" on="0"/>
        <pt x="1232" y="1025" on="0"/>
        <pt x="1449" y="1060" on="0"/>
        <pt x="1554" y="1060" on="1"/>
        <pt x="1650" y="1060" on="0"/>
        <pt x="1833" y="1040" on="0"/>
        <pt x="2006" y="991" on="0"/>
        <pt x="2167" y="909" on="0"/>
        <pt x="2241" y="846" on="1"/>
        <pt x="2124" y="283" on="1"/>
        <pt x="2123" y="278" on="0"/>
        <pt x="2123" y="268" on="0"/>
        <pt x="2123" y="263" on="1"/>
        <pt x="2123" y="221" on="0"/>
        <pt x="2177" y="179" on="0"/>
        <pt x="2234" y="179" on="1"/>
        <pt x="2321" y="179" on="0"/>
        <pt x="2458" y="268" on="0"/>
        <pt x="2553" y="409" on="0"/>
        <pt x="2603" y="583" on="0"/>
        <pt x="2603" y="668" on="1"/>
        <pt x="2603" y="821" on="0"/>
        <pt x="2447" y="1052" on="0"/>
        <pt x="2166" y="1207" on="0"/>
        <pt x="1777" y="1285" on="0"/>
        <pt x="1544" y="1285" on="1"/>
        <pt x="1342" y="1285" on="0"/>
        <pt x="1005" y="1219" on="0"/>
        <pt x="736" y="1101" on="0"/>
        <pt x="534" y="937" on="0"/>
        <pt x="399" y="740" on="0"/>
        <pt x="332" y="517" on="0"/>
        <pt x="332" y="399" on="1"/>
        <pt x="332" y="245" on="0"/>
        <pt x="450" y="6" on="0"/>
        <pt x="713" y="-158" on="0"/>
        <pt x="1132" y="-243" on="0"/>
        <pt x="1434" y="-243" on="1"/>
        <pt x="1511" y="-243" on="0"/>
        <pt x="1690" y="-235" on="0"/>
        <pt x="1876" y="-219" on="0"/>
        <pt x="2062" y="-196" on="0"/>
        <pt x="2230" y="-166" on="0"/>
        <pt x="2372" y="-129" on="0"/>
        <pt x="2422" y="-108" on="1"/>
        <pt x="2478" y="-214" on="1"/>
        <pt x="2432" y="-243" on="0"/>
        <pt x="2230" y="-306" on="0"/>
        <pt x="1944" y="-358" on="0"/>
        <pt x="1589" y="-392" on="0"/>
        <pt x="1390" y="-392" on="1"/>
        <pt x="1049" y="-392" on="0"/>
        <pt x="569" y="-281" on="0"/>
        <pt x="265" y="-79" on="0"/>
        <pt x="126" y="207" on="0"/>
      </contour>
      <contour>
        <pt x="1136" y="409" on="1"/>
        <pt x="1136" y="368" on="0"/>
        <pt x="1163" y="294" on="0"/>
        <pt x="1217" y="238" on="0"/>
        <pt x="1296" y="205" on="0"/>
        <pt x="1348" y="205" on="1"/>
        <pt x="1391" y="205" on="0"/>
        <pt x="1473" y="227" on="0"/>
        <pt x="1542" y="268" on="0"/>
        <pt x="1595" y="327" on="0"/>
        <pt x="1609" y="365" on="1"/>
        <pt x="1667" y="523" on="0"/>
        <pt x="1715" y="714" on="0"/>
        <pt x="1715" y="742" on="1"/>
        <pt x="1715" y="766" on="0"/>
        <pt x="1689" y="816" on="0"/>
        <pt x="1636" y="857" on="0"/>
        <pt x="1557" y="884" on="0"/>
        <pt x="1503" y="884" on="1"/>
        <pt x="1424" y="884" on="0"/>
        <pt x="1290" y="811" on="0"/>
        <pt x="1192" y="684" on="0"/>
        <pt x="1136" y="510" on="0"/>
      </contour>
    </TTGlyph>
    <TTGlyph name="atilde" xMin="94" yMin="-39" xMax="1701" yMax="1659">
      <contour>
        <pt x="380" y="1422" on="1"/>
        <pt x="404" y="1459" on="0"/>
        <pt x="476" y="1542" on="0"/>
        <pt x="562" y="1612" on="0"/>
        <pt x="658" y="1659" on="0"/>
        <pt x="707" y="1659" on="1"/>
        <pt x="780" y="1659" on="0"/>
        <pt x="906" y="1614" on="0"/>
        <pt x="962" y="1589" on="1"/>
        <pt x="1010" y="1568" on="0"/>
        <pt x="1097" y="1536" on="0"/>
        <pt x="1140" y="1536" on="1"/>
        <pt x="1178" y="1536" on="0"/>
        <pt x="1253" y="1569" on="0"/>
        <pt x="1293" y="1611" on="1"/>
        <pt x="1359" y="1536" on="1"/>
        <pt x="1335" y="1499" on="0"/>
        <pt x="1263" y="1416" on="0"/>
        <pt x="1177" y="1345" on="0"/>
        <pt x="1081" y="1299" on="0"/>
        <pt x="1032" y="1299" on="1"/>
        <pt x="993" y="1299" on="0"/>
        <pt x="920" y="1313" on="0"/>
        <pt x="853" y="1334" on="0"/>
        <pt x="791" y="1361" on="0"/>
        <pt x="761" y="1374" on="1"/>
        <pt x="717" y="1394" on="0"/>
        <pt x="637" y="1420" on="0"/>
        <pt x="597" y="1420" on="1"/>
        <pt x="559" y="1420" on="0"/>
        <pt x="485" y="1387" on="0"/>
        <pt x="446" y="1347" on="1"/>
      </contour>
      <contour>
        <pt x="94" y="258" on="1"/>
        <pt x="94" y="338" on="0"/>
        <pt x="160" y="455" on="0"/>
        <pt x="272" y="538" on="0"/>
        <pt x="422" y="590" on="0"/>
        <pt x="590" y="619" on="0"/>
        <pt x="767" y="630" on="0"/>
        <pt x="851" y="630" on="1"/>
        <pt x="898" y="630" on="0"/>
        <pt x="1003" y="627" on="0"/>
        <pt x="1056" y="625" on="1"/>
        <pt x="1054" y="697" on="0"/>
        <pt x="1033" y="810" on="0"/>
        <pt x="984" y="887" on="0"/>
        <pt x="897" y="928" on="0"/>
        <pt x="829" y="928" on="1"/>
        <pt x="785" y="928" on="0"/>
        <pt x="699" y="906" on="0"/>
        <pt x="629" y="858" on="0"/>
        <pt x="580" y="783" on="0"/>
        <pt x="573" y="729" on="1"/>
        <pt x="172" y="784" on="1"/>
        <pt x="172" y="852" on="0"/>
        <pt x="227" y="959" on="0"/>
        <pt x="323" y="1040" on="0"/>
        <pt x="454" y="1096" on="0"/>
        <pt x="605" y="1130" on="0"/>
        <pt x="770" y="1146" on="0"/>
        <pt x="852" y="1146" on="1"/>
        <pt x="951" y="1146" on="0"/>
        <pt x="1132" y="1129" on="0"/>
        <pt x="1288" y="1085" on="0"/>
        <pt x="1415" y="1011" on="0"/>
        <pt x="1505" y="897" on="0"/>
        <pt x="1554" y="739" on="0"/>
        <pt x="1554" y="634" on="1"/>
        <pt x="1554" y="282" on="1"/>
        <pt x="1554" y="202" on="0"/>
        <pt x="1633" y="138" on="0"/>
        <pt x="1701" y="138" on="1"/>
        <pt x="1701" y="23" on="1"/>
        <pt x="1692" y="14" on="0"/>
        <pt x="1649" y="-7" on="0"/>
        <pt x="1580" y="-26" on="0"/>
        <pt x="1486" y="-39" on="0"/>
        <pt x="1425" y="-39" on="1"/>
        <pt x="1351" y="-39" on="0"/>
        <pt x="1233" y="-24" on="0"/>
        <pt x="1146" y="13" on="0"/>
        <pt x="1088" y="77" on="0"/>
        <pt x="1073" y="126" on="1"/>
        <pt x="1023" y="82" on="0"/>
        <pt x="897" y="20" on="0"/>
        <pt x="756" y="-20" on="0"/>
        <pt x="607" y="-39" on="0"/>
        <pt x="535" y="-39" on="1"/>
        <pt x="487" y="-39" on="0"/>
        <pt x="385" y="-29" on="0"/>
        <pt x="287" y="-4" on="0"/>
        <pt x="199" y="39" on="0"/>
        <pt x="133" y="105" on="0"/>
        <pt x="94" y="197" on="0"/>
      </contour>
      <contour>
        <pt x="611" y="302" on="1"/>
        <pt x="611" y="275" on="0"/>
        <pt x="639" y="231" on="0"/>
        <pt x="687" y="201" on="0"/>
        <pt x="751" y="185" on="0"/>
        <pt x="787" y="185" on="1"/>
        <pt x="824" y="185" on="0"/>
        <pt x="914" y="202" on="0"/>
        <pt x="995" y="242" on="0"/>
        <pt x="1053" y="307" on="0"/>
        <pt x="1057" y="354" on="1"/>
        <pt x="1057" y="456" on="1"/>
        <pt x="1043" y="457" on="0"/>
        <pt x="1018" y="457" on="0"/>
        <pt x="1007" y="457" on="1"/>
        <pt x="900" y="457" on="0"/>
        <pt x="750" y="436" on="0"/>
        <pt x="655" y="396" on="0"/>
        <pt x="611" y="338" on="0"/>
      </contour>
    </TTGlyph>
    <TTGlyph name="b" xMin="40" yMin="-39" xMax="1870" yMax="1584">
      <contour>
        <pt x="311" y="244" on="1"/>
        <pt x="311" y="1330" on="1"/>
        <pt x="49" y="1554" on="1"/>
        <pt x="788" y="1584" on="1"/>
        <pt x="788" y="922" on="1"/>
        <pt x="859" y="1036" on="0"/>
        <pt x="1090" y="1146" on="0"/>
        <pt x="1236" y="1146" on="1"/>
        <pt x="1391" y="1146" on="0"/>
        <pt x="1628" y="1051" on="0"/>
        <pt x="1788" y="886" on="0"/>
        <pt x="1870" y="666" on="0"/>
        <pt x="1870" y="540" on="1"/>
        <pt x="1870" y="428" on="0"/>
        <pt x="1798" y="219" on="0"/>
        <pt x="1646" y="58" on="0"/>
        <pt x="1409" y="-39" on="0"/>
        <pt x="1243" y="-39" on="1"/>
        <pt x="1091" y="-39" on="0"/>
        <pt x="859" y="66" on="0"/>
        <pt x="788" y="177" on="1"/>
        <pt x="788" y="0" on="1"/>
        <pt x="40" y="0" on="1"/>
      </contour>
      <contour>
        <pt x="788" y="553" on="1"/>
        <pt x="788" y="463" on="0"/>
        <pt x="837" y="337" on="0"/>
        <pt x="916" y="258" on="0"/>
        <pt x="1015" y="222" on="0"/>
        <pt x="1066" y="222" on="1"/>
        <pt x="1127" y="222" on="0"/>
        <pt x="1229" y="264" on="0"/>
        <pt x="1303" y="347" on="0"/>
        <pt x="1344" y="471" on="0"/>
        <pt x="1344" y="553" on="1"/>
        <pt x="1344" y="635" on="0"/>
        <pt x="1303" y="762" on="0"/>
        <pt x="1229" y="849" on="0"/>
        <pt x="1127" y="893" on="0"/>
        <pt x="1066" y="893" on="1"/>
        <pt x="1012" y="893" on="0"/>
        <pt x="912" y="856" on="0"/>
        <pt x="835" y="775" on="0"/>
        <pt x="788" y="646" on="0"/>
      </contour>
    </TTGlyph>
    <TTGlyph name="backslash" xMin="88" yMin="-151" xMax="822" yMax="1569">
      <contour>
        <pt x="88" y="1569" on="1"/>
        <pt x="359" y="1569" on="1"/>
        <pt x="822" y="-151" on="1"/>
        <pt x="553" y="-151" on="1"/>
      </contour>
    </TTGlyph>
    <TTGlyph name="bar" xMin="230" yMin="-525" xMax="428" yMax="1758">
      <contour>
        <pt x="230" y="1758" on="1"/>
        <pt x="428" y="1758" on="1"/>
        <pt x="428" y="-525" on="1"/>
        <pt x="230" y="-525" on="1"/>
      </contour>
    </TTGlyph>
    <TTGlyph name="braceleft" xMin="180" yMin="-226" xMax="907" yMax="1660">
      <contour>
        <pt x="224" y="180" on="1"/>
        <pt x="224" y="226" on="0"/>
        <pt x="237" y="316" on="0"/>
        <pt x="247" y="359" on="1"/>
        <pt x="260" y="415" on="0"/>
        <pt x="280" y="515" on="0"/>
        <pt x="280" y="553" on="1"/>
        <pt x="280" y="597" on="0"/>
        <pt x="238" y="648" on="0"/>
        <pt x="180" y="648" on="1"/>
        <pt x="180" y="786" on="1"/>
        <pt x="238" y="786" on="0"/>
        <pt x="280" y="837" on="0"/>
        <pt x="280" y="881" on="1"/>
        <pt x="280" y="919" on="0"/>
        <pt x="260" y="1019" on="0"/>
        <pt x="247" y="1075" on="1"/>
        <pt x="237" y="1118" on="0"/>
        <pt x="224" y="1208" on="0"/>
        <pt x="224" y="1254" on="1"/>
        <pt x="224" y="1302" on="0"/>
        <pt x="245" y="1397" on="0"/>
        <pt x="299" y="1483" on="0"/>
        <pt x="390" y="1557" on="0"/>
        <pt x="531" y="1615" on="0"/>
        <pt x="727" y="1653" on="0"/>
        <pt x="858" y="1660" on="1"/>
        <pt x="907" y="1527" on="1"/>
        <pt x="817" y="1513" on="0"/>
        <pt x="702" y="1464" on="0"/>
        <pt x="635" y="1398" on="0"/>
        <pt x="610" y="1319" on="0"/>
        <pt x="610" y="1276" on="1"/>
        <pt x="610" y="1240" on="0"/>
        <pt x="623" y="1163" on="0"/>
        <pt x="631" y="1125" on="1"/>
        <pt x="641" y="1079" on="0"/>
        <pt x="657" y="989" on="0"/>
        <pt x="657" y="947" on="1"/>
        <pt x="657" y="907" on="0"/>
        <pt x="635" y="835" on="0"/>
        <pt x="578" y="775" on="0"/>
        <pt x="479" y="730" on="0"/>
        <pt x="402" y="717" on="1"/>
        <pt x="479" y="704" on="0"/>
        <pt x="578" y="659" on="0"/>
        <pt x="635" y="599" on="0"/>
        <pt x="657" y="527" on="0"/>
        <pt x="657" y="487" on="1"/>
        <pt x="657" y="445" on="0"/>
        <pt x="641" y="355" on="0"/>
        <pt x="631" y="309" on="1"/>
        <pt x="623" y="271" on="0"/>
        <pt x="610" y="194" on="0"/>
        <pt x="610" y="158" on="1"/>
        <pt x="610" y="114" on="0"/>
        <pt x="635" y="36" on="0"/>
        <pt x="702" y="-30" on="0"/>
        <pt x="817" y="-79" on="0"/>
        <pt x="907" y="-93" on="1"/>
        <pt x="858" y="-226" on="1"/>
        <pt x="727" y="-219" on="0"/>
        <pt x="531" y="-181" on="0"/>
        <pt x="390" y="-123" on="0"/>
        <pt x="299" y="-49" on="0"/>
        <pt x="245" y="37" on="0"/>
        <pt x="224" y="131" on="0"/>
      </contour>
    </TTGlyph>
    <TTGlyph name="braceright" xMin="60" yMin="-226" xMax="787" yMax="1660">
      <contour>
        <pt x="60" y="-93" on="1"/>
        <pt x="150" y="-79" on="0"/>
        <pt x="265" y="-30" on="0"/>
        <pt x="332" y="36" on="0"/>
        <pt x="357" y="114" on="0"/>
        <pt x="357" y="158" on="1"/>
        <pt x="357" y="194" on="0"/>
        <pt x="344" y="271" on="0"/>
        <pt x="336" y="309" on="1"/>
        <pt x="326" y="355" on="0"/>
        <pt x="310" y="445" on="0"/>
        <pt x="310" y="487" on="1"/>
        <pt x="310" y="527" on="0"/>
        <pt x="332" y="599" on="0"/>
        <pt x="389" y="659" on="0"/>
        <pt x="488" y="704" on="0"/>
        <pt x="565" y="717" on="1"/>
        <pt x="488" y="730" on="0"/>
        <pt x="389" y="775" on="0"/>
        <pt x="332" y="835" on="0"/>
        <pt x="310" y="907" on="0"/>
        <pt x="310" y="947" on="1"/>
        <pt x="310" y="989" on="0"/>
        <pt x="326" y="1079" on="0"/>
        <pt x="336" y="1125" on="1"/>
        <pt x="344" y="1163" on="0"/>
        <pt x="357" y="1240" on="0"/>
        <pt x="357" y="1276" on="1"/>
        <pt x="357" y="1319" on="0"/>
        <pt x="332" y="1398" on="0"/>
        <pt x="265" y="1464" on="0"/>
        <pt x="150" y="1513" on="0"/>
        <pt x="60" y="1527" on="1"/>
        <pt x="109" y="1660" on="1"/>
        <pt x="240" y="1653" on="0"/>
        <pt x="436" y="1615" on="0"/>
        <pt x="577" y="1557" on="0"/>
        <pt x="668" y="1483" on="0"/>
        <pt x="722" y="1397" on="0"/>
        <pt x="743" y="1302" on="0"/>
        <pt x="743" y="1254" on="1"/>
        <pt x="743" y="1208" on="0"/>
        <pt x="730" y="1118" on="0"/>
        <pt x="720" y="1075" on="1"/>
        <pt x="707" y="1019" on="0"/>
        <pt x="687" y="919" on="0"/>
        <pt x="687" y="881" on="1"/>
        <pt x="687" y="837" on="0"/>
        <pt x="729" y="786" on="0"/>
        <pt x="787" y="786" on="1"/>
        <pt x="787" y="648" on="1"/>
        <pt x="729" y="648" on="0"/>
        <pt x="687" y="597" on="0"/>
        <pt x="687" y="553" on="1"/>
        <pt x="687" y="515" on="0"/>
        <pt x="707" y="415" on="0"/>
        <pt x="720" y="359" on="1"/>
        <pt x="730" y="316" on="0"/>
        <pt x="743" y="226" on="0"/>
        <pt x="743" y="180" on="1"/>
        <pt x="743" y="132" on="0"/>
        <pt x="722" y="37" on="0"/>
        <pt x="668" y="-49" on="0"/>
        <pt x="577" y="-123" on="0"/>
        <pt x="436" y="-181" on="0"/>
        <pt x="240" y="-220" on="0"/>
        <pt x="109" y="-226" on="1"/>
      </contour>
    </TTGlyph>
    <TTGlyph name="bracketleft" xMin="230" yMin="-225" xMax="894" yMax="1658">
      <contour>
        <pt x="230" y="1658" on="1"/>
        <pt x="894" y="1658" on="1"/>
        <pt x="894" y="1465" on="1"/>
        <pt x="578" y="1465" on="1"/>
        <pt x="578" y="-32" on="1"/>
        <pt x="894" y="-32" on="1"/>
        <pt x="894" y="-225" on="1"/>
        <pt x="230" y="-225" on="1"/>
      </contour>
    </TTGlyph>
    <TTGlyph name="bracketright" xMin="80" yMin="-225" xMax="744" yMax="1658">
      <contour>
        <pt x="396" y="-32" on="1"/>
        <pt x="396" y="1465" on="1"/>
        <pt x="80" y="1465" on="1"/>
        <pt x="80" y="1658" on="1"/>
        <pt x="744" y="1658" on="1"/>
        <pt x="744" y="-225" on="1"/>
        <pt x="80" y="-225" on="1"/>
        <pt x="80" y="-32" on="1"/>
      </contour>
    </TTGlyph>
    <TTGlyph name="brokenbar" xMin="230" yMin="-525" xMax="428" yMax="1758">
      <contour>
        <pt x="230" y="1758" on="1"/>
        <pt x="428" y="1758" on="1"/>
        <pt x="428" y="775" on="1"/>
        <pt x="230" y="775" on="1"/>
      </contour>
      <contour>
        <pt x="428" y="458" on="1"/>
        <pt x="428" y="-525" on="1"/>
        <pt x="230" y="-525" on="1"/>
        <pt x="230" y="458" on="1"/>
      </contour>
    </TTGlyph>
    <TTGlyph name="bullet" xMin="120" yMin="445" xMax="741" yMax="1066">
      <contour>
        <pt x="430" y="445" on="1"/>
        <pt x="365" y="445" on="0"/>
        <pt x="252" y="494" on="0"/>
        <pt x="168" y="578" on="0"/>
        <pt x="120" y="691" on="0"/>
        <pt x="120" y="755" on="1"/>
        <pt x="120" y="819" on="0"/>
        <pt x="168" y="933" on="0"/>
        <pt x="252" y="1017" on="0"/>
        <pt x="365" y="1066" on="0"/>
        <pt x="430" y="1066" on="1"/>
        <pt x="494" y="1066" on="0"/>
        <pt x="608" y="1017" on="0"/>
        <pt x="692" y="933" on="0"/>
        <pt x="741" y="819" on="0"/>
        <pt x="741" y="755" on="1"/>
        <pt x="741" y="691" on="0"/>
        <pt x="692" y="578" on="0"/>
        <pt x="608" y="494" on="0"/>
        <pt x="494" y="445" on="0"/>
      </contour>
    </TTGlyph>
    <TTGlyph name="c" xMin="100" yMin="-39" xMax="1623" yMax="1154">
      <contour>
        <pt x="100" y="562" on="1"/>
        <pt x="100" y="704" on="0"/>
        <pt x="223" y="922" on="0"/>
        <pt x="439" y="1070" on="0"/>
        <pt x="733" y="1146" on="0"/>
        <pt x="904" y="1146" on="1"/>
        <pt x="1068" y="1146" on="0"/>
        <pt x="1309" y="1081" on="0"/>
        <pt x="1388" y="1033" on="1"/>
        <pt x="1597" y="1154" on="1"/>
        <pt x="1597" y="670" on="1"/>
        <pt x="1347" y="640" on="1"/>
        <pt x="1328" y="704" on="0"/>
        <pt x="1262" y="814" on="0"/>
        <pt x="1169" y="894" on="0"/>
        <pt x="1051" y="939" on="0"/>
        <pt x="981" y="939" on="1"/>
        <pt x="917" y="939" on="0"/>
        <pt x="790" y="903" on="0"/>
        <pt x="689" y="816" on="0"/>
        <pt x="626" y="671" on="0"/>
        <pt x="626" y="562" on="1"/>
        <pt x="626" y="470" on="0"/>
        <pt x="691" y="332" on="0"/>
        <pt x="798" y="239" on="0"/>
        <pt x="936" y="193" on="0"/>
        <pt x="1010" y="193" on="1"/>
        <pt x="1073" y="193" on="0"/>
        <pt x="1214" y="208" on="0"/>
        <pt x="1351" y="250" on="0"/>
        <pt x="1475" y="324" on="0"/>
        <pt x="1521" y="383" on="1"/>
        <pt x="1623" y="303" on="1"/>
        <pt x="1593" y="227" on="0"/>
        <pt x="1468" y="101" on="0"/>
        <pt x="1291" y="11" on="0"/>
        <pt x="1068" y="-39" on="0"/>
        <pt x="941" y="-39" on="1"/>
        <pt x="741" y="-39" on="0"/>
        <pt x="429" y="39" on="0"/>
        <pt x="213" y="191" on="0"/>
        <pt x="100" y="416" on="0"/>
      </contour>
    </TTGlyph>
    <TTGlyph name="caron" xMin="-42" yMin="1208" xMax="1059" yMax="1624">
      <contour>
        <pt x="-42" y="1624" on="1"/>
        <pt x="149" y="1624" on="1"/>
        <pt x="508" y="1438" on="1"/>
        <pt x="868" y="1624" on="1"/>
        <pt x="1059" y="1624" on="1"/>
        <pt x="679" y="1208" on="1"/>
        <pt x="338" y="1208" on="1"/>
      </contour>
    </TTGlyph>
    <TTGlyph name="ccedilla" xMin="100" yMin="-517" xMax="1623" yMax="1154">
      <contour>
        <pt x="627" y="-202" on="1"/>
        <pt x="663" y="-264" on="0"/>
        <pt x="775" y="-329" on="0"/>
        <pt x="860" y="-329" on="1"/>
        <pt x="881" y="-329" on="0"/>
        <pt x="918" y="-323" on="0"/>
        <pt x="947" y="-308" on="0"/>
        <pt x="963" y="-284" on="0"/>
        <pt x="963" y="-267" on="1"/>
        <pt x="963" y="-243" on="0"/>
        <pt x="935" y="-216" on="0"/>
        <pt x="889" y="-201" on="0"/>
        <pt x="830" y="-197" on="0"/>
        <pt x="799" y="-197" on="1"/>
        <pt x="819" y="-35" on="1"/>
        <pt x="648" y="-23" on="0"/>
        <pt x="380" y="65" on="0"/>
        <pt x="196" y="216" on="0"/>
        <pt x="100" y="427" on="0"/>
        <pt x="100" y="562" on="1"/>
        <pt x="100" y="696" on="0"/>
        <pt x="226" y="912" on="0"/>
        <pt x="444" y="1064" on="0"/>
        <pt x="737" y="1146" on="0"/>
        <pt x="904" y="1146" on="1"/>
        <pt x="1068" y="1146" on="0"/>
        <pt x="1309" y="1081" on="0"/>
        <pt x="1388" y="1033" on="1"/>
        <pt x="1597" y="1154" on="1"/>
        <pt x="1597" y="670" on="1"/>
        <pt x="1347" y="640" on="1"/>
        <pt x="1328" y="704" on="0"/>
        <pt x="1262" y="814" on="0"/>
        <pt x="1169" y="894" on="0"/>
        <pt x="1051" y="939" on="0"/>
        <pt x="981" y="939" on="1"/>
        <pt x="917" y="939" on="0"/>
        <pt x="790" y="903" on="0"/>
        <pt x="689" y="816" on="0"/>
        <pt x="626" y="671" on="0"/>
        <pt x="626" y="562" on="1"/>
        <pt x="626" y="470" on="0"/>
        <pt x="691" y="332" on="0"/>
        <pt x="798" y="239" on="0"/>
        <pt x="936" y="193" on="0"/>
        <pt x="1010" y="193" on="1"/>
        <pt x="1073" y="193" on="0"/>
        <pt x="1214" y="208" on="0"/>
        <pt x="1351" y="250" on="0"/>
        <pt x="1475" y="324" on="0"/>
        <pt x="1521" y="383" on="1"/>
        <pt x="1623" y="303" on="1"/>
        <pt x="1596" y="235" on="0"/>
        <pt x="1492" y="121" on="0"/>
        <pt x="1346" y="34" on="0"/>
        <pt x="1162" y="-23" on="0"/>
        <pt x="1056" y="-33" on="1"/>
        <pt x="1056" y="-111" on="1"/>
        <pt x="1117" y="-111" on="0"/>
        <pt x="1220" y="-136" on="0"/>
        <pt x="1294" y="-186" on="0"/>
        <pt x="1336" y="-260" on="0"/>
        <pt x="1336" y="-309" on="1"/>
        <pt x="1336" y="-363" on="0"/>
        <pt x="1265" y="-442" on="0"/>
        <pt x="1154" y="-493" on="0"/>
        <pt x="1015" y="-517" on="0"/>
        <pt x="948" y="-517" on="1"/>
        <pt x="872" y="-517" on="0"/>
        <pt x="728" y="-494" on="0"/>
        <pt x="604" y="-440" on="0"/>
        <pt x="505" y="-351" on="0"/>
        <pt x="474" y="-284" on="1"/>
      </contour>
    </TTGlyph>
    <TTGlyph name="cedilla" xMin="77" yMin="-497" xMax="939" yMax="91">
      <contour>
        <pt x="230" y="-182" on="1"/>
        <pt x="266" y="-244" on="0"/>
        <pt x="378" y="-309" on="0"/>
        <pt x="463" y="-309" on="1"/>
        <pt x="484" y="-309" on="0"/>
        <pt x="521" y="-303" on="0"/>
        <pt x="550" y="-288" on="0"/>
        <pt x="566" y="-264" on="0"/>
        <pt x="566" y="-247" on="1"/>
        <pt x="566" y="-223" on="0"/>
        <pt x="538" y="-196" on="0"/>
        <pt x="492" y="-181" on="0"/>
        <pt x="433" y="-177" on="0"/>
        <pt x="402" y="-177" on="1"/>
        <pt x="435" y="91" on="1"/>
        <pt x="659" y="43" on="1"/>
        <pt x="659" y="-91" on="1"/>
        <pt x="720" y="-91" on="0"/>
        <pt x="823" y="-116" on="0"/>
        <pt x="897" y="-166" on="0"/>
        <pt x="939" y="-240" on="0"/>
        <pt x="939" y="-289" on="1"/>
        <pt x="939" y="-343" on="0"/>
        <pt x="868" y="-422" on="0"/>
        <pt x="757" y="-473" on="0"/>
        <pt x="618" y="-497" on="0"/>
        <pt x="551" y="-497" on="1"/>
        <pt x="475" y="-497" on="0"/>
        <pt x="331" y="-474" on="0"/>
        <pt x="207" y="-420" on="0"/>
        <pt x="108" y="-331" on="0"/>
        <pt x="77" y="-264" on="1"/>
      </contour>
    </TTGlyph>
    <TTGlyph name="cent" xMin="100" yMin="-235" xMax="1623" yMax="1528">
      <contour>
        <pt x="100" y="660" on="1"/>
        <pt x="100" y="788" on="0"/>
        <pt x="215" y="996" on="0"/>
        <pt x="414" y="1147" on="0"/>
        <pt x="684" y="1234" on="0"/>
        <pt x="840" y="1242" on="1"/>
        <pt x="861" y="1528" on="1"/>
        <pt x="1081" y="1528" on="1"/>
        <pt x="1060" y="1235" on="1"/>
        <pt x="1166" y="1222" on="0"/>
        <pt x="1329" y="1167" on="0"/>
        <pt x="1388" y="1131" on="1"/>
        <pt x="1597" y="1252" on="1"/>
        <pt x="1597" y="768" on="1"/>
        <pt x="1347" y="738" on="1"/>
        <pt x="1328" y="802" on="0"/>
        <pt x="1262" y="912" on="0"/>
        <pt x="1169" y="992" on="0"/>
        <pt x="1051" y="1037" on="0"/>
        <pt x="981" y="1037" on="1"/>
        <pt x="917" y="1037" on="0"/>
        <pt x="790" y="1001" on="0"/>
        <pt x="689" y="914" on="0"/>
        <pt x="626" y="769" on="0"/>
        <pt x="626" y="660" on="1"/>
        <pt x="626" y="568" on="0"/>
        <pt x="691" y="430" on="0"/>
        <pt x="798" y="337" on="0"/>
        <pt x="936" y="291" on="0"/>
        <pt x="1010" y="291" on="1"/>
        <pt x="1073" y="291" on="0"/>
        <pt x="1214" y="306" on="0"/>
        <pt x="1351" y="348" on="0"/>
        <pt x="1475" y="422" on="0"/>
        <pt x="1521" y="481" on="1"/>
        <pt x="1623" y="401" on="1"/>
        <pt x="1594" y="327" on="0"/>
        <pt x="1475" y="205" on="0"/>
        <pt x="1307" y="115" on="0"/>
        <pt x="1096" y="62" on="0"/>
        <pt x="975" y="59" on="1"/>
        <pt x="954" y="-235" on="1"/>
        <pt x="728" y="-235" on="1"/>
        <pt x="754" y="69" on="1"/>
        <pt x="598" y="86" on="0"/>
        <pt x="354" y="179" on="0"/>
        <pt x="187" y="328" on="0"/>
        <pt x="100" y="532" on="0"/>
      </contour>
    </TTGlyph>
    <TTGlyph name="circumflex" xMin="-42" yMin="1208" xMax="1059" yMax="1624">
      <contour>
        <pt x="338" y="1624" on="1"/>
        <pt x="679" y="1624" on="1"/>
        <pt x="1059" y="1208" on="1"/>
        <pt x="868" y="1208" on="1"/>
        <pt x="508" y="1393" on="1"/>
        <pt x="149" y="1208" on="1"/>
        <pt x="-42" y="1208" on="1"/>
      </contour>
    </TTGlyph>
    <TTGlyph name="circumflex.case" xMin="-128" yMin="1604" xMax="1144" yMax="1920">
      <contour>
        <pt x="292" y="1920" on="1"/>
        <pt x="733" y="1920" on="1"/>
        <pt x="1144" y="1604" on="1"/>
        <pt x="843" y="1604" on="1"/>
        <pt x="512" y="1720" on="1"/>
        <pt x="173" y="1604" on="1"/>
        <pt x="-128" y="1604" on="1"/>
      </contour>
    </TTGlyph>
    <TTGlyph name="colon" xMin="120" yMin="-39" xMax="619" yMax="1146">
      <contour>
        <pt x="369" y="647" on="1"/>
        <pt x="317" y="647" on="0"/>
        <pt x="226" y="686" on="0"/>
        <pt x="159" y="753" on="0"/>
        <pt x="120" y="844" on="0"/>
        <pt x="120" y="896" on="1"/>
        <pt x="120" y="948" on="0"/>
        <pt x="159" y="1039" on="0"/>
        <pt x="226" y="1107" on="0"/>
        <pt x="317" y="1146" on="0"/>
        <pt x="369" y="1146" on="1"/>
        <pt x="421" y="1146" on="0"/>
        <pt x="512" y="1107" on="0"/>
        <pt x="580" y="1039" on="0"/>
        <pt x="619" y="948" on="0"/>
        <pt x="619" y="896" on="1"/>
        <pt x="619" y="844" on="0"/>
        <pt x="580" y="753" on="0"/>
        <pt x="512" y="686" on="0"/>
        <pt x="421" y="647" on="0"/>
      </contour>
      <contour>
        <pt x="120" y="210" on="1"/>
        <pt x="120" y="262" on="0"/>
        <pt x="159" y="353" on="0"/>
        <pt x="226" y="421" on="0"/>
        <pt x="317" y="460" on="0"/>
        <pt x="369" y="460" on="1"/>
        <pt x="421" y="460" on="0"/>
        <pt x="512" y="421" on="0"/>
        <pt x="580" y="353" on="0"/>
        <pt x="619" y="262" on="0"/>
        <pt x="619" y="210" on="1"/>
        <pt x="619" y="158" on="0"/>
        <pt x="580" y="67" on="0"/>
        <pt x="512" y="0" on="0"/>
        <pt x="421" y="-39" on="0"/>
        <pt x="369" y="-39" on="1"/>
        <pt x="317" y="-39" on="0"/>
        <pt x="226" y="0" on="0"/>
        <pt x="159" y="67" on="0"/>
        <pt x="120" y="158" on="0"/>
      </contour>
    </TTGlyph>
    <TTGlyph name="comma" xMin="120" yMin="-337" xMax="628" yMax="460">
      <contour>
        <pt x="120" y="203" on="1"/>
        <pt x="121" y="258" on="0"/>
        <pt x="156" y="352" on="0"/>
        <pt x="221" y="421" on="0"/>
        <pt x="313" y="460" on="0"/>
        <pt x="370" y="460" on="1"/>
        <pt x="427" y="460" on="0"/>
        <pt x="521" y="420" on="0"/>
        <pt x="590" y="346" on="0"/>
        <pt x="628" y="243" on="0"/>
        <pt x="628" y="180" on="1"/>
        <pt x="628" y="20" on="0"/>
        <pt x="482" y="-241" on="0"/>
        <pt x="339" y="-337" on="1"/>
        <pt x="235" y="-278" on="1"/>
        <pt x="286" y="-217" on="0"/>
        <pt x="353" y="-92" on="0"/>
        <pt x="371" y="-31" on="1"/>
        <pt x="366" y="-32" on="0"/>
        <pt x="351" y="-32" on="1"/>
        <pt x="303" y="-32" on="0"/>
        <pt x="218" y="3" on="0"/>
        <pt x="156" y="66" on="0"/>
        <pt x="120" y="152" on="0"/>
      </contour>
    </TTGlyph>
    <TTGlyph name="commaaccent" xMin="325" yMin="-640" xMax="774" yMax="-101">
      <contour>
        <pt x="325" y="-262" on="1"/>
        <pt x="325" y="-179" on="0"/>
        <pt x="442" y="-101" on="0"/>
        <pt x="547" y="-101" on="1"/>
        <pt x="590" y="-101" on="0"/>
        <pt x="672" y="-119" on="0"/>
        <pt x="735" y="-161" on="0"/>
        <pt x="774" y="-230" on="0"/>
        <pt x="774" y="-281" on="1"/>
        <pt x="774" y="-348" on="0"/>
        <pt x="732" y="-456" on="0"/>
        <pt x="659" y="-544" on="0"/>
        <pt x="561" y="-613" on="0"/>
        <pt x="505" y="-640" on="1"/>
        <pt x="438" y="-577" on="1"/>
        <pt x="488" y="-542" on="0"/>
        <pt x="547" y="-472" on="0"/>
        <pt x="567" y="-438" on="1"/>
        <pt x="557" y="-441" on="0"/>
        <pt x="530" y="-443" on="0"/>
        <pt x="522" y="-443" on="1"/>
        <pt x="481" y="-443" on="0"/>
        <pt x="410" y="-419" on="0"/>
        <pt x="356" y="-373" on="0"/>
        <pt x="325" y="-306" on="0"/>
      </contour>
    </TTGlyph>
    <TTGlyph name="copyright" xMin="56" yMin="-40" xMax="1697" yMax="1474">
      <contour>
        <pt x="56" y="717" on="1"/>
        <pt x="56" y="821" on="0"/>
        <pt x="115" y="1015" on="0"/>
        <pt x="221" y="1183" on="0"/>
        <pt x="371" y="1321" on="0"/>
        <pt x="553" y="1420" on="0"/>
        <pt x="763" y="1474" on="0"/>
        <pt x="876" y="1474" on="1"/>
        <pt x="989" y="1474" on="0"/>
        <pt x="1199" y="1420" on="0"/>
        <pt x="1381" y="1321" on="0"/>
        <pt x="1531" y="1183" on="0"/>
        <pt x="1638" y="1015" on="0"/>
        <pt x="1697" y="821" on="0"/>
        <pt x="1697" y="717" on="1"/>
        <pt x="1697" y="613" on="0"/>
        <pt x="1638" y="419" on="0"/>
        <pt x="1531" y="251" on="0"/>
        <pt x="1381" y="113" on="0"/>
        <pt x="1199" y="14" on="0"/>
        <pt x="989" y="-40" on="0"/>
        <pt x="876" y="-40" on="1"/>
        <pt x="763" y="-40" on="0"/>
        <pt x="553" y="14" on="0"/>
        <pt x="371" y="113" on="0"/>
        <pt x="221" y="251" on="0"/>
        <pt x="115" y="419" on="0"/>
        <pt x="56" y="612" on="0"/>
      </contour>
      <contour>
        <pt x="228" y="713" on="1"/>
        <pt x="228" y="579" on="0"/>
        <pt x="330" y="343" on="0"/>
        <pt x="506" y="167" on="0"/>
        <pt x="742" y="65" on="0"/>
        <pt x="876" y="65" on="1"/>
        <pt x="1010" y="65" on="0"/>
        <pt x="1246" y="167" on="0"/>
        <pt x="1422" y="343" on="0"/>
        <pt x="1524" y="579" on="0"/>
        <pt x="1524" y="713" on="1"/>
        <pt x="1524" y="802" on="0"/>
        <pt x="1478" y="968" on="0"/>
        <pt x="1393" y="1112" on="0"/>
        <pt x="1275" y="1230" on="0"/>
        <pt x="1131" y="1315" on="0"/>
        <pt x="965" y="1361" on="0"/>
        <pt x="876" y="1361" on="1"/>
        <pt x="787" y="1361" on="0"/>
        <pt x="621" y="1315" on="0"/>
        <pt x="477" y="1230" on="0"/>
        <pt x="359" y="1112" on="0"/>
        <pt x="274" y="968" on="0"/>
        <pt x="228" y="802" on="0"/>
      </contour>
      <contour>
        <pt x="374" y="699" on="1"/>
        <pt x="374" y="783" on="0"/>
        <pt x="419" y="914" on="0"/>
        <pt x="496" y="1013" on="0"/>
        <pt x="600" y="1081" on="0"/>
        <pt x="717" y="1124" on="0"/>
        <pt x="842" y="1143" on="0"/>
        <pt x="903" y="1143" on="1"/>
        <pt x="1001" y="1143" on="0"/>
        <pt x="1152" y="1095" on="0"/>
        <pt x="1202" y="1065" on="1"/>
        <pt x="1231" y="1103" on="1"/>
        <pt x="1342" y="1103" on="1"/>
        <pt x="1342" y="831" on="1"/>
        <pt x="1172" y="802" on="1"/>
        <pt x="1160" y="848" on="0"/>
        <pt x="1120" y="929" on="0"/>
        <pt x="1062" y="989" on="0"/>
        <pt x="982" y="1023" on="0"/>
        <pt x="931" y="1023" on="1"/>
        <pt x="865" y="1023" on="0"/>
        <pt x="770" y="980" on="0"/>
        <pt x="709" y="900" on="0"/>
        <pt x="680" y="784" on="0"/>
        <pt x="680" y="712" on="1"/>
        <pt x="680" y="637" on="0"/>
        <pt x="719" y="526" on="0"/>
        <pt x="785" y="454" on="0"/>
        <pt x="869" y="418" on="0"/>
        <pt x="914" y="418" on="1"/>
        <pt x="959" y="418" on="0"/>
        <pt x="1045" y="439" on="0"/>
        <pt x="1112" y="487" on="0"/>
        <pt x="1157" y="563" on="0"/>
        <pt x="1162" y="619" on="1"/>
        <pt x="1342" y="619" on="1"/>
        <pt x="1340" y="537" on="0"/>
        <pt x="1264" y="413" on="0"/>
        <pt x="1136" y="329" on="0"/>
        <pt x="967" y="286" on="0"/>
        <pt x="872" y="286" on="1"/>
        <pt x="813" y="286" on="0"/>
        <pt x="694" y="306" on="0"/>
        <pt x="583" y="349" on="0"/>
        <pt x="487" y="414" on="0"/>
        <pt x="415" y="506" on="0"/>
        <pt x="374" y="625" on="0"/>
      </contour>
    </TTGlyph>
    <TTGlyph name="currency" xMin="65" yMin="-2" xMax="1508" yMax="1433">
      <contour>
        <pt x="271" y="390" on="1"/>
        <pt x="226" y="460" on="0"/>
        <pt x="178" y="623" on="0"/>
        <pt x="178" y="714" on="1"/>
        <pt x="178" y="805" on="0"/>
        <pt x="227" y="968" on="0"/>
        <pt x="272" y="1039" on="1"/>
        <pt x="65" y="1245" on="1"/>
        <pt x="255" y="1433" on="1"/>
        <pt x="462" y="1228" on="1"/>
        <pt x="532" y="1272" on="0"/>
        <pt x="694" y="1320" on="0"/>
        <pt x="784" y="1320" on="1"/>
        <pt x="874" y="1320" on="0"/>
        <pt x="1037" y="1270" on="0"/>
        <pt x="1108" y="1225" on="1"/>
        <pt x="1318" y="1433" on="1"/>
        <pt x="1508" y="1245" on="1"/>
        <pt x="1297" y="1036" on="1"/>
        <pt x="1342" y="966" on="0"/>
        <pt x="1390" y="803" on="0"/>
        <pt x="1390" y="714" on="1"/>
        <pt x="1390" y="625" on="0"/>
        <pt x="1342" y="463" on="0"/>
        <pt x="1298" y="393" on="1"/>
        <pt x="1508" y="186" on="1"/>
        <pt x="1318" y="-2" on="1"/>
        <pt x="1110" y="203" on="1"/>
        <pt x="1039" y="158" on="0"/>
        <pt x="875" y="108" on="0"/>
        <pt x="784" y="108" on="1"/>
        <pt x="693" y="108" on="0"/>
        <pt x="530" y="156" on="0"/>
        <pt x="460" y="201" on="1"/>
        <pt x="255" y="-2" on="1"/>
        <pt x="65" y="186" on="1"/>
      </contour>
      <contour>
        <pt x="406" y="714" on="1"/>
        <pt x="406" y="636" on="0"/>
        <pt x="465" y="498" on="0"/>
        <pt x="567" y="396" on="0"/>
        <pt x="705" y="337" on="0"/>
        <pt x="784" y="337" on="1"/>
        <pt x="862" y="337" on="0"/>
        <pt x="1000" y="396" on="0"/>
        <pt x="1102" y="498" on="0"/>
        <pt x="1161" y="636" on="0"/>
        <pt x="1161" y="714" on="1"/>
        <pt x="1161" y="792" on="0"/>
        <pt x="1102" y="930" on="0"/>
        <pt x="1000" y="1032" on="0"/>
        <pt x="862" y="1091" on="0"/>
        <pt x="784" y="1091" on="1"/>
        <pt x="705" y="1091" on="0"/>
        <pt x="567" y="1032" on="0"/>
        <pt x="465" y="930" on="0"/>
        <pt x="406" y="792" on="0"/>
      </contour>
    </TTGlyph>
    <TTGlyph name="d" xMin="100" yMin="-39" xMax="1930" yMax="1584">
      <contour>
        <pt x="100" y="540" on="1"/>
        <pt x="100" y="670" on="0"/>
        <pt x="187" y="891" on="0"/>
        <pt x="348" y="1053" on="0"/>
        <pt x="574" y="1146" on="0"/>
        <pt x="714" y="1146" on="1"/>
        <pt x="786" y="1146" on="0"/>
        <pt x="922" y="1121" on="0"/>
        <pt x="1043" y="1068" on="0"/>
        <pt x="1144" y="984" on="0"/>
        <pt x="1182" y="924" on="1"/>
        <pt x="1182" y="1330" on="1"/>
        <pt x="920" y="1554" on="1"/>
        <pt x="1659" y="1584" on="1"/>
        <pt x="1659" y="244" on="1"/>
        <pt x="1930" y="0" on="1"/>
        <pt x="1182" y="0" on="1"/>
        <pt x="1182" y="183" on="1"/>
        <pt x="1111" y="70" on="0"/>
        <pt x="884" y="-39" on="0"/>
        <pt x="744" y="-39" on="1"/>
        <pt x="574" y="-39" on="0"/>
        <pt x="330" y="55" on="0"/>
        <pt x="174" y="214" on="0"/>
        <pt x="100" y="424" on="0"/>
      </contour>
      <contour>
        <pt x="626" y="553" on="1"/>
        <pt x="626" y="471" on="0"/>
        <pt x="667" y="347" on="0"/>
        <pt x="741" y="264" on="0"/>
        <pt x="843" y="222" on="0"/>
        <pt x="904" y="222" on="1"/>
        <pt x="955" y="222" on="0"/>
        <pt x="1054" y="258" on="0"/>
        <pt x="1133" y="337" on="0"/>
        <pt x="1182" y="463" on="0"/>
        <pt x="1182" y="553" on="1"/>
        <pt x="1182" y="646" on="0"/>
        <pt x="1135" y="775" on="0"/>
        <pt x="1058" y="856" on="0"/>
        <pt x="958" y="893" on="0"/>
        <pt x="904" y="893" on="1"/>
        <pt x="843" y="893" on="0"/>
        <pt x="741" y="849" on="0"/>
        <pt x="667" y="762" on="0"/>
        <pt x="626" y="635" on="0"/>
      </contour>
    </TTGlyph>
    <TTGlyph name="degree" xMin="63" yMin="981" xMax="877" yMax="1795">
      <contour>
        <pt x="469" y="981" on="1"/>
        <pt x="385" y="981" on="0"/>
        <pt x="237" y="1045" on="0"/>
        <pt x="127" y="1155" on="0"/>
        <pt x="63" y="1303" on="0"/>
        <pt x="63" y="1387" on="1"/>
        <pt x="63" y="1471" on="0"/>
        <pt x="127" y="1620" on="0"/>
        <pt x="237" y="1731" on="0"/>
        <pt x="385" y="1795" on="0"/>
        <pt x="469" y="1795" on="1"/>
        <pt x="553" y="1795" on="0"/>
        <pt x="702" y="1731" on="0"/>
        <pt x="813" y="1620" on="0"/>
        <pt x="877" y="1471" on="0"/>
        <pt x="877" y="1387" on="1"/>
        <pt x="877" y="1303" on="0"/>
        <pt x="813" y="1155" on="0"/>
        <pt x="702" y="1045" on="0"/>
        <pt x="553" y="981" on="0"/>
      </contour>
      <contour>
        <pt x="469" y="1172" on="1"/>
        <pt x="514" y="1172" on="0"/>
        <pt x="593" y="1206" on="0"/>
        <pt x="652" y="1264" on="0"/>
        <pt x="686" y="1343" on="0"/>
        <pt x="686" y="1387" on="1"/>
        <pt x="686" y="1432" on="0"/>
        <pt x="652" y="1511" on="0"/>
        <pt x="593" y="1570" on="0"/>
        <pt x="514" y="1604" on="0"/>
        <pt x="469" y="1604" on="1"/>
        <pt x="425" y="1604" on="0"/>
        <pt x="346" y="1570" on="0"/>
        <pt x="288" y="1511" on="0"/>
        <pt x="254" y="1432" on="0"/>
        <pt x="254" y="1387" on="1"/>
        <pt x="254" y="1343" on="0"/>
        <pt x="288" y="1264" on="0"/>
        <pt x="346" y="1206" on="0"/>
        <pt x="425" y="1172" on="0"/>
      </contour>
    </TTGlyph>
    <TTGlyph name="dieresis" xMin="2" yMin="1224" xMax="1014" yMax="1619">
      <contour>
        <pt x="810" y="1224" on="1"/>
        <pt x="768" y="1224" on="0"/>
        <pt x="694" y="1254" on="0"/>
        <pt x="640" y="1307" on="0"/>
        <pt x="608" y="1379" on="0"/>
        <pt x="608" y="1421" on="1"/>
        <pt x="608" y="1463" on="0"/>
        <pt x="640" y="1536" on="0"/>
        <pt x="694" y="1589" on="0"/>
        <pt x="768" y="1619" on="0"/>
        <pt x="810" y="1619" on="1"/>
        <pt x="852" y="1619" on="0"/>
        <pt x="927" y="1589" on="0"/>
        <pt x="982" y="1536" on="0"/>
        <pt x="1014" y="1463" on="0"/>
        <pt x="1014" y="1421" on="1"/>
        <pt x="1014" y="1379" on="0"/>
        <pt x="982" y="1307" on="0"/>
        <pt x="927" y="1254" on="0"/>
        <pt x="852" y="1224" on="0"/>
      </contour>
      <contour>
        <pt x="204" y="1224" on="1"/>
        <pt x="162" y="1224" on="0"/>
        <pt x="88" y="1254" on="0"/>
        <pt x="34" y="1307" on="0"/>
        <pt x="2" y="1379" on="0"/>
        <pt x="2" y="1421" on="1"/>
        <pt x="2" y="1463" on="0"/>
        <pt x="34" y="1536" on="0"/>
        <pt x="88" y="1589" on="0"/>
        <pt x="162" y="1619" on="0"/>
        <pt x="204" y="1619" on="1"/>
        <pt x="246" y="1619" on="0"/>
        <pt x="321" y="1589" on="0"/>
        <pt x="376" y="1536" on="0"/>
        <pt x="408" y="1463" on="0"/>
        <pt x="408" y="1421" on="1"/>
        <pt x="408" y="1379" on="0"/>
        <pt x="376" y="1307" on="0"/>
        <pt x="321" y="1254" on="0"/>
        <pt x="246" y="1224" on="0"/>
      </contour>
    </TTGlyph>
    <TTGlyph name="dieresis.case" xMin="2" yMin="1545" xMax="1014" yMax="1920">
      <contour>
        <pt x="810" y="1545" on="1"/>
        <pt x="768" y="1545" on="0"/>
        <pt x="694" y="1572" on="0"/>
        <pt x="640" y="1621" on="0"/>
        <pt x="608" y="1690" on="0"/>
        <pt x="608" y="1732" on="1"/>
        <pt x="608" y="1774" on="0"/>
        <pt x="640" y="1844" on="0"/>
        <pt x="694" y="1893" on="0"/>
        <pt x="768" y="1920" on="0"/>
        <pt x="810" y="1920" on="1"/>
        <pt x="852" y="1920" on="0"/>
        <pt x="927" y="1893" on="0"/>
        <pt x="982" y="1844" on="0"/>
        <pt x="1014" y="1774" on="0"/>
        <pt x="1014" y="1732" on="1"/>
        <pt x="1014" y="1690" on="0"/>
        <pt x="982" y="1621" on="0"/>
        <pt x="927" y="1572" on="0"/>
        <pt x="852" y="1545" on="0"/>
      </contour>
      <contour>
        <pt x="204" y="1545" on="1"/>
        <pt x="162" y="1545" on="0"/>
        <pt x="88" y="1572" on="0"/>
        <pt x="34" y="1621" on="0"/>
        <pt x="2" y="1690" on="0"/>
        <pt x="2" y="1732" on="1"/>
        <pt x="2" y="1774" on="0"/>
        <pt x="34" y="1844" on="0"/>
        <pt x="88" y="1893" on="0"/>
        <pt x="162" y="1920" on="0"/>
        <pt x="204" y="1920" on="1"/>
        <pt x="246" y="1920" on="0"/>
        <pt x="321" y="1893" on="0"/>
        <pt x="376" y="1844" on="0"/>
        <pt x="408" y="1774" on="0"/>
        <pt x="408" y="1732" on="1"/>
        <pt x="408" y="1690" on="0"/>
        <pt x="376" y="1621" on="0"/>
        <pt x="321" y="1572" on="0"/>
        <pt x="246" y="1545" on="0"/>
      </contour>
    </TTGlyph>
    <TTGlyph name="divide" xMin="143" yMin="19" xMax="1151" yMax="1301">
      <contour>
        <pt x="660" y="891" on="1"/>
        <pt x="618" y="891" on="0"/>
        <pt x="543" y="923" on="0"/>
        <pt x="487" y="978" on="0"/>
        <pt x="455" y="1053" on="0"/>
        <pt x="455" y="1096" on="1"/>
        <pt x="455" y="1138" on="0"/>
        <pt x="487" y="1213" on="0"/>
        <pt x="543" y="1269" on="0"/>
        <pt x="618" y="1301" on="0"/>
        <pt x="660" y="1301" on="1"/>
        <pt x="702" y="1301" on="0"/>
        <pt x="777" y="1269" on="0"/>
        <pt x="833" y="1213" on="0"/>
        <pt x="866" y="1138" on="0"/>
        <pt x="866" y="1096" on="1"/>
        <pt x="866" y="1053" on="0"/>
        <pt x="833" y="978" on="0"/>
        <pt x="777" y="923" on="0"/>
        <pt x="702" y="891" on="0"/>
      </contour>
      <contour>
        <pt x="143" y="781" on="1"/>
        <pt x="1151" y="781" on="1"/>
        <pt x="1151" y="539" on="1"/>
        <pt x="143" y="539" on="1"/>
      </contour>
      <contour>
        <pt x="455" y="223" on="1"/>
        <pt x="455" y="266" on="0"/>
        <pt x="487" y="341" on="0"/>
        <pt x="543" y="397" on="0"/>
        <pt x="618" y="429" on="0"/>
        <pt x="660" y="429" on="1"/>
        <pt x="702" y="429" on="0"/>
        <pt x="777" y="397" on="0"/>
        <pt x="833" y="341" on="0"/>
        <pt x="866" y="266" on="0"/>
        <pt x="866" y="223" on="1"/>
        <pt x="866" y="181" on="0"/>
        <pt x="833" y="106" on="0"/>
        <pt x="777" y="51" on="0"/>
        <pt x="702" y="19" on="0"/>
        <pt x="660" y="19" on="1"/>
        <pt x="618" y="19" on="0"/>
        <pt x="543" y="51" on="0"/>
        <pt x="487" y="106" on="0"/>
        <pt x="455" y="181" on="0"/>
      </contour>
    </TTGlyph>
    <TTGlyph name="dollar" xMin="144" yMin="-285" xMax="1824" yMax="1710">
      <contour>
        <pt x="165" y="489" on="1"/>
        <pt x="262" y="425" on="0"/>
        <pt x="476" y="314" on="0"/>
        <pt x="705" y="232" on="0"/>
        <pt x="946" y="185" on="0"/>
        <pt x="1071" y="185" on="1"/>
        <pt x="1119" y="185" on="0"/>
        <pt x="1208" y="197" on="0"/>
        <pt x="1275" y="224" on="0"/>
        <pt x="1316" y="269" on="0"/>
        <pt x="1316" y="301" on="1"/>
        <pt x="1316" y="330" on="0"/>
        <pt x="1282" y="389" on="0"/>
        <pt x="1185" y="443" on="0"/>
        <pt x="1011" y="490" on="0"/>
        <pt x="872" y="508" on="1"/>
        <pt x="686" y="532" on="0"/>
        <pt x="412" y="608" on="0"/>
        <pt x="232" y="726" on="0"/>
        <pt x="144" y="892" on="0"/>
        <pt x="144" y="1006" on="1"/>
        <pt x="144" y="1115" on="0"/>
        <pt x="243" y="1288" on="0"/>
        <pt x="429" y="1408" on="0"/>
        <pt x="695" y="1472" on="0"/>
        <pt x="862" y="1472" on="1"/>
        <pt x="879" y="1472" on="0"/>
        <pt x="923" y="1470" on="0"/>
        <pt x="936" y="1468" on="1"/>
        <pt x="958" y="1710" on="1"/>
        <pt x="1178" y="1710" on="1"/>
        <pt x="1153" y="1438" on="1"/>
        <pt x="1219" y="1426" on="0"/>
        <pt x="1343" y="1394" on="0"/>
        <pt x="1394" y="1377" on="1"/>
        <pt x="1590" y="1485" on="1"/>
        <pt x="1727" y="1485" on="1"/>
        <pt x="1727" y="1005" on="1"/>
        <pt x="1620" y="1068" on="0"/>
        <pt x="1403" y="1164" on="0"/>
        <pt x="1190" y="1229" on="0"/>
        <pt x="987" y="1262" on="0"/>
        <pt x="895" y="1262" on="1"/>
        <pt x="835" y="1262" on="0"/>
        <pt x="738" y="1244" on="0"/>
        <pt x="671" y="1214" on="0"/>
        <pt x="635" y="1173" on="0"/>
        <pt x="635" y="1150" on="1"/>
        <pt x="635" y="1117" on="0"/>
        <pt x="671" y="1064" on="0"/>
        <pt x="775" y="1018" on="0"/>
        <pt x="963" y="975" on="0"/>
        <pt x="1115" y="950" on="1"/>
        <pt x="1216" y="933" on="0"/>
        <pt x="1400" y="895" on="0"/>
        <pt x="1558" y="842" on="0"/>
        <pt x="1685" y="768" on="0"/>
        <pt x="1775" y="664" on="0"/>
        <pt x="1824" y="524" on="0"/>
        <pt x="1824" y="431" on="1"/>
        <pt x="1824" y="307" on="0"/>
        <pt x="1704" y="129" on="0"/>
        <pt x="1500" y="15" on="0"/>
        <pt x="1229" y="-39" on="0"/>
        <pt x="1079" y="-39" on="1"/>
        <pt x="1065" y="-39" on="0"/>
        <pt x="1036" y="-39" on="0"/>
        <pt x="1018" y="-37" on="1"/>
        <pt x="996" y="-285" on="1"/>
        <pt x="770" y="-285" on="1"/>
        <pt x="799" y="-9" on="1"/>
        <pt x="727" y="6" on="0"/>
        <pt x="588" y="53" on="0"/>
        <pt x="522" y="86" on="1"/>
        <pt x="362" y="-14" on="1"/>
        <pt x="165" y="-14" on="1"/>
      </contour>
    </TTGlyph>
    <TTGlyph name="dotlessi" xMin="40" yMin="0" xMax="1049" yMax="1107">
      <contour>
        <pt x="311" y="244" on="1"/>
        <pt x="311" y="853" on="1"/>
        <pt x="49" y="1077" on="1"/>
        <pt x="778" y="1107" on="1"/>
        <pt x="778" y="244" on="1"/>
        <pt x="1049" y="0" on="1"/>
        <pt x="40" y="0" on="1"/>
      </contour>
    </TTGlyph>
    <TTGlyph name="e" xMin="100" yMin="-39" xMax="1615" yMax="1146">
      <contour>
        <pt x="100" y="537" on="1"/>
        <pt x="100" y="659" on="0"/>
        <pt x="171" y="845" on="0"/>
        <pt x="292" y="980" on="0"/>
        <pt x="453" y="1070" on="0"/>
        <pt x="635" y="1124" on="0"/>
        <pt x="828" y="1146" on="0"/>
        <pt x="919" y="1146" on="1"/>
        <pt x="1064" y="1146" on="0"/>
        <pt x="1315" y="1082" on="0"/>
        <pt x="1499" y="940" on="0"/>
        <pt x="1604" y="709" on="0"/>
        <pt x="1604" y="543" on="1"/>
        <pt x="627" y="543" on="1"/>
        <pt x="631" y="439" on="0"/>
        <pt x="694" y="304" on="0"/>
        <pt x="794" y="225" on="0"/>
        <pt x="922" y="193" on="0"/>
        <pt x="990" y="193" on="1"/>
        <pt x="1051" y="193" on="0"/>
        <pt x="1193" y="207" on="0"/>
        <pt x="1335" y="246" on="0"/>
        <pt x="1465" y="314" on="0"/>
        <pt x="1513" y="369" on="1"/>
        <pt x="1615" y="289" on="1"/>
        <pt x="1590" y="228" on="0"/>
        <pt x="1500" y="132" on="0"/>
        <pt x="1384" y="59" on="0"/>
        <pt x="1249" y="8" on="0"/>
        <pt x="1107" y="-24" on="0"/>
        <pt x="965" y="-39" on="0"/>
        <pt x="900" y="-39" on="1"/>
        <pt x="717" y="-39" on="0"/>
        <pt x="422" y="37" on="0"/>
        <pt x="213" y="184" on="0"/>
        <pt x="100" y="399" on="0"/>
      </contour>
      <contour>
        <pt x="1120" y="699" on="1"/>
        <pt x="1120" y="773" on="0"/>
        <pt x="1093" y="874" on="0"/>
        <pt x="1039" y="936" on="0"/>
        <pt x="958" y="963" on="0"/>
        <pt x="904" y="963" on="1"/>
        <pt x="790" y="963" on="0"/>
        <pt x="656" y="825" on="0"/>
        <pt x="635" y="699" on="1"/>
      </contour>
    </TTGlyph>
    <TTGlyph name="eacute" xMin="100" yMin="-39" xMax="1615" yMax="1663">
      <contour>
        <pt x="1021" y="1663" on="1"/>
        <pt x="1522" y="1663" on="1"/>
        <pt x="922" y="1247" on="1"/>
        <pt x="711" y="1247" on="1"/>
      </contour>
      <contour>
        <pt x="100" y="537" on="1"/>
        <pt x="100" y="659" on="0"/>
        <pt x="171" y="845" on="0"/>
        <pt x="292" y="980" on="0"/>
        <pt x="453" y="1070" on="0"/>
        <pt x="635" y="1124" on="0"/>
        <pt x="828" y="1146" on="0"/>
        <pt x="919" y="1146" on="1"/>
        <pt x="1064" y="1146" on="0"/>
        <pt x="1315" y="1082" on="0"/>
        <pt x="1499" y="940" on="0"/>
        <pt x="1604" y="709" on="0"/>
        <pt x="1604" y="543" on="1"/>
        <pt x="627" y="543" on="1"/>
        <pt x="631" y="439" on="0"/>
        <pt x="694" y="304" on="0"/>
        <pt x="794" y="225" on="0"/>
        <pt x="922" y="193" on="0"/>
        <pt x="990" y="193" on="1"/>
        <pt x="1051" y="193" on="0"/>
        <pt x="1193" y="207" on="0"/>
        <pt x="1335" y="246" on="0"/>
        <pt x="1465" y="314" on="0"/>
        <pt x="1513" y="369" on="1"/>
        <pt x="1615" y="289" on="1"/>
        <pt x="1590" y="228" on="0"/>
        <pt x="1500" y="132" on="0"/>
        <pt x="1384" y="59" on="0"/>
        <pt x="1249" y="8" on="0"/>
        <pt x="1107" y="-24" on="0"/>
        <pt x="965" y="-39" on="0"/>
        <pt x="900" y="-39" on="1"/>
        <pt x="717" y="-39" on="0"/>
        <pt x="422" y="37" on="0"/>
        <pt x="213" y="184" on="0"/>
        <pt x="100" y="399" on="0"/>
      </contour>
      <contour>
        <pt x="1120" y="699" on="1"/>
        <pt x="1120" y="773" on="0"/>
        <pt x="1093" y="874" on="0"/>
        <pt x="1039" y="936" on="0"/>
        <pt x="958" y="963" on="0"/>
        <pt x="904" y="963" on="1"/>
        <pt x="790" y="963" on="0"/>
        <pt x="656" y="825" on="0"/>
        <pt x="635" y="699" on="1"/>
      </contour>
    </TTGlyph>
    <TTGlyph name="ecircumflex" xMin="100" yMin="-39" xMax="1615" yMax="1663">
      <contour>
        <pt x="749" y="1663" on="1"/>
        <pt x="1090" y="1663" on="1"/>
        <pt x="1470" y="1247" on="1"/>
        <pt x="1279" y="1247" on="1"/>
        <pt x="919" y="1432" on="1"/>
        <pt x="560" y="1247" on="1"/>
        <pt x="369" y="1247" on="1"/>
      </contour>
      <contour>
        <pt x="100" y="537" on="1"/>
        <pt x="100" y="659" on="0"/>
        <pt x="171" y="845" on="0"/>
        <pt x="292" y="980" on="0"/>
        <pt x="453" y="1070" on="0"/>
        <pt x="635" y="1124" on="0"/>
        <pt x="828" y="1146" on="0"/>
        <pt x="919" y="1146" on="1"/>
        <pt x="1064" y="1146" on="0"/>
        <pt x="1315" y="1082" on="0"/>
        <pt x="1499" y="940" on="0"/>
        <pt x="1604" y="709" on="0"/>
        <pt x="1604" y="543" on="1"/>
        <pt x="627" y="543" on="1"/>
        <pt x="631" y="439" on="0"/>
        <pt x="694" y="304" on="0"/>
        <pt x="794" y="225" on="0"/>
        <pt x="922" y="193" on="0"/>
        <pt x="990" y="193" on="1"/>
        <pt x="1051" y="193" on="0"/>
        <pt x="1193" y="207" on="0"/>
        <pt x="1335" y="246" on="0"/>
        <pt x="1465" y="314" on="0"/>
        <pt x="1513" y="369" on="1"/>
        <pt x="1615" y="289" on="1"/>
        <pt x="1590" y="228" on="0"/>
        <pt x="1500" y="132" on="0"/>
        <pt x="1384" y="59" on="0"/>
        <pt x="1249" y="8" on="0"/>
        <pt x="1107" y="-24" on="0"/>
        <pt x="965" y="-39" on="0"/>
        <pt x="900" y="-39" on="1"/>
        <pt x="717" y="-39" on="0"/>
        <pt x="422" y="37" on="0"/>
        <pt x="213" y="184" on="0"/>
        <pt x="100" y="399" on="0"/>
      </contour>
      <contour>
        <pt x="1120" y="699" on="1"/>
        <pt x="1120" y="773" on="0"/>
        <pt x="1093" y="874" on="0"/>
        <pt x="1039" y="936" on="0"/>
        <pt x="958" y="963" on="0"/>
        <pt x="904" y="963" on="1"/>
        <pt x="790" y="963" on="0"/>
        <pt x="656" y="825" on="0"/>
        <pt x="635" y="699" on="1"/>
      </contour>
    </TTGlyph>
</ttFont>
